<svg height="516.66" viewBox="0 0 575.831 516.66" width="575.831" xmlns="http://www.w3.org/2000/svg"><path d="m471.147 244.328c-3.745.653-7.452 1.074-11.11 1.272l-.528.026c-3.37.165-6.699.138-9.966-.072-11.128-.725-21.623-3.64-31.032-8.666-6.988-3.745-13.118-8.532-18.179-14.141-5.588-6.163-9.864-13.308-12.563-21.091-8.123-23.476-2.399-59.091 40.49-82.223 7.273-3.923 16.359-1.209 20.283 6.074 3.923 7.273 1.209 16.359-6.074 20.283-19.814 10.682-29.995 26.049-27.641 41.083.251 1.667.673 3.335 1.243 4.986 4.363 12.598 18.53 24.387 40.282 23.923 3.075-.061 6.298-.368 9.667-.952 8.145-1.417 15.906 4.039 17.324 12.184 1.407 8.146-4.04 15.896-12.195 17.314z" fill="#a3c2f2"/><path d="m455.149 248.233c-1.937 0-3.864-.062-5.767-.184-11.553-.754-22.336-3.767-32.05-8.956-7.221-3.871-13.564-8.806-18.857-14.671-5.864-6.468-10.262-13.853-13.069-21.946-8.443-24.404-2.598-61.37 41.665-85.242 4.106-2.216 8.829-2.697 13.301-1.361 4.473 1.339 8.156 4.339 10.37 8.449 2.214 4.105 2.697 8.829 1.359 13.3-1.338 4.473-4.338 8.155-8.448 10.37-18.7 10.08-28.553 24.472-26.357 38.495.226 1.498.607 3.025 1.136 4.556 3.944 11.387 17.179 22.645 37.866 22.24 3.008-.06 6.133-.368 9.292-.916 9.498-1.648 18.563 4.728 20.214 14.219 1.64 9.492-4.743 18.555-14.228 20.205-3.796.662-7.633 1.102-11.404 1.306l-.539.027c-1.495.072-2.992.109-4.484.109zm-19.802-128.099c-2.039 0-4.058.505-5.902 1.5-41.501 22.383-47.116 56.656-39.314 79.205 2.584 7.452 6.639 14.259 12.052 20.229 4.91 5.44 10.799 10.021 17.508 13.617 9.079 4.85 19.178 7.668 30.014 8.374 3.18.205 6.438.228 9.682.07l.525-.026c3.564-.193 7.203-.609 10.805-1.238h.001c6.772-1.178 11.33-7.648 10.16-14.425-1.178-6.773-7.655-11.314-14.432-10.147-3.41.592-6.79.925-10.046.988-23.209.519-38.156-12.503-42.693-25.604-.629-1.819-1.083-3.646-1.353-5.432-2.536-16.198 8.277-32.523 28.927-43.655 2.934-1.581 5.075-4.209 6.03-7.402.955-3.191.61-6.563-.97-9.494-1.581-2.934-4.209-5.075-7.402-6.03-1.183-.354-2.391-.529-3.592-.529z" fill="#095ddb"/><path d="m456.351 215.782v.01c-8.681 3.312-14.415 21.77-6.753 29.679l-.056.083c-11.128-.725-21.623-3.64-31.032-8.666-6.988-3.745-13.118-8.532-18.179-14.141l3.697-35.786 10.798-.088c.251 1.667.673 3.335 1.243 4.986 4.363 12.598 18.53 24.387 40.282 23.923z" fill="#095ddb"/><path d="m449.52 248.053c-.047 0-.094 0-.14-.004-11.551-.754-22.333-3.767-32.047-8.956-7.221-3.871-13.564-8.806-18.857-14.671-.474-.525-.704-1.228-.631-1.932l3.697-35.786c.131-1.267 1.193-2.232 2.466-2.243l10.798-.088h.021c1.235 0 2.287.903 2.472 2.128.224 1.483.605 3.011 1.133 4.541 3.944 11.387 17.179 22.645 37.866 22.24 1.363-.041 2.482 1.023 2.55 2.374v.01c.054 1.081-.594 2.075-1.605 2.461-3.513 1.34-6.877 6.38-8.181 12.257-1.237 5.573-.365 10.563 2.332 13.348.821.847.938 2.152.281 3.132-.47.701-1.311 1.189-2.154 1.189zm-46.586-26.168c4.753 5.081 10.386 9.384 16.757 12.8 7.705 4.115 16.144 6.769 25.145 7.909-1.505-3.714-1.759-8.319-.655-13.293.981-4.423 2.872-8.364 5.286-11.285-19.247-1.933-31.692-13.594-35.76-25.339-.379-1.097-.695-2.195-.945-3.287l-6.477.053z" fill="#095ddb"/><path d="m235.169 480.901c-.02 0-.05-.01-.07-.02-40.604-11.895-49.6-56.193-37.579-95.269 2.283-7.716 6.411-16.628 12.746-21.499.021-.042.808-.63.848-.659 14.381-10.784 38.9-4.241 45.234 15.271.23.669.419 1.358.599 2.056.749 3.044 1.078 6.358.878 9.911-.198 3.563-1.042 7.203-1.128 7.376 0 .032-.183.817-.19.848-5.794 24.494 4.092 32.365 16.139 55.255 12.761 23.136-11.224 35.478-37.479 26.729z" fill="#a3c2f2"/><path d="m229.539 371.091.638 5.983 1.72 16.238c46.608 12.972 91.482 2.951 115.332-38.478 20.635-36.258 16.63-83.377-1.868-121.333-3.995-8.286-13.935-11.763-22.221-7.768s-11.772 13.926-7.777 22.221c24.538 50.091 13.917 110.426-37.997 116.876-9.1 1.128-19.392.536-30.849-2.127-3.935-.885-17.638 2.164-16.978 8.387z" fill="#a3c2f2"/><path d="m317.613 385.711c-7.406 4.521-15.7 7.985-24.853 10.171-1.687-6.937-5.739-15.83-10.72-23.126-1.956-2.874-4.072-5.5-6.228-7.655 8.933-1.108 11.748-3.064 18.355-7.186l4.501 5.34 18.944 22.457z" fill="#095ddb"/><path d="m292.758 398.383c-1.127 0-2.149-.768-2.427-1.91-1.663-6.839-5.631-15.387-10.355-22.308-1.932-2.839-3.927-5.293-5.931-7.298-.675-.676-.907-1.677-.596-2.58s1.109-1.551 2.057-1.669c8.009-.992 10.501-2.551 16.524-6.316l.815-.509c1.056-.659 2.433-.441 3.235.51l23.445 27.796c.47.558.673 1.293.557 2.013-.117.721-.542 1.354-1.165 1.733-7.783 4.752-16.387 8.273-25.574 10.469-.195.047-.391.069-.583.069zm-12.021-31.554c1.142 1.391 2.269 2.901 3.371 4.521 4.498 6.589 8.365 14.607 10.421 21.505 6.824-1.829 13.282-4.445 19.26-7.801l-20.135-23.871c-4.374 2.723-7.472 4.499-12.917 5.646z" fill="#095ddb"/><path d="m268.737 401.108c-11.985 0-24.613-1.799-37.511-5.389-1.33-.37-2.108-1.748-1.738-3.078.37-1.331 1.751-2.109 3.079-1.738 49.853 13.873 90.854.272 112.495-37.316 18.619-32.716 17.874-78.314-1.949-118.991-.604-1.24-.089-2.737 1.152-3.342 1.242-.605 2.738-.089 3.343 1.152 20.536 42.139 21.223 89.524 1.793 123.664-11.792 20.482-28.807 34.204-50.581 40.796-9.346 2.829-19.462 4.242-30.083 4.242z" fill="#095ddb"/><path d="m251.618 486.171c-5.476 0-11.352-.939-17.197-2.884l-.024-.007c-15.836-4.635-28.201-14.505-35.757-28.543-10.111-18.785-11.39-44.248-3.509-69.86 2.822-9.538 6.835-16.61 12.258-21.591.049-.052.1-.102.153-.148.122-.109.71-.615 1.08-.911.229-.208.557-.465 1.049-.813 8.594-6.447 21.197-7.44 32.104-2.508 12.006 3.421 23.688 4.704 33.792 3.707 1.871-.177 3.743-.444 5.574-.795 4.808-.911 9.321-2.382 13.421-4.375 6.631-3.192 12.352-7.786 17.01-13.657 17.872-22.087 18.486-60.149 1.545-94.731-4.586-9.521-.574-20.987 8.937-25.573 1.246-.6 2.739-.077 3.338 1.166.6 1.244.078 2.738-1.166 3.338-7.028 3.389-9.994 11.86-6.611 18.885 17.773 36.28 16.916 76.49-2.141 100.042-5.117 6.45-11.426 11.514-18.735 15.033-4.489 2.182-9.425 3.793-14.663 4.784-1.98.38-4.01.669-6.028.861-10.769 1.059-23.16-.299-35.829-3.929-.121-.035-.24-.078-.354-.131-9.161-4.205-20.112-3.431-27.251 1.924-.092.067-.471.35-.649.492-.056.052-.114.102-.174.147-.208.161-.592.488-.797.666-.034.035-.07.069-.106.103-4.795 4.353-8.384 10.718-10.97 19.459-7.498 24.368-6.356 48.432 3.125 66.046 7.006 13.017 18.028 21.803 32.758 26.114l.037.011c.041.012.082.024.122.037 14.144 4.717 28.774 2.957 34.789-4.18 3.949-4.685 3.844-11.254-.304-18.997-2.467-4.687-4.887-8.812-7.022-12.45-8.54-14.553-14.181-24.167-9.356-44.561.318-1.344 1.662-2.179 3.008-1.857 1.343.317 2.175 1.664 1.857 3.008-4.363 18.443.593 26.888 8.803 40.88 2.163 3.686 4.614 7.863 7.126 12.636 5.113 9.544 5.014 18.274-.289 24.564-4.734 5.616-13.206 8.599-22.953 8.599z" fill="#095ddb"/><path d="m360.012 494.844-34.994 5.1c-.15-22.308-3.823-65.685-26.639-105.43h-.01c-8.723-15.211-20.252-29.883-35.463-42.649-18.824-15.8-43.278-28.676-75.018-35.992-8.773-2.026-14.253-10.78-12.227-19.563 2.026-8.773 10.78-14.243 19.563-12.227 40.234 9.282 73.77 27.258 100.01 53.578 36.553 36.553 56.14 86.467 61.064 138.757l3.713 18.425z" fill="#a3c2f2"/><path d="m336.616 497.828c-5.026 0-9.523-.109-11.859-.433-1.209-.167-2.122-1.184-2.157-2.404-.604-20.914-4.826-61.567-26.291-99.059-.038-.057-.074-.113-.108-.173-7.085-12.35-15.603-23.522-25.318-33.21-3.107-3.096-6.331-6.046-9.581-8.767-12.889-10.818-27.838-19.664-44.437-26.295-9.206-3.686-19.143-6.773-29.54-9.179-10.105-2.333-16.431-12.453-14.099-22.56 2.332-10.097 12.45-16.422 22.558-14.102 20.95 4.835 40.324 12.094 57.586 21.574 16.135 8.832 30.817 19.826 43.635 32.675 21.87 21.869 38.432 49.027 49.225 80.719 6.372 18.69 10.592 38.688 12.546 59.438l3.687 18.296c.145.719-.033 1.466-.487 2.042-.454.575-1.138.923-1.871.95-.772.029-13.23.485-23.488.485zm-9.093-5.193c7.079.446 22.892.021 29.455-.189l-3.13-15.531c-.018-.087-.03-.174-.039-.261-1.911-20.408-6.054-40.064-12.313-58.425-10.544-30.961-26.704-57.473-48.029-78.798-12.483-12.513-26.782-23.219-42.501-31.823-16.862-9.262-35.805-16.355-56.304-21.087-7.425-1.7-14.853 2.94-16.564 10.354-1.712 7.42 2.932 14.851 10.353 16.564 10.646 2.463 20.83 5.628 30.27 9.407 17.091 6.827 32.499 15.947 45.792 27.105 3.358 2.812 6.69 5.859 9.899 9.058 9.984 9.955 18.739 21.424 26.025 34.089.039.056.075.113.109.173 21.357 37.203 26.123 77.382 26.976 99.364z" fill="#095ddb"/><path d="m329.739 475.728c1.197 3.467 5.322 7.995 7.275 10.812 34.705-53.163 52.853-83.744 55.053-85.251.805-.555 7.805-7.805 16.395-16.821 1.998-5.197 3.116-8.211 3.116-8.211-22.018-21.907-44.313-8.84-60.024 12.53-9.21 12.521-16.407 29.38-21.816 45.497-4.866 17.378-2.5 34.201 0 41.444z" fill="#a3c2f2"/><path d="m329.739 436.785c-.268 0-.541-.044-.809-.136-1.307-.446-2.003-1.868-1.556-3.174 4.676-13.672 12.317-32.779 22.165-46.17 7.822-10.637 20.411-23.567 35.958-24.768 9.755-.748 19.123 3.266 27.846 11.942.979.974.983 2.557.01 3.535-.973.979-2.557.984-3.535.01-7.646-7.604-15.696-11.138-23.936-10.502-13.659 1.054-25.112 12.95-32.315 22.745-9.472 12.879-16.899 31.484-21.462 44.824-.355 1.039-1.326 1.692-2.365 1.692z" fill="#095ddb"/><path d="m396.874 479.345c5.199-7.433 10.161-16.182 14.665-26.33 17.194-38.733 12.288-79.575-13.366-84.049-30.295-5.288-31.679 33.661-41.898 57.843-7.2 17.034-14.121 27.933-19.641 36.988-3.903 6.404-7.118 11.892-9.242 17.991-13.287 38.164 33.685 48.788 69.481-2.444z" fill="#095ddb"/><path d="m345.772 516.674c-4.453 0-8.492-.916-11.932-2.674-10.635-5.436-14.011-18.093-8.809-33.034 2.207-6.339 5.453-11.882 9.468-18.47l1.23-2.013c5.186-8.477 11.64-19.026 18.243-34.648 2.387-5.649 4.343-12.336 6.234-18.803 6.162-21.063 13.146-44.935 38.396-40.529 8.456 1.475 15.279 6.663 19.73 15.004 9.18 17.203 7.41 45.67-4.509 72.522-4.385 9.88-9.398 18.88-14.9 26.747-17.431 24.946-37.755 35.897-53.151 35.897zm47.198-145.681c-17.015 0-22.344 18.23-27.964 37.443-1.932 6.603-3.928 13.43-6.428 19.345-6.749 15.967-13.311 26.692-18.583 35.312l-1.226 2.005c-3.857 6.33-6.971 11.64-9.016 17.513-4.384 12.591-2.005 22.661 6.362 26.938 13.075 6.682 38.096-2.134 58.709-31.635 5.319-7.606 10.173-16.324 14.428-25.912 11.144-25.105 13.02-52.488 4.667-68.14-3.752-7.032-9.195-11.215-16.178-12.433-1.686-.294-3.277-.436-4.773-.436z" fill="#095ddb"/><path d="m195.225 284.084c40.234 9.282 73.77 27.258 100.01 53.578-11.838-7.406-32.389 1.737-32.329 14.203-18.824-15.8-43.278-28.676-75.018-35.992-8.773-2.026-14.253-10.78-12.227-19.563 2.026-8.773 10.78-14.243 19.563-12.227z" fill="#095ddb"/><path d="m262.907 354.366c-.577 0-1.148-.199-1.608-.585-20.075-16.85-44.963-28.784-73.972-35.471-10.107-2.334-16.433-12.454-14.101-22.561 2.332-10.097 12.45-16.422 22.558-14.102h.002c40.619 9.371 74.674 27.624 101.219 54.25.897.899.977 2.329.185 3.323-.792.993-2.204 1.234-3.281.561-6.127-3.834-14.607-2.354-20.291.813-5.162 2.876-8.232 7.085-8.212 11.26.005.974-.557 1.861-1.438 2.275-.339.158-.702.236-1.062.236zm-71.338-68.197c-6.292 0-11.998 4.328-13.47 10.705-1.712 7.42 2.932 14.851 10.353 16.564 28.208 6.502 52.655 17.864 72.736 33.799 1.477-4.293 4.985-8.219 9.997-11.011 4.174-2.325 9.636-3.881 15.028-3.686-24.729-22.234-55.476-37.697-91.55-46.021-1.036-.237-2.074-.352-3.094-.352z" fill="#095ddb"/><path d="m356.459 332.063c-7.336-14.423-30.123-8.833-35.912 2.046 12.347-25.641 7.566-60.176-5.18-86.157-4.107-8.454-.329-18.309 7.775-22.218 8.284-4.002 18.225-.519 22.218 7.765 14.764 30.182 20.461 65.585 11.099 98.563z" fill="#095ddb"/><path d="m320.545 336.609c-.38 0-.766-.087-1.128-.27-1.214-.615-1.713-2.089-1.123-3.315 10.839-22.51 8.809-55.471-5.172-83.97-2.231-4.593-2.539-9.761-.871-14.559 1.667-4.798 5.241-8.812 9.805-11.013 4.606-2.225 9.804-2.52 14.629-.832s8.705 5.155 10.926 9.765c16.211 33.141 20.209 68.776 11.251 100.33-.281.989-1.139 1.706-2.163 1.806-1.024.092-2.004-.438-2.471-1.354-3.196-6.284-9.472-7.276-12.928-7.309-7.574-.032-15.707 4.058-18.548 9.396-.449.843-1.313 1.325-2.209 1.325zm20.556-15.722c.083 0 .165 0 .247.002 5.748.053 10.565 1.942 14.021 5.419 6.84-29.086 2.554-61.437-12.254-91.709-1.648-3.42-4.515-5.982-8.08-7.229-3.564-1.249-7.402-1.029-10.805.615-3.377 1.629-6.021 4.6-7.256 8.151-1.229 3.534-1 7.343.642 10.723 12.601 25.686 15.857 54.979 9.179 77.844 4.194-2.39 9.259-3.816 14.306-3.816z" fill="#095ddb"/><path d="m288.598 321.354c-85.238 17.936-167.672-20.81-199.332-88.761-1.966-4.212-3.733-8.524-5.29-12.955-2.086-5.919-3.803-12.027-5.13-18.315-18.266-86.827 46.032-173.851 143.617-194.373 97.575-20.531 191.487 33.217 209.752 120.032 18.265 86.825-46.033 173.85-143.617 194.371z" fill="#a3c2f2"/><path d="m98.688 232.612c-3.354-.12-6.468-.13-9.422-.02-1.966-4.212-3.733-8.524-5.29-12.955 4.891 3.383 10.041 7.665 14.712 12.975z" fill="#095ddb"/><path d="m98.689 235.112c-.03 0-.06 0-.09-.002-3.355-.12-6.376-.125-9.239-.02-1.002.036-1.934-.53-2.358-1.44-2.016-4.317-3.827-8.754-5.384-13.186-.359-1.021-.019-2.159.843-2.815.861-.657 2.048-.685 2.938-.068 5.757 3.982 10.859 8.484 15.167 13.38.66.75.81 1.819.382 2.722-.415.875-1.296 1.43-2.259 1.43zm-9.136-8.014c.419.986.851 1.969 1.293 2.946.627-.014 1.262-.023 1.907-.027-1.03-.994-2.097-1.968-3.201-2.919z" fill="#095ddb"/><path d="m457.876 161.467c-.749 28.266-10.36 55.265-20.661 79.06-12.955 29.963-20.022 72.273-7.516 102.805-23.336-3.773-46.781-18.964-64.128-35.433-7.256 3.863-14.642 7.226-22.098 10.111-12.436 4.811-25.092 8.284-37.768 10.49-127.335 22.264-236.884-80.488-198.673-197.046 0-1.063 10.131-32.744 35.423-60.246.01-.02.02-.03.04-.04 87.824-97.967 264.262-79.507 307.556 42.789 2.046 5.739 3.743 11.668 5.08 17.756 2.206 10.021 3.004 19.962 2.745 29.754z" fill="#a3c2f2"/><path d="m142.495 71.169c-.02.01-.03.02-.04.04-1.268 1.377-3.403 3.813-5.29 6.088 7.227-7.725 15.98-12.277 23.096-11.987 7.236.28 12.776 5.56 13.335 17.547 1.647 35.453-10.67 63.47-39.495 74.229-14.143 5.28-21.519 1.407-24.204-7.157-2.785-8.853-.569-22.717 4.332-36.65-4.621 9.861-7.196 18.076-7.196 18.176-4.601 14.033-6.967 28.536-7.296 41.98h-.02c-.798 34.065 10.031 67.143 31.55 94.251-4.462-6.697-6.238-15.341-5.789-24.653.818-17.357 9.352-37.02 22.597-50.724 36.63-37.908 56.782-73.44 69.458-121.599 5.439-20.681 15.5-39.505 33.926-51.123 9.123-5.769 20.301-9.751 33.975-11.328-57.042.888-109.792 25.931-142.938 62.911z" fill="#fff"/><path d="m429.7 345.832c-.133 0-.266-.011-.399-.032-20.572-3.325-43.865-15.999-64.142-34.857-6.722 3.503-13.706 6.661-20.783 9.4-12.37 4.784-25.236 8.357-38.242 10.62-11.701 2.046-23.417 3.046-34.983 3.047-53.867.003-104.704-21.665-138.093-60.232-34.717-40.102-45.068-92.261-28.401-143.103l.027.01c1.343-5.28 11.727-34.85 35.931-61.168.018-.02.036-.039.055-.058 22.834-25.456 52.847-44.364 86.794-54.683 32.284-9.813 66.684-11.569 99.484-5.08 60.713 12.011 106.441 49.708 125.459 103.428 2.072 5.812 3.811 11.888 5.165 18.054 2.136 9.703 3.079 19.916 2.802 30.356-.795 30.01-11.569 58.51-20.866 79.986-11.563 26.742-20.465 69.204-7.497 100.864.343.837.207 1.794-.355 2.502-.479.603-1.203.945-1.958.945zm-64.129-40.433c.626 0 1.246.235 1.722.687 18.457 17.522 39.525 29.707 58.497 33.946-11.182-32.535-2.313-74.03 9.131-100.497 9.119-21.064 19.685-48.98 20.457-78.134.266-10.034-.639-19.842-2.688-29.15-1.31-5.962-2.99-11.834-4.994-17.453-18.415-52.019-62.779-88.537-121.718-100.197-67.798-13.412-137.395 8.903-181.623 58.237-.029.033-.06.064-.091.096-23.424 25.486-33.982 55.209-34.75 58.816-.02.164-.055.325-.107.482-16.107 49.133-6.109 99.53 27.43 138.272 39.416 45.528 103.96 66.808 168.437 55.532 12.685-2.206 25.232-5.691 37.297-10.358 7.451-2.882 14.793-6.242 21.825-9.986.37-.197.773-.293 1.174-.293zm-256.038-173.946c0 .087-.004.174-.014.261.017-.118.014-.207.014-.261z" fill="#095ddb"/><path d="m424.55 68.992c17.577 23.326 18.495 48.648-.759 76.405-96.178 138.72-100.776 154.209-122.986 171.235-10.879 8.344-23.785 14.013-39.355 14.573 17.617.908 35.652-.539 53.548-4.552 14.692-3.294 29.294-8.314 43.488-15.171 1.098-.529 2.186-1.058 3.273-1.607.22-.109.439-.219.649-.329-6.048 2.834-10.38-.02-12.287-6.408-1.896-6.298-1.427-16.02 2.046-27.089 12.688-37.103 35.471-75.49 68.041-98.283v.06c25.741-15.96 35.643 7.785 29.993 27.987 3.014-9.971 5.38-20.281 6.657-30.822 4.902-40.036-8.833-77.554-32.309-105.999z" fill="#fff"/><path d="m429.7 345.832c-.133 0-.266-.011-.399-.032-20.518-3.317-43.811-15.992-64.139-34.857-32.068 16.746-67.927 24.604-103.841 22.76-16.11-.809-32.021-3.575-47.287-8.223-28.884-4.881-55.998-16.266-78.42-32.93-31.113-23.083-51.589-54.452-59.214-90.713-2.107-10.005-3.206-20.171-3.268-30.213-.06-9.791.866-19.61 2.752-29.185 5.333-27.2 18.557-53.362 38.241-75.656 19.081-21.61 43.804-39.187 71.498-50.828 2.946-1.238 5.921-2.407 8.843-3.477l.677-.247c.574-.21 1.14-.417 1.7-.613 37.463-13.246 77.201-15.224 114.913-5.714 5.939 1.494 11.815 2.825 18.81 4.364 1.109.241 2.223.505 3.327.769 22.97 5.494 43.964 14.991 62.401 28.228 11.354 8.153 21.509 17.62 30.184 28.138 25.871 31.348 37.542 69.665 32.862 107.894-3.055 25.195-10.896 44.359-19.976 66.547l-.384.938c-11.188 26.506-19.716 68.474-6.967 99.604.343.837.207 1.794-.356 2.502-.479.603-1.202.945-1.957.945zm-64.129-40.433c.625 0 1.244.234 1.72.685 18.506 17.528 39.574 29.713 58.5 33.948-10.978-32.005-2.482-72.98 8.572-99.169l.374-.914c8.943-21.854 16.667-40.729 19.64-65.258v-.003c4.512-36.854-6.766-73.825-31.755-104.104-8.401-10.187-18.24-19.357-29.244-27.259-17.907-12.856-38.312-22.084-60.646-27.426-1.071-.256-2.152-.512-3.234-.748-6.095-1.341-12.607-2.801-18.962-4.399-36.755-9.267-75.494-7.338-112.031 5.582-.546.191-1.091.391-1.644.593l-.681.248c-2.843 1.04-5.745 2.181-8.618 3.389-55.583 23.365-96.495 70.435-106.771 122.84-1.822 9.248-2.716 18.731-2.658 28.188.059 9.708 1.123 19.537 3.16 29.215 7.37 35.047 27.185 65.383 57.303 87.728 21.833 16.227 48.261 27.306 76.428 32.04.106.019.212.043.315.075 14.922 4.556 30.478 7.267 46.237 8.058 35.6 1.841 71.152-6.122 102.82-23.015.371-.197.775-.294 1.176-.294z" fill="#095ddb"/><path d="m572.748 228.52c-.529 2.246-1.427 4.462-2.725 6.588 6.158 13.225.359 25.222-10.191 30.921-7.107 3.853-16.359 4.841-25.561 1.427-23.426 12.317-48.228 2.595-58.429-19.074-15.87-33.786 1.278-77.922 39.874-68.021 11.648-7.755 26.22-4.002 34.205 2.006 7.276 5.49 10.131 12.307 10.33 19.443 9.652 5.47 14.932 16.409 12.496 26.709z" fill="#a3c2f2"/><path d="m546.202 271.654c-3.161 0-6.674-.362-10.569-1.202-.226-.046-.459-.101-.683-.162-.06-.017-.119-.035-.177-.057-1.544-.552-3.035-1.462-4.431-2.703-4.334-3.789-7.785-10.936-5.964-17.236 1.057-3.658 4.224-8.317 13.307-9.743 1.368-.216 2.644.718 2.857 2.082.214 1.364-.718 2.644-2.082 2.857-3.579.562-8.094 2.092-9.279 6.191-1.228 4.248 1.386 9.404 4.468 12.099.888.79 1.821 1.376 2.718 1.713.087.022.176.042.262.06l.042.009c17.196 3.711 25.498-2.958 28.914-7.265.417-.53.822-1.099 1.196-1.685 3.827-5.996 4.174-13.685.928-20.564-.589-1.248-.055-2.738 1.194-3.327 1.249-.59 2.739-.055 3.328 1.194 3.983 8.442 3.521 17.934-1.236 25.389-.464.726-.964 1.43-1.488 2.095-3.328 4.195-10.375 10.256-23.306 10.256z" fill="#095ddb"/><path d="m538.945 199.404-8.857 34.112c-1.31 2.978-1.042 5.691.179 7.961 2.439 4.522 8.668 7.318 13.833 7.063 11.206-.552 19.39-6.072 23.954-11.248 1.834-2.065 3.085-4.078 3.721-5.694 3.24-8.196 1.347-17.582-4.919-24.496-6.969-7.677-17.656-10.627-27.911-7.698z" fill="#a3c2f2"/><path d="m543.439 251.057c-6.241 0-12.741-3.514-15.371-8.396-1.67-3.107-1.79-6.544-.351-9.953l8.805-33.931c.223-.857.881-1.532 1.733-1.775 5.88-1.681 11.976-1.615 17.627.192 4.92 1.559 9.358 4.403 12.828 8.226l.003.003c6.911 7.639 8.973 18.02 5.381 27.092-.77 1.98-2.251 4.271-4.165 6.436-1.495 1.698-3.254 3.31-5.226 4.786-4.123 3.072-11.017 6.829-20.477 7.303-.262.013-.525.019-.789.019zm-2.446-49.601-8.483 32.691c-.034.129-.078.256-.131.378-.897 2.041-.866 3.981.093 5.766 1.826 3.39 6.983 5.967 11.511 5.753 8.201-.41 14.169-3.66 17.73-6.314 1.692-1.267 3.196-2.644 4.468-4.088 1.514-1.713 2.701-3.518 3.26-4.954 2.891-7.303 1.19-15.692-4.433-21.908-2.876-3.169-6.556-5.527-10.641-6.822-4.282-1.368-8.876-1.536-13.374-.501z" fill="#095ddb"/><path d="m492.504 181.754c35.671-12.286 48.78-5.879 57.418.621 9.439 7.096 11.446 16.496 9.839 25.85-.316 1.824-.918 4.073-2.061 6.489-2.891 6.12-9.223 13.344-23.004 17.591-2.588.796-5.214.793-7.656.193-2.187-.536-4.674-2.225-6.684-4.591-5.853-6.881-7.691-19.456 13.466-25.769l-41.318-20.383z" fill="#a3c2f2"/><path d="m530.529 235.426c-1.364 0-2.735-.165-4.081-.496-2.742-.673-5.657-2.643-7.998-5.402-3.929-4.618-5.392-10.361-3.911-15.359 1.318-4.448 5.609-10.562 18.568-14.424 1.324-.397 2.716.358 3.11 1.682.394 1.323-.359 2.715-1.682 3.109-8.56 2.552-13.816 6.374-15.203 11.053-.999 3.372.096 7.373 2.928 10.702 1.628 1.92 3.688 3.369 5.379 3.784 2.108.518 4.295.462 6.323-.162 9.927-3.055 16.883-8.011 20.677-14.729.299-.526.556-1.021.788-1.521.887-1.867 1.513-3.835 1.871-5.867 1.69-9.837-1.297-17.72-8.881-23.42-1.955-1.478-4.658-3.352-8.291-4.77l-.069-.029c-10.624-4.113-25.916-2.627-46.746 4.545-1.307.452-2.728-.245-3.178-1.549-.45-1.306.244-2.729 1.55-3.178 22.334-7.694 38.3-9.111 50.24-4.457.031.012.062.024.092.037 4.168 1.639 7.218 3.75 9.411 5.408 9.068 6.815 12.804 16.592 10.797 28.269-.437 2.485-1.201 4.883-2.271 7.138-.282.606-.6 1.221-.964 1.859-4.439 7.862-12.366 13.599-23.556 17.043-1.589.489-3.243.734-4.906.734z" fill="#095ddb"/><path d="m533.692 236.954c-1.288 5.499-4.312 10.58-9.372 12.007-.888.25-1.737.379-2.565.379-.01.01-.02.01-.04.01-.04 0-.09-.01-.14-.02-.289 0-.559-.02-.838-.04-10.071-1.008-16.01-18.884-15.74-31.061v-.06c.02-.529.04-1.058.08-1.567-1.068 14.682-10.829 23.635-22.368 18.724l-14.802-15.141c-1.148-6.977.2-15.341 6.188-23.875 15.58-22.228 33.906-18.325 46.302-3.134 2.745 3.363 5.21 7.276 7.276 11.578 3.314 6.887 5.649 14.782 6.607 23.016.329 2.795.15 6.049-.589 9.183z" fill="#a3c2f2"/><path d="m513.388 275.324c-14.787 0-28.664-7.477-36.99-20.74-3.052-4.85-5.252-10.294-6.538-16.18-.295-1.349.56-2.681 1.909-2.976 1.351-.291 2.682.56 2.976 1.909 1.162 5.317 3.142 10.225 5.886 14.585 9.832 15.662 27.551 22.108 45.144 16.422 2.464-.798 4.933-1.844 7.335-3.105 1.223-.643 2.734-.172 3.376 1.05.642 1.223.172 2.734-1.051 3.376-2.654 1.395-5.386 2.551-8.121 3.437-4.637 1.499-9.326 2.223-13.926 2.223z" fill="#095ddb"/><path d="m521.719 251.846c-.096 0-.198-.005-.302-.015-.304-.008-.596-.024-.893-.05-8.715-.877-14.391-11.235-16.767-21.806-1.705 2.919-3.924 5.27-6.571 6.886-4.57 2.789-10.059 3.062-15.458.765-1.271-.541-1.862-2.009-1.321-3.279s2.008-1.861 3.279-1.322c3.926 1.671 7.694 1.522 10.895-.431 4.45-2.717 7.433-8.715 7.991-16.06.003-.041.006-.082.009-.123.106-1.375 1.301-2.404 2.679-2.302 1.375.103 2.407 1.299 2.307 2.674-.003.042-.006.083-.009.124-.03.427-.048.867-.057 1.31 0 .062-.004.123-.01.184-.234 12.255 5.71 27.619 13.493 28.402.182.015.401.027.632.031.057 0 .113.004.169.009.608-.012 1.214-.105 1.848-.286 6.522-1.84 8.929-11.927 8.161-18.501-1.467-12.603-6.327-24.739-13.335-33.3-6.289-7.703-13.728-11.781-20.944-11.534-7.518.275-14.91 5.296-21.376 14.52-6.095 8.69-6.551 16.431-5.86 21.395.19 1.367-.764 2.631-2.131 2.821-1.376.184-2.631-.765-2.821-2.132-.814-5.853-.31-14.934 6.718-24.955 7.399-10.554 16.144-16.31 25.287-16.645 8.826-.334 17.698 4.424 24.999 13.365 7.596 9.279 12.856 22.359 14.431 35.886.966 8.269-2.045 21.148-11.764 23.891-1.063.303-2.1.459-3.16.476-.021 0-.042.002-.064.002-.018 0-.036 0-.055 0z" fill="#095ddb"/><path d="m253.177 214.244c26.705 2.101 39.235-42.451 19.099-73.299l-.004-.014c-19.453-29.998-51.771-18.56-53.455 18.98-1.134 24.35 13.364 52.734 34.361 54.333z" fill="#fff"/><path d="m208.23 129.491c-.244 0-.492-.036-.736-.111-1.32-.406-2.06-1.806-1.654-3.125 4.853-15.766 16.498-27.078 31.15-30.261 1.349-.287 2.681.563 2.974 1.913.293 1.349-.563 2.681-1.912 2.974-12.863 2.794-23.119 12.829-27.433 26.845-.331 1.075-1.32 1.766-2.388 1.766z" fill="#095ddb"/><path d="m255.004 216.819c-.668 0-1.342-.026-2.022-.08-13.402-1.016-25.4-12.068-32.095-29.565-.554-1.441-1.077-2.961-1.553-4.513-2.316-7.55-3.358-15.458-3.011-22.868.362-8.199 2.122-15.461 5.229-21.576.282-.543.554-1.056.836-1.559 5.313-9.44 13.712-15.022 23.045-15.315 10.664-.352 21.201 6.307 28.932 18.224.02.029.038.06.056.09 13.954 21.452 12.282 47.795 3.409 62.75-5.55 9.355-13.6 14.413-22.827 14.413zm-8.802-90.489c-.204 0-.407.003-.611.01-7.542.237-14.41 4.892-18.843 12.769-.254.453-.501.919-.749 1.394-2.771 5.455-4.35 12.029-4.682 19.519-.32 6.848.647 14.168 2.797 21.175.441 1.442.926 2.851 1.44 4.188 5.898 15.417 16.553 25.521 27.808 26.371h.007c8.069.626 15.231-3.592 20.16-11.899 8.094-13.642 9.544-37.788-3.346-57.542-.021-.032-.041-.064-.061-.098-6.595-10.13-15.279-15.885-23.922-15.885z" fill="#095ddb"/><path d="m355.866 188.102c25.267 2.878 38.63-38.974 20.548-68.908l-.004-.013c-17.462-29.105-48.502-19.323-51.343 16.236-1.882 23.064 10.932 50.473 30.799 52.685z" fill="#fff"/><g fill="#095ddb"><path d="m376.699 98.088c-.751 0-1.494-.337-1.986-.979-6.041-7.878-13.831-12.932-22.53-14.615-3.119-.601-6.286-.763-9.41-.477-1.375.14-2.592-.887-2.718-2.262-.125-1.375.887-2.591 2.262-2.717 3.596-.332 7.234-.146 10.814.546 9.919 1.919 18.754 7.618 25.549 16.481.84 1.096.633 2.665-.463 3.506-.454.348-.988.516-1.519.516z"/><path d="m358.355 190.743c-.911 0-1.83-.052-2.761-.158-12.911-1.43-24.043-12.558-29.779-29.766-.142-.409-.281-.856-.409-1.303-2.49-7.969-3.473-16.391-2.827-24.299.538-6.707 2.049-12.753 4.491-17.966.654-1.405 1.396-2.776 2.205-4.068 5.351-8.649 13.458-13.604 22.254-13.604h.159c10.134.069 19.927 6.744 26.869 18.313.04.066.077.134.11.203 12.478 20.836 10.006 45.765 1.087 59.666-5.421 8.449-12.942 12.982-21.398 12.982zm-6.824-86.164c-7.026 0-13.585 4.093-18.011 11.246-.706 1.128-1.35 2.315-1.919 3.541-2.19 4.676-3.548 10.143-4.038 16.255-.595 7.278.316 15.044 2.632 22.461.12.416.232.777.354 1.129 5.036 15.105 14.84 25.213 25.596 26.405h.008c7.58.872 14.471-2.884 19.393-10.556 8.111-12.642 10.278-35.445-1.273-54.57-.041-.068-.078-.137-.112-.208-6.014-9.926-14.208-15.646-22.506-15.703h-.123z"/><path d="m239.201 160.439c0 11.049-7.616 20.152-17.477 21.489-2.196-7.156-3.244-14.762-2.904-22.018.359-8.124 2.156-15.042 4.961-20.561 8.843 2.236 15.421 10.829 15.421 21.09z"/><path d="m221.723 184.428c-1.084 0-2.063-.705-2.388-1.767-2.317-7.551-3.358-15.459-3.012-22.869.362-8.199 2.122-15.461 5.229-21.576.53-1.041 1.707-1.576 2.842-1.291 10.19 2.576 17.308 12.245 17.308 23.514 0 12.145-8.443 22.447-19.641 23.967-.113.015-.226.022-.338.022zm3.385-42.037c-2.223 5.072-3.497 10.991-3.79 17.629-.287 6.143.461 12.666 2.171 19.002 7.665-2.104 13.213-9.72 13.213-18.583 0-8.229-4.677-15.364-11.594-18.048z"/><path d="m342.532 139.037c-.335 9.606-6.534 17.509-14.723 19.79-2.363-7.563-3.366-15.718-2.738-23.406.531-6.623 2.04-12.363 4.263-17.109 7.959 2.875 13.532 11.169 13.198 20.725z"/><path d="m327.808 161.328c-1.067 0-2.052-.688-2.385-1.756-2.506-8.024-3.49-16.446-2.844-24.354.538-6.707 2.049-12.753 4.491-17.966.548-1.171 1.899-1.728 3.113-1.291 9.104 3.288 15.209 12.813 14.848 23.163-.363 10.405-7.169 19.498-16.551 22.111-.224.063-.45.093-.672.093zm2.823-39.702c-1.625 4.146-2.655 8.841-3.068 13.995-.528 6.46.13 13.304 1.904 19.947 6.079-2.774 10.31-9.273 10.566-16.618.256-7.348-3.523-14.145-9.403-17.324z"/><path d="m262.417 271.626c-4.409.797-8.966 1.329-13.625 1.465-13.209.384-27.246-2.382-41.12-11.085-10.889-6.829-16.189-15.041-17.44-22.471-2.661-15.765 12.934-28.006 32.324-15.971 37.803 23.472 55.646 13.836 64.227 25.101 6.269 8.212-5.707 19.601-24.366 22.962z"/><path d="m246.479 275.626c-14.471 0-27.961-3.864-40.135-11.501-10.458-6.56-17.056-15.145-18.577-24.175-1.395-8.265 1.726-16.075 8.143-20.384 7.503-5.037 17.957-4.338 27.964 1.874 21.045 13.066 35.554 15.633 46.148 17.506 8.387 1.483 14.446 2.555 18.75 8.204 2.305 3.02 2.805 6.669 1.406 10.272-2.932 7.553-13.91 14.25-27.317 16.664-4.796.867-9.505 1.373-13.996 1.504-.797.023-1.594.035-2.386.035zm-39.114-54.443c-3.2 0-6.144.84-8.668 2.535-4.764 3.198-7.063 9.1-6 15.401 1.28 7.604 7.07 14.979 16.303 20.77 11.988 7.52 25.351 11.107 39.719 10.704 4.242-.123 8.701-.604 13.253-1.426h.001c13.505-2.433 21.671-8.73 23.543-13.554.777-2.001.541-3.777-.721-5.432-3.121-4.097-7.834-4.931-15.644-6.312-10.374-1.835-26.051-4.607-47.915-18.182-4.82-2.992-9.577-4.506-13.872-4.506z"/></g><path d="m248.792 273.092c-13.209.384-27.246-2.382-41.12-11.085-10.889-6.829-16.189-15.041-17.44-22.471 27.456-7.521 58.297 11.765 58.56 33.556z" fill="#fff"/><path d="m246.479 275.626c-14.471 0-27.961-3.864-40.135-11.501-10.458-6.56-17.056-15.145-18.577-24.175-.213-1.266.567-2.487 1.805-2.826 15.352-4.206 33.089-.639 46.29 9.307 9.69 7.301 15.315 17.007 15.431 26.631.016 1.364-1.064 2.489-2.427 2.529-.798.023-1.594.035-2.386.035zm-53.267-34.245c1.952 6.793 7.474 13.294 15.789 18.508 11.259 7.063 23.731 10.669 37.11 10.735-.963-7.25-5.685-14.494-13.258-20.2-11.329-8.535-26.306-11.906-39.64-9.043z" fill="#095ddb"/><path d="m35.398 233.89c-8.274 14.363-.399 42.829 32.818 77.792 6.158 6.498 13.205 13.215 21.18 20.102 6.258 5.41 6.947 14.862 1.537 21.12-2.964 3.423-7.136 5.18-11.338 5.18-3.463 0-6.947-1.198-9.781-3.643-29.215-25.242-49.266-50.155-59.617-74.04-10.002-23.106-10.261-44.934-.739-61.463 14.103-24.484 45.773-32.868 81.376-21.869l4.781 2.984 7.406 35.193-4.332-2.635c-6.388-3.334-12.716-5.839-18.794-7.546-20.491-5.759-38.008-2.425-44.496 8.823z" fill="#a3c2f2"/><path d="m79.594 360.587c-4.187 0-8.239-1.51-11.412-4.252-29.503-25.495-49.784-50.71-60.278-74.944-10.325-23.844-10.543-46.467-.613-63.7 14.575-25.296 47.656-34.325 84.281-23.007 1.319.408 2.058 1.808 1.65 3.127s-1.806 2.059-3.127 1.65c-34.305-10.604-65.108-2.468-78.472 20.726-9.121 15.83-8.812 36.86.869 59.218 10.193 23.538 30.03 48.148 58.959 73.147 2.265 1.957 5.157 3.035 8.143 3.035h.004c3.631 0 7.073-1.573 9.444-4.317 4.497-5.203 3.921-13.094-1.282-17.591-23.681-20.464-41.1-41.157-50.373-59.844-8.321-16.769-9.796-31.399-4.151-41.196 9.353-16.231 37.991-17.193 66.614-2.24 1.224.64 1.697 2.149 1.058 3.373-.639 1.225-2.151 1.699-3.374 1.059-25.77-13.464-52.11-13.33-59.967.305-4.782 8.301-3.256 21.256 4.298 36.478 8.98 18.097 25.98 38.25 49.164 58.283 7.289 6.3 8.095 17.354 1.796 24.644-3.321 3.844-8.142 6.048-13.227 6.048h-.005z" fill="#095ddb"/><path d="m162.527 366.957c-.18.958-.469 1.976-.848 3.024-2.515 6.907-9.083 15.081-15.441 16.329-.2.04-.399.07-.599.1.699 7.216-7.077 16.05-14.143 17.427-3.893.768-4.841 1.347-9.063 1.218-1.298 4.821-5.22 8.743-10.45 9.771-17.147 3.363-36.68-1.517-49.167-14.792-24.254-25.791-8.165-77.353 27.757-87.284 3.044-.838 6.228-1.388 9.552-1.587 21.19-1.288 41.781 8.853 47.59 28.266 8.683 6.777 17.167 14.912 14.812 27.528z" fill="#a3c2f2"/><path d="m101.358 418.348c-15.358 0-30.403-6.014-40.358-16.6-15.212-16.177-16.481-43.261-3.086-65.865.705-1.188 2.237-1.581 3.425-.876 1.188.703 1.58 2.237.876 3.425-10.353 17.471-12.844 43.652 2.427 59.891 11.208 11.917 29.599 17.432 46.859 14.048 4.146-.813 7.413-3.866 8.523-7.969.303-1.117 1.354-1.881 2.489-1.846 2.844.091 3.95-.166 5.966-.623.724-.164 1.538-.349 2.541-.545 6.09-1.194 12.666-9.181 12.131-14.733-.125-1.291.758-2.462 2.033-2.698l.567-.1c6.082-1.194 13.069-10.704 14.315-17.363 1.932-10.32-4.154-17.495-13.887-25.094-.408-.319-.708-.757-.856-1.254-5.937-19.822-26.896-27.577-45.045-26.483-9.27.563-18.109 4.062-25.565 10.117-1.071.872-2.646.708-3.517-.364-.871-1.071-.708-2.646.364-3.517 8.271-6.718 18.096-10.601 28.415-11.227 23.854-1.457 43.783 10.287 49.899 29.271 9.411 7.442 17.59 16.204 15.107 29.47-1.505 8.043-8.998 18.45-16.844 20.98-.682 8.161-8.984 16.495-16.155 17.9-.946.186-1.713.36-2.396.515-1.743.396-3.098.703-5.357.756-2.02 5.008-6.381 8.656-11.765 9.712-3.675.721-7.4 1.071-11.105 1.071z" fill="#095ddb"/><path d="m121.046 407.405c-11.997 0-22.427-4.31-31.114-12.879-.983-.969-.994-2.552-.024-3.535.97-.984 2.552-.995 3.536-.023 9.981 9.846 22.625 13.35 37.577 10.421 1.356-.264 2.669.616 2.934 1.973.266 1.354-.617 2.668-1.972 2.934-3.775.74-7.424 1.11-10.936 1.11z" fill="#095ddb"/><path d="m138.017 389.608c-11.562 0-22.514-4.453-29.389-12.316-.909-1.039-.803-2.619.236-3.527 1.04-.91 2.619-.804 3.527.236 7.321 8.372 20.726 12.332 33.365 9.855 6.075-1.193 13.063-10.703 14.308-17.362 2.191-11.709-6.064-19.127-15.463-26.312-2.426-1.854-5.215-2.622-8.069-2.229-2.982.415-5.75 2.067-7.593 4.534-.827 1.105-2.394 1.333-3.499.505-1.106-.826-1.333-2.393-.506-3.499 2.638-3.528 6.614-5.895 10.91-6.492 4.207-.585 8.283.524 11.794 3.208 10.262 7.844 20.054 16.714 17.342 31.204-1.596 8.527-9.92 19.71-18.26 21.349-2.903.569-5.822.846-8.703.846z" fill="#095ddb"/><path d="m140.066 352.367c-.434 0-.873-.112-1.272-.35-11-6.521-18.932-12.46-26.916-23.518-.808-1.12-.556-2.683.563-3.491 1.118-.809 2.682-.557 3.49.563 7.513 10.405 14.727 15.811 25.412 22.145 1.188.704 1.58 2.237.875 3.425-.467.788-1.299 1.226-2.153 1.226z" fill="#095ddb"/></svg>