<?xml version="1.0" encoding="UTF-8"?>
<svg xmlns="http://www.w3.org/2000/svg" xmlns:xlink="http://www.w3.org/1999/xlink" width="48pt" height="48pt" viewBox="0 0 48 48" version="1.1">
<g id="surface1637">
<path style=" stroke:none;fill-rule:nonzero;fill:rgb(32.941176%,43.137255%,47.843137%);fill-opacity:1;" d="M 10 43 C 7.238281 43 5 40.761719 5 38 L 5 10 C 5 7.238281 7.238281 5 10 5 C 12.761719 5 15 7.238281 15 10 L 15 38 C 15 40.761719 12.761719 43 10 43 Z M 10 43 "/>
<path style=" stroke:none;fill-rule:nonzero;fill:rgb(32.941176%,43.137255%,47.843137%);fill-opacity:1;" d="M 37 43 C 34.238281 43 32 40.761719 32 38 L 32 10 C 32 7.238281 34.238281 5 37 5 C 39.761719 5 42 7.238281 42 10 L 42 38 C 42 40.761719 39.761719 43 37 43 Z M 37 43 "/>
<path style=" stroke:none;fill-rule:nonzero;fill:rgb(47.058824%,56.470588%,61.176471%);fill-opacity:1;" d="M 40.535156 6.464844 C 38.585938 4.511719 35.414062 4.511719 33.464844 6.464844 L 23.132812 16.796875 L 13.664062 6.597656 C 11.785156 4.574219 8.621094 4.457031 6.597656 6.335938 C 4.574219 8.214844 4.457031 11.378906 6.335938 13.402344 L 19.335938 27.402344 C 19.359375 27.425781 19.386719 27.441406 19.40625 27.464844 C 19.429688 27.484375 19.441406 27.511719 19.464844 27.535156 C 19.582031 27.652344 19.71875 27.738281 19.84375 27.84375 C 19.960938 27.941406 20.070312 28.046875 20.195312 28.132812 C 20.363281 28.246094 20.542969 28.332031 20.722656 28.425781 C 20.839844 28.484375 20.953125 28.5625 21.078125 28.613281 C 21.285156 28.699219 21.503906 28.753906 21.71875 28.8125 C 21.820312 28.839844 21.917969 28.882812 22.023438 28.902344 C 22.34375 28.964844 22.671875 29 23 29 C 23.3125 29 23.625 28.96875 23.933594 28.910156 C 24.03125 28.890625 24.128906 28.851562 24.226562 28.828125 C 24.433594 28.777344 24.636719 28.726562 24.839844 28.644531 C 24.957031 28.601562 25.066406 28.53125 25.179688 28.476562 C 25.351562 28.390625 25.523438 28.3125 25.691406 28.207031 C 25.804688 28.132812 25.910156 28.039062 26.019531 27.957031 C 26.148438 27.859375 26.28125 27.773438 26.402344 27.664062 C 26.425781 27.640625 26.441406 27.613281 26.464844 27.589844 C 26.488281 27.570312 26.511719 27.554688 26.535156 27.535156 L 40.535156 13.535156 C 42.488281 11.582031 42.488281 8.417969 40.535156 6.464844 Z M 40.535156 6.464844 "/>
<path style=" stroke:none;fill-rule:nonzero;fill:rgb(100%,61.960784%,50.196078%);fill-opacity:1;" d="M 19 22.5 C 19 24.433594 17.433594 26 15.5 26 C 13.566406 26 12 24.433594 12 22.5 C 12 20.566406 13.566406 19 15.5 19 C 17.433594 19 19 20.566406 19 22.5 Z M 19 22.5 "/>
<path style=" stroke:none;fill-rule:nonzero;fill:rgb(100%,61.960784%,50.196078%);fill-opacity:1;" d="M 34 22.5 C 34 24.433594 32.433594 26 30.5 26 C 28.566406 26 27 24.433594 27 22.5 C 27 20.566406 28.566406 19 30.5 19 C 32.433594 19 34 20.566406 34 22.5 Z M 34 22.5 "/>
<path style=" stroke:none;fill-rule:nonzero;fill:rgb(32.941176%,43.137255%,47.843137%);fill-opacity:1;" d="M 30 22 C 30 25.867188 26.867188 29 23 29 C 19.132812 29 16 25.867188 16 22 C 16 18.132812 19.132812 15 23 15 C 26.867188 15 30 18.132812 30 22 Z M 30 22 "/>
<path style=" stroke:none;fill-rule:nonzero;fill:rgb(100%,61.960784%,50.196078%);fill-opacity:1;" d="M 29 27.5 C 29 24.460938 26.3125 22 23 22 C 19.6875 22 17 24.460938 17 27.5 C 17 30.539062 19.6875 33 23 33 C 26.3125 33 29 30.539062 29 27.5 Z M 29 27.5 "/>
<path style=" stroke:none;fill-rule:nonzero;fill:rgb(100%,61.960784%,50.196078%);fill-opacity:1;" d="M 22 18 L 24 18 C 26.210938 18 28 19.789062 28 22 L 28 28 L 18 28 L 18 22 C 18 19.789062 19.789062 18 22 18 Z M 22 18 "/>
<path style=" stroke:none;fill-rule:nonzero;fill:rgb(55.294118%,43.137255%,38.823529%);fill-opacity:1;" d="M 25 26 C 25 25.449219 24.105469 25 23 25 C 21.894531 25 21 25.449219 21 26 C 21 26.550781 21.894531 27 23 27 C 24.105469 27 25 26.550781 25 26 Z M 25 26 "/>
<path style=" stroke:none;fill-rule:nonzero;fill:rgb(12.941176%,12.941176%,12.941176%);fill-opacity:1;" d="M 22 23 C 22 23.550781 21.550781 24 21 24 C 20.449219 24 20 23.550781 20 23 C 20 22.449219 20.449219 22 21 22 C 21.550781 22 22 22.449219 22 23 Z M 22 23 "/>
<path style=" stroke:none;fill-rule:nonzero;fill:rgb(12.941176%,12.941176%,12.941176%);fill-opacity:1;" d="M 26 23 C 26 23.550781 25.550781 24 25 24 C 24.449219 24 24 23.550781 24 23 C 24 22.449219 24.449219 22 25 22 C 25.550781 22 26 22.449219 26 23 Z M 26 23 "/>
<path style=" stroke:none;fill-rule:nonzero;fill:rgb(100%,100%,100%);fill-opacity:1;" d="M 19.5625 29 C 20.175781 30.179688 21.480469 31 23 31 C 24.519531 31 25.824219 30.179688 26.4375 29 Z M 19.5625 29 "/>
<path style=" stroke:none;fill-rule:nonzero;fill:rgb(100%,61.960784%,50.196078%);fill-opacity:1;" d="M 17.773438 43 L 7.996094 43 C 6.34375 43 5 41.65625 5 40.003906 L 5 38 L 15.226562 38 C 17.308594 38 19 39.691406 19 41.773438 C 19 42.449219 18.449219 43 17.773438 43 Z M 17.773438 43 "/>
<path style=" stroke:none;fill-rule:nonzero;fill:rgb(100%,61.960784%,50.196078%);fill-opacity:1;" d="M 29.226562 43 L 39.003906 43 C 40.65625 43 42 41.65625 42 40.003906 L 42 38 L 31.773438 38 C 29.691406 38 28 39.691406 28 41.773438 C 28 42.449219 28.550781 43 29.226562 43 Z M 29.226562 43 "/>
<path style=" stroke:none;fill-rule:nonzero;fill:rgb(47.058824%,56.470588%,61.176471%);fill-opacity:1;" d="M 42.015625 9.921875 L 42 16 C 41.886719 14.980469 40.5 13.445312 38.984375 15.074219 L 39 11 Z M 42.015625 9.921875 "/>
<path style=" stroke:none;fill-rule:nonzero;fill:rgb(47.058824%,56.470588%,61.176471%);fill-opacity:1;" d="M 4.984375 9.921875 L 5 16 C 5.113281 14.980469 6.5 13.445312 8.015625 15.074219 L 8 11 Z M 4.984375 9.921875 "/>
</g>
</svg>
