<?xml version="1.0" encoding="UTF-8"?>
<svg xmlns="http://www.w3.org/2000/svg" xmlns:xlink="http://www.w3.org/1999/xlink" width="48pt" height="48pt" viewBox="0 0 48 48" version="1.1">
<g id="surface1692">
<path style=" stroke:none;fill-rule:nonzero;fill:rgb(47.058824%,56.470588%,61.176471%);fill-opacity:1;" d="M 25.207031 37.144531 L 20.753906 19.613281 C 18.207031 10.316406 16.035156 6 8.847656 6 L 1.972656 6 L 2.742188 7.15625 C 3.398438 8.132812 4.414062 8.785156 5.550781 9 L 1.964844 9 L 2.738281 10.160156 C 3.378906 11.121094 4.367188 11.769531 5.472656 12 L 1.636719 12 L 2.445312 13.214844 C 3.226562 14.386719 4.542969 15.089844 5.949219 15.089844 L 6.019531 15.089844 C 6.511719 15.089844 6.957031 15.378906 7.160156 15.828125 C 8.90625 23.621094 11.203125 31.621094 18.207031 35.46875 C 19.027344 37.296875 20.613281 42.144531 22.496094 42.144531 C 23.167969 42.144531 23.851562 42.007812 24.507812 41.714844 C 26.988281 40.601562 26.320312 39.628906 25.207031 37.144531 Z M 25.207031 37.144531 "/>
<path style=" stroke:none;fill-rule:nonzero;fill:rgb(69.019608%,74.509804%,77.254902%);fill-opacity:1;" d="M 30 37.5 C 30 41.640625 26.640625 45 22.5 45 C 18.359375 45 15 41.640625 15 37.5 C 15 33.359375 18.359375 30 22.5 30 C 26.640625 30 30 33.359375 30 37.5 Z M 30 37.5 "/>
<path style=" stroke:none;fill-rule:nonzero;fill:rgb(47.058824%,56.470588%,61.176471%);fill-opacity:1;" d="M 23.367188 36.792969 C 23.367188 36.792969 32.808594 26.410156 33.753906 12.246094 "/>
<path style=" stroke:none;fill-rule:nonzero;fill:rgb(47.058824%,56.470588%,61.176471%);fill-opacity:1;" d="M 23.367188 41.042969 C 22.347656 41.042969 21.324219 40.679688 20.507812 39.9375 C 18.777344 38.363281 18.644531 35.679688 20.21875 33.945312 C 20.316406 33.832031 28.683594 24.386719 29.511719 11.964844 C 29.671875 9.625 31.703125 7.863281 34.035156 8.011719 C 36.375 8.164062 38.148438 10.191406 37.992188 12.53125 C 36.960938 27.992188 26.9375 39.183594 26.511719 39.652344 C 25.671875 40.574219 24.519531 41.042969 23.367188 41.042969 Z M 23.367188 41.042969 "/>
<path style=" stroke:none;fill-rule:nonzero;fill:rgb(100%,59.607843%,0%);fill-opacity:1;" d="M 48 13 C 48 10 47.183594 6.8125 43 7 C 40.003906 7.136719 37 7 37 7 L 40 14 C 40 14 41.371094 12.101562 44.484375 11.679688 C 45.621094 11.527344 47 11.835938 48 13 Z M 48 13 "/>
<path style=" stroke:none;fill-rule:nonzero;fill:rgb(47.058824%,56.470588%,61.176471%);fill-opacity:1;" d="M 41 11 C 41 7.6875 38.089844 5 34.5 5 C 30.910156 5 28 7.6875 28 11 C 28 14.3125 30.910156 17 34.5 17 C 38.089844 17 41 14.3125 41 11 Z M 41 11 "/>
<path style=" stroke:none;fill-rule:nonzero;fill:rgb(100%,100%,100%);fill-opacity:1;" d="M 38 10 C 38 11.105469 37.105469 12 36 12 C 34.894531 12 34 11.105469 34 10 C 34 8.894531 34.894531 8 36 8 C 37.105469 8 38 8.894531 38 10 Z M 38 10 "/>
<path style=" stroke:none;fill-rule:nonzero;fill:rgb(12.941176%,12.941176%,12.941176%);fill-opacity:1;" d="M 37 9 C 37 9.550781 36.550781 10 36 10 C 35.449219 10 35 9.550781 35 9 C 35 8.449219 35.449219 8 36 8 C 36.550781 8 37 8.449219 37 9 Z M 37 9 "/>
</g>
</svg>
