<?xml version="1.0" encoding="UTF-8"?>
<svg xmlns="http://www.w3.org/2000/svg" xmlns:xlink="http://www.w3.org/1999/xlink" width="48pt" height="48pt" viewBox="0 0 48 48" version="1.1">
<g id="surface1707">
<path style=" stroke:none;fill-rule:nonzero;fill:rgb(47.45098%,52.54902%,79.607843%);fill-opacity:1;" d="M 36.003906 43 C 34.523438 43 33.054688 42.34375 32.066406 41.089844 L 10.066406 13.089844 C 8.363281 10.917969 8.738281 7.773438 10.910156 6.066406 C 13.082031 4.363281 16.226562 4.738281 17.933594 6.910156 L 39.933594 34.910156 C 41.636719 37.082031 41.261719 40.226562 39.089844 41.933594 C 38.171875 42.652344 37.085938 43 36.003906 43 Z M 36.003906 43 "/>
<path style=" stroke:none;fill-rule:nonzero;fill:rgb(22.352941%,28.627451%,67.058824%);fill-opacity:1;" d="M 12.144531 39.425781 C 12.144531 39.425781 9.25 40.605469 7.15625 38.933594 C 4.277344 36.632812 10.285156 32.511719 15.160156 35.632812 C 13.992188 37.09375 12.144531 39.425781 12.144531 39.425781 Z M 12.144531 39.425781 "/>
<path style=" stroke:none;fill-rule:nonzero;fill:rgb(22.352941%,28.627451%,67.058824%);fill-opacity:1;" d="M 12.085938 39.378906 C 12.085938 39.378906 11.574219 42.464844 13.664062 44.136719 C 16.542969 46.4375 19.238281 39.667969 15.121094 35.601562 C 13.953125 37.0625 12.085938 39.378906 12.085938 39.378906 Z M 12.085938 39.378906 "/>
<path style=" stroke:none;fill-rule:nonzero;fill:rgb(22.352941%,28.627451%,67.058824%);fill-opacity:1;" d="M 12.144531 39.425781 C 8.515625 36.304688 18.714844 19.792969 21.332031 16.519531 C 28.90625 7.273438 37.476562 4.804688 38.882812 5.925781 C 40.480469 7.191406 39.945312 15.992188 32.585938 25.472656 C 29.917969 28.808594 16.046875 42.777344 12.144531 39.425781 Z M 12.144531 39.425781 "/>
<path style=" stroke:none;fill-rule:nonzero;fill:rgb(50.588235%,83.137255%,98.039216%);fill-opacity:1;" d="M 13.871094 38.382812 C 13.652344 38.382812 13.429688 38.3125 13.246094 38.164062 C 12.816406 37.820312 12.746094 37.1875 13.089844 36.757812 L 34.402344 10.09375 C 34.746094 9.664062 35.378906 9.59375 35.808594 9.9375 C 36.238281 10.28125 36.308594 10.910156 35.964844 11.34375 L 14.652344 38.007812 C 14.453125 38.253906 14.164062 38.382812 13.871094 38.382812 Z M 13.871094 38.382812 "/>
<path style=" stroke:none;fill-rule:nonzero;fill:rgb(50.588235%,83.137255%,98.039216%);fill-opacity:1;" d="M 19.824219 34.480469 C 19.496094 34.480469 19.171875 34.316406 18.980469 34.015625 C 18.210938 32.808594 17.269531 32.046875 16.101562 31.691406 C 15.574219 31.53125 15.273438 30.972656 15.433594 30.445312 C 15.59375 29.917969 16.148438 29.621094 16.683594 29.777344 C 18.304688 30.269531 19.644531 31.335938 20.667969 32.941406 C 20.964844 33.40625 20.828125 34.027344 20.359375 34.324219 C 20.195312 34.429688 20.011719 34.480469 19.824219 34.480469 Z M 19.824219 34.480469 "/>
<path style=" stroke:none;fill-rule:nonzero;fill:rgb(50.588235%,83.137255%,98.039216%);fill-opacity:1;" d="M 23.636719 31.167969 C 23.308594 31.167969 22.984375 31.003906 22.792969 30.703125 C 21.648438 28.910156 20.242188 27.777344 18.492188 27.246094 C 17.964844 27.085938 17.664062 26.527344 17.824219 25.996094 C 17.988281 25.46875 18.546875 25.171875 19.074219 25.332031 C 21.269531 26 23.085938 27.445312 24.476562 29.628906 C 24.773438 30.09375 24.636719 30.714844 24.171875 31.011719 C 24.007812 31.117188 23.820312 31.167969 23.636719 31.167969 Z M 23.636719 31.167969 "/>
<path style=" stroke:none;fill-rule:nonzero;fill:rgb(50.588235%,83.137255%,98.039216%);fill-opacity:1;" d="M 27.023438 26.925781 C 26.695312 26.925781 26.371094 26.765625 26.179688 26.464844 C 25.035156 24.667969 23.632812 23.539062 21.882812 23.007812 C 21.351562 22.84375 21.054688 22.285156 21.214844 21.757812 C 21.375 21.230469 21.933594 20.929688 22.464844 21.09375 C 24.65625 21.761719 26.476562 23.207031 27.867188 25.390625 C 28.164062 25.855469 28.027344 26.472656 27.558594 26.769531 C 27.394531 26.875 27.210938 26.925781 27.023438 26.925781 Z M 27.023438 26.925781 "/>
<path style=" stroke:none;fill-rule:nonzero;fill:rgb(50.588235%,83.137255%,98.039216%);fill-opacity:1;" d="M 30.414062 22.6875 C 30.085938 22.6875 29.761719 22.523438 29.570312 22.222656 C 28.425781 20.429688 27.019531 19.296875 25.269531 18.765625 C 24.742188 18.605469 24.445312 18.046875 24.605469 17.519531 C 24.765625 16.992188 25.324219 16.691406 25.851562 16.851562 C 28.046875 17.519531 29.863281 18.964844 31.257812 21.148438 C 31.554688 21.613281 31.414062 22.234375 30.949219 22.53125 C 30.785156 22.636719 30.597656 22.6875 30.414062 22.6875 Z M 30.414062 22.6875 "/>
<path style=" stroke:none;fill-rule:nonzero;fill:rgb(50.588235%,83.137255%,98.039216%);fill-opacity:1;" d="M 33.789062 17.019531 C 32.613281 15.671875 30.867188 14.261719 29.371094 13.472656 C 28.832031 13.1875 28.769531 12.457031 29.242188 12.074219 C 31.199219 10.492188 34.179688 8.621094 36.445312 8.015625 C 36.957031 7.882812 37.429688 8.316406 37.382812 8.839844 C 37.175781 11.058594 36.058594 14.617188 35.191406 16.765625 C 34.957031 17.34375 34.199219 17.488281 33.789062 17.019531 Z M 33.789062 17.019531 "/>
<path style=" stroke:none;fill-rule:nonzero;fill:rgb(50.588235%,83.137255%,98.039216%);fill-opacity:1;" d="M 13.148438 38.113281 C 13.148438 38.113281 11.574219 38.90625 10.230469 37.835938 C 8.886719 36.761719 12.074219 35.148438 14.351562 36.601562 C 13.808594 37.285156 13.148438 38.113281 13.148438 38.113281 Z M 13.148438 38.113281 "/>
<path style=" stroke:none;fill-rule:nonzero;fill:rgb(50.588235%,83.137255%,98.039216%);fill-opacity:1;" d="M 13.105469 38.078125 C 13.105469 38.078125 12.675781 39.789062 14.019531 40.863281 C 15.363281 41.9375 16.234375 38.472656 14.3125 36.574219 C 13.769531 37.253906 13.105469 38.078125 13.105469 38.078125 Z M 13.105469 38.078125 "/>
<path style=" stroke:none;fill-rule:nonzero;fill:rgb(22.352941%,28.627451%,67.058824%);fill-opacity:1;" d="M 35 12 C 35 12.550781 34.550781 13 34 13 C 33.449219 13 33 12.550781 33 12 C 33 11.449219 33.449219 11 34 11 C 34.550781 11 35 11.449219 35 12 Z M 35 12 "/>
</g>
</svg>
