<?xml version="1.0" encoding="UTF-8"?>
<svg xmlns="http://www.w3.org/2000/svg" xmlns:xlink="http://www.w3.org/1999/xlink" width="48pt" height="48pt" viewBox="0 0 48 48" version="1.1">
<g id="surface1487">
<path style=" stroke:none;fill-rule:nonzero;fill:rgb(55.294118%,43.137255%,38.823529%);fill-opacity:1;" d="M 23.445312 27 L 13.8125 27 C 11.15625 27 9 24.949219 9 22.417969 L 9 9.582031 C 9 7.050781 11.15625 5 13.816406 5 L 23.445312 5 C 29.816406 5 35 9.933594 35 16 C 35 22.066406 29.816406 27 23.445312 27 Z M 19 19 L 24 19 C 25.101562 19 26 18.101562 26 17 C 26 15.898438 25.101562 15 24 15 L 19 15 Z M 19 19 "/>
<path style=" stroke:none;fill-rule:nonzero;fill:rgb(55.294118%,43.137255%,38.823529%);fill-opacity:1;" d="M 26 43 L 14 43 C 11.238281 43 9 40.761719 9 38 L 9 24 C 9 21.238281 11.238281 19 14 19 L 26 19 C 32.617188 19 38 24.382812 38 31 C 38 37.617188 32.617188 43 26 43 Z M 19 33 L 26 33 C 27.101562 33 28 32.101562 28 31 C 28 29.898438 27.101562 29 26 29 L 19 29 Z M 19 33 "/>
<path style=" stroke:none;fill-rule:nonzero;fill:rgb(55.294118%,43.137255%,38.823529%);fill-opacity:1;" d="M 17 14 L 27 14 L 27 21 L 17 21 Z M 17 14 "/>
<path style=" stroke:none;fill-rule:nonzero;fill:rgb(55.294118%,43.137255%,38.823529%);fill-opacity:1;" d="M 14 7 C 14 9.210938 12.210938 11 10 11 C 7.789062 11 6 9.210938 6 7 C 6 4.789062 7.789062 3 10 3 C 12.210938 3 14 4.789062 14 7 Z M 14 7 "/>
<path style=" stroke:none;fill-rule:nonzero;fill:rgb(73.72549%,66.666667%,64.313725%);fill-opacity:1;" d="M 25 38 L 21 38 C 16.582031 38 13 34.417969 13 30 C 13 25.582031 16.582031 22 21 22 L 25 22 C 29.417969 22 33 25.582031 33 30 C 33 34.417969 29.417969 38 25 38 Z M 25 38 "/>
<path style=" stroke:none;fill-rule:nonzero;fill:rgb(55.294118%,43.137255%,38.823529%);fill-opacity:1;" d="M 37 7 C 37 9.210938 35.210938 11 33 11 C 30.789062 11 29 9.210938 29 7 C 29 4.789062 30.789062 3 33 3 C 35.210938 3 37 4.789062 37 7 Z M 37 7 "/>
<path style=" stroke:none;fill-rule:nonzero;fill:rgb(12.941176%,12.941176%,12.941176%);fill-opacity:1;" d="M 24.5 25 L 21.5 25 C 20.117188 25 19 23.882812 19 22.5 C 19 21.117188 20.117188 20 21.5 20 L 24.5 20 C 25.882812 20 27 21.117188 27 22.5 C 27 23.882812 25.882812 25 24.5 25 Z M 24.5 25 "/>
<path style=" stroke:none;fill-rule:nonzero;fill:rgb(100%,100%,100%);fill-opacity:1;" d="M 22 14.5 C 22 16.433594 20.433594 18 18.5 18 C 16.566406 18 15 16.433594 15 14.5 C 15 12.566406 16.566406 11 18.5 11 C 20.433594 11 22 12.566406 22 14.5 Z M 22 14.5 "/>
<path style=" stroke:none;fill-rule:nonzero;fill:rgb(12.941176%,12.941176%,12.941176%);fill-opacity:1;" d="M 22 14.5 C 22 15.328125 21.328125 16 20.5 16 C 19.671875 16 19 15.328125 19 14.5 C 19 13.671875 19.671875 13 20.5 13 C 21.328125 13 22 13.671875 22 14.5 Z M 22 14.5 "/>
<path style=" stroke:none;fill-rule:nonzero;fill:rgb(100%,100%,100%);fill-opacity:1;" d="M 31 14.5 C 31 16.433594 29.433594 18 27.5 18 C 25.566406 18 24 16.433594 24 14.5 C 24 12.566406 25.566406 11 27.5 11 C 29.433594 11 31 12.566406 31 14.5 Z M 31 14.5 "/>
<path style=" stroke:none;fill-rule:nonzero;fill:rgb(12.941176%,12.941176%,12.941176%);fill-opacity:1;" d="M 31 14.5 C 31 15.328125 30.328125 16 29.5 16 C 28.671875 16 28 15.328125 28 14.5 C 28 13.671875 28.671875 13 29.5 13 C 30.328125 13 31 13.671875 31 14.5 Z M 31 14.5 "/>
<path style=" stroke:none;fill-rule:nonzero;fill:rgb(42.745098%,29.803922%,25.490196%);fill-opacity:1;" d="M 21.753906 33 L 25.886719 33 C 26.882812 33 27.808594 32.320312 27.972656 31.339844 C 28.179688 30.085938 27.214844 29 26 29 L 19 29 L 19 30.246094 C 19 31.765625 20.234375 33 21.753906 33 Z M 21.753906 33 "/>
</g>
</svg>
