<?xml version="1.0" encoding="UTF-8"?>
<svg xmlns="http://www.w3.org/2000/svg" xmlns:xlink="http://www.w3.org/1999/xlink" width="48pt" height="48pt" viewBox="0 0 48 48" version="1.1">
<g id="surface1517">
<path style=" stroke:none;fill-rule:nonzero;fill:rgb(32.941176%,43.137255%,47.843137%);fill-opacity:1;" d="M 19 15 L 10 15 L 10 38.5 C 10 40.984375 12.015625 43 14.5 43 C 16.984375 43 19 40.984375 19 38.5 Z M 19 15 "/>
<path style=" stroke:none;fill-rule:nonzero;fill:rgb(32.941176%,43.137255%,47.843137%);fill-opacity:1;" d="M 10 29 L 10 20 L 38 20 L 38 29 Z M 10 29 "/>
<path style=" stroke:none;fill-rule:nonzero;fill:rgb(32.941176%,43.137255%,47.843137%);fill-opacity:1;" d="M 18 4 L 19 10 C 28 10 33 13 38 13 L 38 6 C 32 7 27 4 18 4 Z M 18 4 "/>
<path style=" stroke:none;fill-rule:nonzero;fill:rgb(32.941176%,43.137255%,47.843137%);fill-opacity:1;" d="M 10 38.5 C 10 40.984375 12.015625 43 14.5 43 L 38 43 L 38 34 L 14.5 34 C 12.015625 34 10 36.015625 10 38.5 Z M 10 38.5 "/>
<path style=" stroke:none;fill-rule:nonzero;fill:rgb(32.941176%,43.137255%,47.843137%);fill-opacity:1;" d="M 10 14 L 24 14 L 24 39 L 10 39 Z M 10 14 "/>
<path style=" stroke:none;fill-rule:nonzero;fill:rgb(32.941176%,43.137255%,47.843137%);fill-opacity:1;" d="M 27 12.5 C 27 17.195312 23.195312 21 18.5 21 C 13.804688 21 10 17.195312 10 12.5 C 10 7.804688 13.804688 4 18.5 4 C 23.195312 4 27 7.804688 27 12.5 Z M 27 12.5 "/>
<path style=" stroke:none;fill-rule:nonzero;fill:rgb(47.058824%,56.470588%,61.176471%);fill-opacity:1;" d="M 15 12.5 C 15 16.089844 12.089844 19 8.5 19 C 4.910156 19 2 16.089844 2 12.5 C 2 8.910156 4.910156 6 8.5 6 C 12.089844 6 15 8.910156 15 12.5 Z M 15 12.5 "/>
<path style=" stroke:none;fill-rule:nonzero;fill:rgb(27.058824%,35.294118%,39.215686%);fill-opacity:1;" d="M 40 9.5 C 40 7.566406 39.105469 6 38 6 C 36.894531 6 36 7.566406 36 9.5 C 36 11.433594 36.894531 13 38 13 C 39.105469 13 40 11.433594 40 9.5 Z M 40 9.5 "/>
<path style=" stroke:none;fill-rule:nonzero;fill:rgb(100%,100%,100%);fill-opacity:1;" d="M 22 9 C 22 10.105469 21.105469 11 20 11 C 18.894531 11 18 10.105469 18 9 C 18 7.894531 18.894531 7 20 7 C 21.105469 7 22 7.894531 22 9 Z M 22 9 "/>
<path style=" stroke:none;fill-rule:nonzero;fill:rgb(12.941176%,12.941176%,12.941176%);fill-opacity:1;" d="M 22 9 C 22 9.550781 21.550781 10 21 10 C 20.449219 10 20 9.550781 20 9 C 20 8.449219 20.449219 8 21 8 C 21.550781 8 22 8.449219 22 9 Z M 22 9 "/>
<path style=" stroke:none;fill-rule:nonzero;fill:rgb(69.019608%,74.509804%,77.254902%);fill-opacity:1;" d="M 38 23 L 37 23 C 36.449219 23 36 22.550781 36 22 C 36 21.449219 36.449219 21 37 21 L 38 21 Z M 38 23 "/>
<path style=" stroke:none;fill-rule:nonzero;fill:rgb(69.019608%,74.509804%,77.254902%);fill-opacity:1;" d="M 38 27 L 37 27 C 36.449219 27 36 26.550781 36 26 C 36 25.449219 36.449219 25 37 25 L 38 25 Z M 38 27 "/>
<path style=" stroke:none;fill-rule:nonzero;fill:rgb(69.019608%,74.509804%,77.254902%);fill-opacity:1;" d="M 38 37 L 37 37 C 36.449219 37 36 36.550781 36 36 C 36 35.449219 36.449219 35 37 35 L 38 35 Z M 38 37 "/>
<path style=" stroke:none;fill-rule:nonzero;fill:rgb(69.019608%,74.509804%,77.254902%);fill-opacity:1;" d="M 38 41 L 37 41 C 36.449219 41 36 40.550781 36 40 C 36 39.449219 36.449219 39 37 39 L 38 39 Z M 38 41 "/>
<path style=" stroke:none;fill-rule:nonzero;fill:rgb(21.568627%,27.843137%,30.980392%);fill-opacity:1;" d="M 24 32.265625 L 19.011719 34 L 24 33.988281 Z M 24 32.265625 "/>
<path style=" stroke:none;fill-rule:nonzero;fill:rgb(27.058824%,35.294118%,39.215686%);fill-opacity:1;" d="M 26.617188 14.972656 C 24.628906 14.820312 23.917969 13.597656 23.886719 13.539062 L 22.105469 14.449219 C 22.148438 14.539062 23.125 16.425781 25.761719 16.894531 C 26.125 16.296875 26.414062 15.652344 26.617188 14.972656 Z M 26.617188 14.972656 "/>
</g>
</svg>
