<?xml version="1.0" encoding="UTF-8"?>
<svg xmlns="http://www.w3.org/2000/svg" xmlns:xlink="http://www.w3.org/1999/xlink" width="48pt" height="48pt" viewBox="0 0 48 48" version="1.1">
<g id="surface1677">
<path style=" stroke:none;fill-rule:nonzero;fill:rgb(100%,54.117647%,39.607843%);fill-opacity:1;" d="M 20 10 C 20 7.238281 17.761719 5 15 5 C 12.238281 5 10 7.238281 10 10 L 10 40 L 20 40 Z M 20 10 "/>
<path style=" stroke:none;fill-rule:nonzero;fill:rgb(100%,54.117647%,39.607843%);fill-opacity:1;" d="M 27 33 L 15 33 C 12.238281 33 10 30.761719 10 28 C 10 25.238281 12.238281 23 15 23 L 27 23 C 29.207031 23 31 21.207031 31 19 C 31 16.792969 29.207031 15 27 15 L 15 15 C 12.238281 15 10 12.761719 10 10 C 10 7.238281 12.238281 5 15 5 L 27 5 C 34.71875 5 41 11.28125 41 19 C 41 26.71875 34.71875 33 27 33 Z M 27 33 "/>
<path style=" stroke:none;fill-rule:nonzero;fill:rgb(100%,43.137255%,25.098039%);fill-opacity:1;" d="M 20 34.734375 L 15.011719 33 L 20 33.011719 Z M 20 34.734375 "/>
<path style=" stroke:none;fill-rule:nonzero;fill:rgb(100%,54.117647%,39.607843%);fill-opacity:1;" d="M 16 13 L 33 13 L 33 26 L 16 26 Z M 16 13 "/>
<path style=" stroke:none;fill-rule:nonzero;fill:rgb(100%,80%,73.72549%);fill-opacity:1;" d="M 32 20.5 C 32 17.460938 29.089844 15 25.5 15 C 21.910156 15 19 17.460938 19 20.5 C 19 23.539062 21.910156 26 25.5 26 C 29.089844 26 32 23.539062 32 20.5 Z M 32 20.5 "/>
<path style=" stroke:none;fill-rule:nonzero;fill:rgb(100%,54.117647%,39.607843%);fill-opacity:1;" d="M 9.140625 2.15625 C 13.160156 2.15625 16.597656 3.894531 17.984375 6.175781 L 10.746094 11 C 9.140625 8.589844 8.75 4.703125 9.140625 2.15625 Z M 9.140625 2.15625 "/>
<path style=" stroke:none;fill-rule:nonzero;fill:rgb(100%,54.117647%,39.607843%);fill-opacity:1;" d="M 39.84375 2.15625 C 35.824219 2.15625 32.386719 3.894531 31 6.175781 L 38.234375 11 C 39.84375 8.589844 40.234375 4.703125 39.84375 2.15625 Z M 39.84375 2.15625 "/>
<path style=" stroke:none;fill-rule:nonzero;fill:rgb(100%,54.117647%,39.607843%);fill-opacity:1;" d="M 24 20.5 C 24 19.671875 23.550781 19 23 19 C 22.449219 19 22 19.671875 22 20.5 C 22 21.328125 22.449219 22 23 22 C 23.550781 22 24 21.328125 24 20.5 Z M 24 20.5 "/>
<path style=" stroke:none;fill-rule:nonzero;fill:rgb(100%,54.117647%,39.607843%);fill-opacity:1;" d="M 29 20.5 C 29 19.671875 28.550781 19 28 19 C 27.449219 19 27 19.671875 27 20.5 C 27 21.328125 27.449219 22 28 22 C 28.550781 22 29 21.328125 29 20.5 Z M 29 20.5 "/>
<path style=" stroke:none;fill-rule:nonzero;fill:rgb(100%,43.137255%,25.098039%);fill-opacity:1;" d="M 20 43 L 14.9375 41 L 10 43 L 10 39 L 20 39 Z M 20 43 "/>
<path style=" stroke:none;fill-rule:nonzero;fill:rgb(12.941176%,12.941176%,12.941176%);fill-opacity:1;" d="M 21 12 C 21 12.550781 20.550781 13 20 13 C 19.449219 13 19 12.550781 19 12 C 19 11.449219 19.449219 11 20 11 C 20.550781 11 21 11.449219 21 12 Z M 21 12 "/>
<path style=" stroke:none;fill-rule:nonzero;fill:rgb(12.941176%,12.941176%,12.941176%);fill-opacity:1;" d="M 32 12 C 32 12.550781 31.550781 13 31 13 C 30.449219 13 30 12.550781 30 12 C 30 11.449219 30.449219 11 31 11 C 31.550781 11 32 11.449219 32 12 Z M 32 12 "/>
</g>
</svg>
