<?xml version="1.0" encoding="UTF-8"?>
<svg xmlns="http://www.w3.org/2000/svg" xmlns:xlink="http://www.w3.org/1999/xlink" width="48pt" height="48pt" viewBox="0 0 48 48" version="1.1">
<g id="surface1657">
<path style=" stroke:none;fill-rule:nonzero;fill:rgb(0%,69.019608%,100%);fill-opacity:1;" d="M 24 43 C 21.238281 43 19 40.761719 19 38 L 19 22 C 19 19.238281 21.238281 17 24 17 C 26.761719 17 29 19.238281 29 22 L 29 38 C 29 40.761719 26.761719 43 24 43 Z M 24 43 "/>
<path style=" stroke:none;fill-rule:nonzero;fill:rgb(0%,69.019608%,100%);fill-opacity:1;" d="M 8.367188 6.367188 C 6.609375 8.125 6.609375 10.976562 8.367188 12.730469 L 18.269531 22.632812 C 20.023438 24.390625 22.875 24.390625 24.632812 22.632812 C 26.390625 20.875 26.390625 18.023438 24.632812 16.269531 L 14.730469 6.367188 C 12.976562 4.609375 10.125 4.609375 8.367188 6.367188 Z M 8.367188 6.367188 "/>
<path style=" stroke:none;fill-rule:nonzero;fill:rgb(0%,69.019608%,100%);fill-opacity:1;" d="M 39.632812 6.367188 C 41.390625 8.125 41.390625 10.976562 39.632812 12.730469 L 29.730469 22.632812 C 27.976562 24.390625 25.125 24.390625 23.367188 22.632812 C 21.609375 20.875 21.609375 18.023438 23.367188 16.269531 L 33.265625 6.367188 C 35.023438 4.609375 37.875 4.609375 39.632812 6.367188 Z M 39.632812 6.367188 "/>
<path style=" stroke:none;fill-rule:nonzero;fill:rgb(100%,87.843137%,50.980392%);fill-opacity:1;" d="M 11.53125 8.460938 C 11.90625 11.0625 13.324219 15.445312 18.394531 18.738281 C 19.203125 17.679688 21.136719 15.195312 21.136719 15.195312 C 21.136719 15.195312 15.648438 13.4375 12.40625 8.144531 C 12.132812 7.699219 11.457031 7.945312 11.53125 8.460938 Z M 11.53125 8.460938 "/>
<path style=" stroke:none;fill-rule:nonzero;fill:rgb(100%,87.843137%,50.980392%);fill-opacity:1;" d="M 36.128906 8.460938 C 35.75 11.0625 34.335938 15.445312 29.265625 18.738281 C 28.457031 17.679688 26.523438 15.195312 26.523438 15.195312 C 26.523438 15.195312 32.011719 13.4375 35.253906 8.144531 C 35.527344 7.699219 36.203125 7.945312 36.128906 8.460938 Z M 36.128906 8.460938 "/>
<path style=" stroke:none;fill-rule:nonzero;fill:rgb(42.745098%,29.803922%,25.490196%);fill-opacity:1;" d="M 24.433594 37 L 23.542969 37 C 20.992188 37 18.796875 35.15625 18.296875 32.59375 L 15.078125 21.558594 C 14.417969 18.164062 18.011719 15 21.386719 15 L 26.585938 15 C 29.964844 15 33.558594 18.164062 32.894531 21.558594 L 29.679688 32.59375 C 29.179688 35.15625 26.984375 37 24.433594 37 Z M 24.433594 37 "/>
<path style=" stroke:none;fill-rule:nonzero;fill:rgb(55.294118%,43.137255%,38.823529%);fill-opacity:1;" d="M 28 32.5 C 28 31.121094 26.210938 30 24 30 C 21.789062 30 20 31.121094 20 32.5 C 20 33.878906 21.789062 35 24 35 C 26.210938 35 28 33.878906 28 32.5 Z M 28 32.5 "/>
<path style=" stroke:none;fill-rule:nonzero;fill:rgb(42.745098%,29.803922%,25.490196%);fill-opacity:1;" d="M 23 34 C 23 34.550781 22.550781 35 22 35 C 21.449219 35 21 34.550781 21 34 C 21 33.449219 21.449219 33 22 33 C 22.550781 33 23 33.449219 23 34 Z M 23 34 "/>
<path style=" stroke:none;fill-rule:nonzero;fill:rgb(12.941176%,12.941176%,12.941176%);fill-opacity:1;" d="M 20 23 C 20 23.550781 19.550781 24 19 24 C 18.449219 24 18 23.550781 18 23 C 18 22.449219 18.449219 22 19 22 C 19.550781 22 20 22.449219 20 23 Z M 20 23 "/>
<path style=" stroke:none;fill-rule:nonzero;fill:rgb(12.941176%,12.941176%,12.941176%);fill-opacity:1;" d="M 30 23 C 30 23.550781 29.550781 24 29 24 C 28.449219 24 28 23.550781 28 23 C 28 22.449219 28.449219 22 29 22 C 29.550781 22 30 22.449219 30 23 Z M 30 23 "/>
<path style=" stroke:none;fill-rule:nonzero;fill:rgb(42.745098%,29.803922%,25.490196%);fill-opacity:1;" d="M 27 34 C 27 34.550781 26.550781 35 26 35 C 25.449219 35 25 34.550781 25 34 C 25 33.449219 25.449219 33 26 33 C 26.550781 33 27 33.449219 27 34 Z M 27 34 "/>
<path style=" stroke:none;fill-rule:nonzero;fill:rgb(55.294118%,43.137255%,38.823529%);fill-opacity:1;" d="M 29.617188 14.535156 C 27.609375 13.472656 26.121094 13.363281 23.980469 13.386719 C 21.84375 13.363281 20.355469 13.472656 18.347656 14.535156 C 16.390625 15.496094 16.464844 18.492188 19.246094 19.300781 C 21.386719 19.90625 22.695312 20.738281 23.972656 21.988281 C 23.972656 21.988281 23.980469 22.003906 23.980469 22 C 23.984375 22.003906 23.992188 21.988281 23.992188 21.988281 C 25.269531 20.738281 26.574219 19.90625 28.71875 19.300781 C 31.5 18.492188 31.574219 15.496094 29.617188 14.535156 Z M 29.617188 14.535156 "/>
<path style=" stroke:none;fill-rule:nonzero;fill:rgb(42.745098%,29.803922%,25.490196%);fill-opacity:1;" d="M 14 25 L 16 25 L 16 21 L 14 21 C 12.894531 21 12 21.894531 12 23 C 12 24.105469 12.894531 25 14 25 Z M 14 25 "/>
<path style=" stroke:none;fill-rule:nonzero;fill:rgb(42.745098%,29.803922%,25.490196%);fill-opacity:1;" d="M 34 21 L 32 21 L 32 25 L 34 25 C 35.105469 25 36 24.105469 36 23 C 36 21.894531 35.105469 21 34 21 Z M 34 21 "/>
</g>
</svg>
