<?xml version="1.0" encoding="UTF-8"?>
<svg xmlns="http://www.w3.org/2000/svg" xmlns:xlink="http://www.w3.org/1999/xlink" width="48pt" height="48pt" viewBox="0 0 48 48" version="1.1">
<g id="surface1672">
<path style=" stroke:none;fill-rule:nonzero;fill:rgb(33.333333%,54.509804%,18.431373%);fill-opacity:1;" d="M 18.003906 20 L 18 19.015625 C 18 17.847656 17.515625 16.738281 16.671875 15.972656 C 16.265625 15.601562 15.632812 15.632812 15.261719 16.039062 C 14.890625 16.449219 14.917969 17.082031 15.328125 17.453125 C 15.820312 17.898438 15.949219 18.449219 15.984375 18.800781 C 15.1875 18.007812 14.109375 17.558594 13.011719 17.589844 C 12.457031 17.605469 12.023438 18.0625 12.035156 18.617188 C 12.050781 19.160156 12.492188 19.589844 13.035156 19.589844 C 13.042969 19.589844 13.050781 19.589844 13.058594 19.589844 C 13.695312 19.570312 14.164062 19.859375 14.4375 20.085938 C 13.589844 20.261719 12.8125 20.691406 12.230469 21.328125 C 11.859375 21.738281 11.890625 22.371094 12.300781 22.742188 C 12.492188 22.914062 12.730469 23 12.972656 23 C 13.242188 23 13.515625 22.890625 13.710938 22.671875 C 14.265625 22.066406 14.988281 22 15.277344 22 L 21 22 L 21 20 Z M 18.003906 20 "/>
<path style=" stroke:none;fill-rule:nonzero;fill:rgb(33.333333%,54.509804%,18.431373%);fill-opacity:1;" d="M 30.972656 20 L 30.972656 19.015625 C 30.972656 17.847656 31.457031 16.738281 32.300781 15.972656 C 32.710938 15.601562 33.34375 15.632812 33.714844 16.039062 C 34.085938 16.449219 34.054688 17.082031 33.644531 17.453125 C 33.152344 17.898438 33.023438 18.449219 32.988281 18.800781 C 33.789062 18.007812 34.863281 17.558594 35.964844 17.589844 C 36.515625 17.605469 36.953125 18.0625 36.9375 18.617188 C 36.925781 19.160156 36.480469 19.589844 35.9375 19.589844 C 35.929688 19.589844 35.921875 19.589844 35.914062 19.589844 C 35.277344 19.570312 34.808594 19.859375 34.535156 20.085938 C 35.386719 20.261719 36.160156 20.691406 36.742188 21.328125 C 37.113281 21.738281 37.082031 22.371094 36.675781 22.742188 C 36.480469 22.914062 36.238281 23 36 23 C 35.730469 23 35.457031 22.890625 35.261719 22.671875 C 34.710938 22.066406 33.984375 22 33.695312 22 L 27.972656 22 L 27.972656 20 Z M 30.972656 20 "/>
<path style=" stroke:none;fill-rule:nonzero;fill:rgb(33.333333%,54.509804%,18.431373%);fill-opacity:1;" d="M 18.003906 30 L 18 29.015625 C 18 27.847656 17.515625 26.738281 16.671875 25.972656 C 16.265625 25.601562 15.632812 25.632812 15.261719 26.039062 C 14.890625 26.449219 14.917969 27.082031 15.328125 27.453125 C 15.820312 27.898438 15.949219 28.449219 15.984375 28.800781 C 15.1875 28.007812 14.109375 27.558594 13.011719 27.589844 C 12.457031 27.605469 12.023438 28.0625 12.035156 28.617188 C 12.050781 29.160156 12.492188 29.589844 13.035156 29.589844 C 13.042969 29.589844 13.050781 29.589844 13.058594 29.589844 C 13.695312 29.570312 14.164062 29.859375 14.4375 30.085938 C 13.589844 30.261719 12.8125 30.691406 12.230469 31.328125 C 11.859375 31.738281 11.890625 32.371094 12.300781 32.742188 C 12.492188 32.914062 12.730469 33 12.972656 33 C 13.242188 33 13.515625 32.890625 13.710938 32.671875 C 14.265625 32.066406 14.988281 32 15.277344 32 L 21 32 L 21 30 Z M 18.003906 30 "/>
<path style=" stroke:none;fill-rule:nonzero;fill:rgb(33.333333%,54.509804%,18.431373%);fill-opacity:1;" d="M 30.972656 30 L 30.972656 29.015625 C 30.972656 27.847656 31.457031 26.738281 32.300781 25.972656 C 32.710938 25.601562 33.34375 25.632812 33.714844 26.039062 C 34.085938 26.449219 34.054688 27.082031 33.644531 27.453125 C 33.152344 27.898438 33.023438 28.449219 32.988281 28.800781 C 33.789062 28.007812 34.863281 27.558594 35.964844 27.589844 C 36.515625 27.605469 36.953125 28.0625 36.9375 28.617188 C 36.925781 29.160156 36.480469 29.589844 35.9375 29.589844 C 35.929688 29.589844 35.921875 29.589844 35.914062 29.589844 C 35.277344 29.570312 34.808594 29.859375 34.535156 30.085938 C 35.386719 30.261719 36.160156 30.691406 36.742188 31.328125 C 37.113281 31.738281 37.082031 32.371094 36.675781 32.742188 C 36.480469 32.914062 36.238281 33 36 33 C 35.730469 33 35.457031 32.890625 35.261719 32.671875 C 34.710938 32.066406 33.984375 32 33.695312 32 L 27.972656 32 L 27.972656 30 Z M 30.972656 30 "/>
<path style=" stroke:none;fill-rule:nonzero;fill:rgb(48.627451%,70.196078%,25.882353%);fill-opacity:1;" d="M 28 41 C 28 43.210938 26.210938 45 24 45 C 21.789062 45 20 43.210938 20 41 C 20 38.789062 21.789062 37 24 37 C 26.210938 37 28 38.789062 28 41 Z M 28 41 "/>
<path style=" stroke:none;fill-rule:nonzero;fill:rgb(48.627451%,70.196078%,25.882353%);fill-opacity:1;" d="M 29.019531 30.367188 L 29 10.5 C 29 8.015625 26.984375 6 24.5 6 C 22.015625 6 20 8.015625 20 10.5 L 20 29.074219 Z M 29.019531 30.367188 "/>
<path style=" stroke:none;fill-rule:nonzero;fill:rgb(48.627451%,70.196078%,25.882353%);fill-opacity:1;" d="M 20.007812 29 L 19.988281 31.09375 C 19.988281 35.496094 26 36 27 40 L 26.867188 43.71875 C 28.160156 42.640625 28.6875 40.128906 27.871094 36.824219 C 27.558594 34.828125 29 34 29.023438 30 Z M 20.007812 29 "/>
<path style=" stroke:none;fill-rule:nonzero;fill:rgb(33.333333%,54.509804%,18.431373%);fill-opacity:1;" d="M 25.023438 37.160156 C 26.988281 38.453125 27.296875 43.238281 24.019531 43.453125 C 21.460938 43.621094 21.265625 40.296875 23.5625 40.269531 C 22.320312 40.867188 22.84375 42.554688 23.898438 42.28125 C 25.882812 41.769531 25.285156 37.136719 22.007812 37.519531 C 22.007812 37.519531 23.492188 36.585938 25.023438 37.160156 Z M 25.023438 37.160156 "/>
<path style=" stroke:none;fill-rule:nonzero;fill:rgb(48.627451%,70.196078%,25.882353%);fill-opacity:1;" d="M 31 10.5 C 31 14.089844 28.089844 17 24.5 17 C 20.910156 17 18 14.089844 18 10.5 C 18 6.910156 20.910156 4 24.5 4 C 28.089844 4 31 6.910156 31 10.5 Z M 31 10.5 "/>
<path style=" stroke:none;fill-rule:nonzero;fill:rgb(100%,100%,100%);fill-opacity:1;" d="M 22 10 C 22 11.105469 21.105469 12 20 12 C 18.894531 12 18 11.105469 18 10 C 18 8.894531 18.894531 8 20 8 C 21.105469 8 22 8.894531 22 10 Z M 22 10 "/>
<path style=" stroke:none;fill-rule:nonzero;fill:rgb(12.941176%,12.941176%,12.941176%);fill-opacity:1;" d="M 21 9 C 21 9.550781 20.550781 10 20 10 C 19.449219 10 19 9.550781 19 9 C 19 8.449219 19.449219 8 20 8 C 20.550781 8 21 8.449219 21 9 Z M 21 9 "/>
<path style=" stroke:none;fill-rule:nonzero;fill:rgb(33.333333%,54.509804%,18.431373%);fill-opacity:1;" d="M 26 5 C 26 4.449219 25.328125 4 24.5 4 C 23.671875 4 23 4.449219 23 5 C 23 5.550781 23.671875 6 24.5 6 C 25.328125 6 26 5.550781 26 5 Z M 26 5 "/>
<path style=" stroke:none;fill-rule:nonzero;fill:rgb(100%,100%,100%);fill-opacity:1;" d="M 31 10 C 31 11.105469 30.105469 12 29 12 C 27.894531 12 27 11.105469 27 10 C 27 8.894531 27.894531 8 29 8 C 30.105469 8 31 8.894531 31 10 Z M 31 10 "/>
<path style=" stroke:none;fill-rule:nonzero;fill:rgb(12.941176%,12.941176%,12.941176%);fill-opacity:1;" d="M 30 9 C 30 9.550781 29.550781 10 29 10 C 28.449219 10 28 9.550781 28 9 C 28 8.449219 28.449219 8 29 8 C 29.550781 8 30 8.449219 30 9 Z M 30 9 "/>
<path style=" stroke:none;fill-rule:nonzero;fill:rgb(33.333333%,54.509804%,18.431373%);fill-opacity:1;" d="M 26 14 C 26 12.894531 25.328125 12 24.5 12 C 23.671875 12 23 12.894531 23 14 C 23 15.105469 23.671875 16 24.5 16 C 25.328125 16 26 15.105469 26 14 Z M 26 14 "/>
<path style=" stroke:none;fill-rule:nonzero;fill:rgb(33.333333%,54.509804%,18.431373%);fill-opacity:1;" d="M 26 18 C 26 16.894531 25.328125 16 24.5 16 C 23.671875 16 23 16.894531 23 18 C 23 19.105469 23.671875 20 24.5 20 C 25.328125 20 26 19.105469 26 18 Z M 26 18 "/>
<path style=" stroke:none;fill-rule:nonzero;fill:rgb(33.333333%,54.509804%,18.431373%);fill-opacity:1;" d="M 26 22 C 26 20.894531 25.328125 20 24.5 20 C 23.671875 20 23 20.894531 23 22 C 23 23.105469 23.671875 24 24.5 24 C 25.328125 24 26 23.105469 26 22 Z M 26 22 "/>
<path style=" stroke:none;fill-rule:nonzero;fill:rgb(33.333333%,54.509804%,18.431373%);fill-opacity:1;" d="M 26 26 C 26 24.894531 25.328125 24 24.5 24 C 23.671875 24 23 24.894531 23 26 C 23 27.105469 23.671875 28 24.5 28 C 25.328125 28 26 27.105469 26 26 Z M 26 26 "/>
<path style=" stroke:none;fill-rule:nonzero;fill:rgb(33.333333%,54.509804%,18.431373%);fill-opacity:1;" d="M 26 30 C 26 28.894531 25.328125 28 24.5 28 C 23.671875 28 23 28.894531 23 30 C 23 31.105469 23.671875 32 24.5 32 C 25.328125 32 26 31.105469 26 30 Z M 26 30 "/>
</g>
</svg>
