<?xml version="1.0" encoding="UTF-8"?>
<svg xmlns="http://www.w3.org/2000/svg" xmlns:xlink="http://www.w3.org/1999/xlink" width="48pt" height="48pt" viewBox="0 0 48 48" version="1.1">
<g id="surface1632">
<path style=" stroke:none;fill-rule:nonzero;fill:rgb(32.941176%,43.137255%,47.843137%);fill-opacity:1;" d="M 35 43 C 32.238281 43 30 40.761719 30 38 C 30 32.765625 26.1875 28 22 28 L 17 28 C 14.238281 28 12 25.761719 12 23 C 12 20.238281 14.238281 18 17 18 L 22 18 C 31.757812 18 40 27.160156 40 38 C 40 40.761719 37.761719 43 35 43 Z M 35 43 "/>
<path style=" stroke:none;fill-rule:nonzero;fill:rgb(32.941176%,43.137255%,47.843137%);fill-opacity:1;" d="M 27 7.5 C 27 9.984375 24.984375 12 22.5 12 C 20.015625 12 18 9.984375 18 7.5 C 18 5.015625 20.015625 3 22.5 3 C 24.984375 3 27 5.015625 27 7.5 Z M 27 7.5 "/>
<path style=" stroke:none;fill-rule:nonzero;fill:rgb(32.941176%,43.137255%,47.843137%);fill-opacity:1;" d="M 12 7.5 C 12 9.984375 9.984375 12 7.5 12 C 5.015625 12 3 9.984375 3 7.5 C 3 5.015625 5.015625 3 7.5 3 C 9.984375 3 12 5.015625 12 7.5 Z M 12 7.5 "/>
<path style=" stroke:none;fill-rule:nonzero;fill:rgb(47.058824%,56.470588%,61.176471%);fill-opacity:1;" d="M 22 28 L 17 28 C 14.238281 28 12 25.761719 12 23 C 12 20.238281 14.238281 18 17 18 L 22 18 C 25.269531 18 30 15.152344 30 10 C 30 7.238281 32.238281 5 35 5 C 37.761719 5 40 7.238281 40 10 C 40 20.769531 30.691406 28 22 28 Z M 22 28 "/>
<path style=" stroke:none;fill-rule:nonzero;fill:rgb(47.058824%,56.470588%,61.176471%);fill-opacity:1;" d="M 15 43 C 12.238281 43 10 40.761719 10 38 L 10 10 C 10 7.238281 12.238281 5 15 5 C 17.761719 5 20 7.238281 20 10 L 20 38 C 20 40.761719 17.761719 43 15 43 Z M 15 43 "/>
<path style=" stroke:none;fill-rule:nonzero;fill:rgb(47.058824%,56.470588%,61.176471%);fill-opacity:1;" d="M 23 12 C 23 16.417969 19.417969 20 15 20 C 10.582031 20 7 16.417969 7 12 C 7 7.582031 10.582031 4 15 4 C 19.417969 4 23 7.582031 23 12 Z M 23 12 "/>
<path style=" stroke:none;fill-rule:nonzero;fill:rgb(32.941176%,43.137255%,47.843137%);fill-opacity:1;" d="M 20 29.734375 L 15.011719 28 L 20 28.011719 Z M 20 29.734375 "/>
<path style=" stroke:none;fill-rule:nonzero;fill:rgb(21.568627%,27.843137%,30.980392%);fill-opacity:1;" d="M 37 35.5 C 37 34.671875 36.105469 34 35 34 C 33.894531 34 33 34.671875 33 35.5 C 33 36.328125 33.894531 37 35 37 C 36.105469 37 37 36.328125 37 35.5 Z M 37 35.5 "/>
<path style=" stroke:none;fill-rule:nonzero;fill:rgb(21.568627%,27.843137%,30.980392%);fill-opacity:1;" d="M 39 39 C 39 39.550781 38.550781 40 38 40 C 37.449219 40 37 39.550781 37 39 C 37 38.449219 37.449219 38 38 38 C 38.550781 38 39 38.449219 39 39 Z M 39 39 "/>
<path style=" stroke:none;fill-rule:nonzero;fill:rgb(21.568627%,27.843137%,30.980392%);fill-opacity:1;" d="M 33 39 C 33 39.550781 32.550781 40 32 40 C 31.449219 40 31 39.550781 31 39 C 31 38.449219 31.449219 38 32 38 C 32.550781 38 33 38.449219 33 39 Z M 33 39 "/>
<path style=" stroke:none;fill-rule:nonzero;fill:rgb(21.568627%,27.843137%,30.980392%);fill-opacity:1;" d="M 36 40 C 36 40.550781 35.550781 41 35 41 C 34.449219 41 34 40.550781 34 40 C 34 39.449219 34.449219 39 35 39 C 35.550781 39 36 39.449219 36 40 Z M 36 40 "/>
<path style=" stroke:none;fill-rule:nonzero;fill:rgb(21.568627%,27.843137%,30.980392%);fill-opacity:1;" d="M 15 18 C 13.894531 18 13 17.105469 13 16 L 13 14 C 13 12.894531 13.894531 12 15 12 C 16.105469 12 17 12.894531 17 14 L 17 16 C 17 17.105469 16.105469 18 15 18 Z M 15 18 "/>
<path style=" stroke:none;fill-rule:nonzero;fill:rgb(100%,100%,100%);fill-opacity:1;" d="M 13 10 C 13 11.105469 12.105469 12 11 12 C 9.894531 12 9 11.105469 9 10 C 9 8.894531 9.894531 8 11 8 C 12.105469 8 13 8.894531 13 10 Z M 13 10 "/>
<path style=" stroke:none;fill-rule:nonzero;fill:rgb(12.941176%,12.941176%,12.941176%);fill-opacity:1;" d="M 13 10 C 13 10.550781 12.550781 11 12 11 C 11.449219 11 11 10.550781 11 10 C 11 9.449219 11.449219 9 12 9 C 12.550781 9 13 9.449219 13 10 Z M 13 10 "/>
<path style=" stroke:none;fill-rule:nonzero;fill:rgb(100%,100%,100%);fill-opacity:1;" d="M 21 10 C 21 11.105469 20.105469 12 19 12 C 17.894531 12 17 11.105469 17 10 C 17 8.894531 17.894531 8 19 8 C 20.105469 8 21 8.894531 21 10 Z M 21 10 "/>
<path style=" stroke:none;fill-rule:nonzero;fill:rgb(12.941176%,12.941176%,12.941176%);fill-opacity:1;" d="M 21 10 C 21 10.550781 20.550781 11 20 11 C 19.449219 11 19 10.550781 19 10 C 19 9.449219 19.449219 9 20 9 C 20.550781 9 21 9.449219 21 10 Z M 21 10 "/>
</g>
</svg>
