<?xml version="1.0" encoding="UTF-8"?>
<svg xmlns="http://www.w3.org/2000/svg" xmlns:xlink="http://www.w3.org/1999/xlink" width="48pt" height="48pt" viewBox="0 0 48 48" version="1.1">
<g id="surface1507">
<path style=" stroke:none;fill-rule:nonzero;fill:rgb(32.941176%,43.137255%,47.843137%);fill-opacity:1;" d="M 16.5 5 C 14.015625 5 12 7.015625 12 9.5 L 12 37.5 C 12 39.984375 14.015625 42 16.5 42 C 18.984375 42 21 39.984375 21 37.5 L 21 9.5 C 21 7.015625 18.984375 5 16.5 5 Z M 16.5 5 "/>
<path style=" stroke:none;fill-rule:nonzero;fill:rgb(47.058824%,56.470588%,61.176471%);fill-opacity:1;" d="M 25 43 L 17 43 C 14.238281 43 12 40.761719 12 38 C 12 35.238281 14.238281 33 17 33 L 25 33 C 29.964844 33 34 28.964844 34 24 C 34 19.039062 29.964844 15 25 15 L 17 15 C 14.238281 15 12 12.761719 12 10 C 12 7.238281 14.238281 5 17 5 L 25 5 C 35.476562 5 44 13.523438 44 24 C 44 34.476562 35.476562 43 25 43 Z M 25 43 "/>
<path style=" stroke:none;fill-rule:nonzero;fill:rgb(69.019608%,74.509804%,77.254902%);fill-opacity:1;" d="M 24 12.5 C 24 7.804688 19.96875 4 15 4 C 10.03125 4 6 7.804688 6 12.5 C 6 17.195312 10.03125 21 15 21 C 19.96875 21 24 17.195312 24 12.5 Z M 24 12.5 "/>
<path style=" stroke:none;fill-rule:nonzero;fill:rgb(100%,9.019608%,26.666667%);fill-opacity:1;" d="M 9 22.5 L 9 20 L 14 20 L 14 22.5 C 14 23.882812 12.882812 25 11.5 25 C 10.117188 25 9 23.882812 9 22.5 Z M 9 22.5 "/>
<path style=" stroke:none;fill-rule:nonzero;fill:rgb(100%,100%,100%);fill-opacity:1;" d="M 19 10 C 19 11.105469 18.105469 12 17 12 C 15.894531 12 15 11.105469 15 10 C 15 8.894531 15.894531 8 17 8 C 18.105469 8 19 8.894531 19 10 Z M 19 10 "/>
<path style=" stroke:none;fill-rule:nonzero;fill:rgb(12.941176%,12.941176%,12.941176%);fill-opacity:1;" d="M 17 10 C 17 10.550781 16.550781 11 16 11 C 15.449219 11 15 10.550781 15 10 C 15 9.449219 15.449219 9 16 9 C 16.550781 9 17 9.449219 17 10 Z M 17 10 "/>
<path style=" stroke:none;fill-rule:nonzero;fill:rgb(100%,100%,100%);fill-opacity:1;" d="M 12 10 C 12 11.105469 11.105469 12 10 12 C 8.894531 12 8 11.105469 8 10 C 8 8.894531 8.894531 8 10 8 C 11.105469 8 12 8.894531 12 10 Z M 12 10 "/>
<path style=" stroke:none;fill-rule:nonzero;fill:rgb(12.941176%,12.941176%,12.941176%);fill-opacity:1;" d="M 10 10 C 10 10.550781 9.550781 11 9 11 C 8.449219 11 8 10.550781 8 10 C 8 9.449219 8.449219 9 9 9 C 9.550781 9 10 9.449219 10 10 Z M 10 10 "/>
<path style=" stroke:none;fill-rule:nonzero;fill:rgb(47.058824%,56.470588%,61.176471%);fill-opacity:1;" d="M 13 21 L 10 21 C 7.789062 21 6 19.210938 6 17 C 6 14.789062 7.789062 13 10 13 L 13 13 C 15.210938 13 17 14.789062 17 17 C 17 19.210938 15.210938 21 13 21 Z M 13 21 "/>
<path style=" stroke:none;fill-rule:nonzero;fill:rgb(12.941176%,12.941176%,12.941176%);fill-opacity:1;" d="M 11.5 16 L 10.5 16 C 9.671875 16 9 15.328125 9 14.5 C 9 13.671875 9.671875 13 10.5 13 L 11.5 13 C 12.328125 13 13 13.671875 13 14.5 C 13 15.328125 12.328125 16 11.5 16 Z M 11.5 16 "/>
<path style=" stroke:none;fill-rule:nonzero;fill:rgb(69.019608%,74.509804%,77.254902%);fill-opacity:1;" d="M 7 9 L 6 2 L 13 5 Z M 7 9 "/>
<path style=" stroke:none;fill-rule:nonzero;fill:rgb(69.019608%,74.509804%,77.254902%);fill-opacity:1;" d="M 23 9 L 24 2 L 17 5 Z M 23 9 "/>
<path style=" stroke:none;fill-rule:nonzero;fill:rgb(27.058824%,35.294118%,39.215686%);fill-opacity:1;" d="M 42.023438 15.617188 C 39.8125 11.144531 35.90625 7.667969 31.132812 6.035156 C 31.050781 6.511719 31 7 31 7.5 C 31 12.195312 34.804688 16 39.5 16 C 40.378906 16 41.226562 15.867188 42.023438 15.617188 Z M 42.023438 15.617188 "/>
<path style=" stroke:none;fill-rule:nonzero;fill:rgb(27.058824%,35.294118%,39.215686%);fill-opacity:1;" d="M 33.789062 22.078125 C 33.925781 22.699219 34 23.339844 34 24 C 34 26.960938 32.558594 29.582031 30.347656 31.222656 C 31.117188 31.707031 32.023438 32 33 32 C 35.761719 32 38 29.761719 38 27 C 38 24.507812 36.171875 22.460938 33.789062 22.078125 Z M 33.789062 22.078125 "/>
<path style=" stroke:none;fill-rule:nonzero;fill:rgb(27.058824%,35.294118%,39.215686%);fill-opacity:1;" d="M 25 43 C 27.855469 43 30.558594 42.355469 32.984375 41.21875 C 32.839844 38.3125 30.441406 36 27.5 36 C 24.460938 36 22 38.460938 22 41.5 C 22 42.019531 22.078125 42.523438 22.210938 43 Z M 25 43 "/>
</g>
</svg>
