<?xml version="1.0" encoding="UTF-8"?>
<svg xmlns="http://www.w3.org/2000/svg" xmlns:xlink="http://www.w3.org/1999/xlink" width="48pt" height="48pt" viewBox="0 0 48 48" version="1.1">
<g id="surface1497">
<path style=" stroke:none;fill-rule:nonzero;fill:rgb(100%,79.215686%,15.686275%);fill-opacity:1;" d="M 24 44 C 12.972656 44 4 35.027344 4 24 C 4 12.972656 12.972656 4 24 4 C 29.183594 4 34.097656 5.976562 37.839844 9.5625 C 39.832031 11.472656 39.898438 14.636719 37.988281 16.628906 C 36.078125 18.625 32.910156 18.691406 30.917969 16.777344 C 29.046875 14.988281 26.59375 14 24 14 C 18.484375 14 14 18.484375 14 24 C 14 29.515625 18.484375 34 24 34 C 26.464844 34 28.828125 33.097656 30.660156 31.460938 C 32.71875 29.617188 35.882812 29.792969 37.722656 31.851562 C 39.5625 33.910156 39.386719 37.070312 37.328125 38.914062 C 33.660156 42.191406 28.925781 44 24 44 Z M 24 44 "/>
<path style=" stroke:none;fill-rule:nonzero;fill:rgb(96.078431%,49.803922%,9.019608%);fill-opacity:1;" d="M 43 16 C 43 21.523438 38.523438 26 33 26 C 27.476562 26 23 21.523438 23 16 C 23 10.476562 27.476562 6 33 6 C 38.523438 6 43 10.476562 43 16 Z M 43 16 "/>
<path style=" stroke:none;fill-rule:nonzero;fill:rgb(96.078431%,49.803922%,9.019608%);fill-opacity:1;" d="M 25 15 L 23 6 L 28 8 Z M 25 15 "/>
<path style=" stroke:none;fill-rule:nonzero;fill:rgb(96.078431%,49.803922%,9.019608%);fill-opacity:1;" d="M 41 15 L 43 6 L 38 8 Z M 41 15 "/>
<path style=" stroke:none;fill-rule:nonzero;fill:rgb(100%,100%,100%);fill-opacity:1;" d="M 31 12 C 31 13.105469 30.105469 14 29 14 C 27.894531 14 27 13.105469 27 12 C 27 10.894531 27.894531 10 29 10 C 30.105469 10 31 10.894531 31 12 Z M 31 12 "/>
<path style=" stroke:none;fill-rule:nonzero;fill:rgb(12.941176%,12.941176%,12.941176%);fill-opacity:1;" d="M 31 12 C 31 12.550781 30.550781 13 30 13 C 29.449219 13 29 12.550781 29 12 C 29 11.449219 29.449219 11 30 11 C 30.550781 11 31 11.449219 31 12 Z M 31 12 "/>
<path style=" stroke:none;fill-rule:nonzero;fill:rgb(100%,100%,100%);fill-opacity:1;" d="M 39 12 C 39 13.105469 38.105469 14 37 14 C 35.894531 14 35 13.105469 35 12 C 35 10.894531 35.894531 10 37 10 C 38.105469 10 39 10.894531 39 12 Z M 39 12 "/>
<path style=" stroke:none;fill-rule:nonzero;fill:rgb(12.941176%,12.941176%,12.941176%);fill-opacity:1;" d="M 39 12 C 39 12.550781 38.550781 13 38 13 C 37.449219 13 37 12.550781 37 12 C 37 11.449219 37.449219 11 38 11 C 38.550781 11 39 11.449219 39 12 Z M 39 12 "/>
<path style=" stroke:none;fill-rule:nonzero;fill:rgb(100%,9.019608%,26.666667%);fill-opacity:1;" d="M 31 22 L 31 19 L 35 19 L 35 22 C 35 23.105469 34.105469 24 33 24 C 31.894531 24 31 23.105469 31 22 Z M 31 22 "/>
<path style=" stroke:none;fill-rule:nonzero;fill:rgb(100%,79.215686%,15.686275%);fill-opacity:1;" d="M 37 24 C 39.210938 24 41 22.210938 41 20 C 41 17.789062 39.210938 16 37 16 L 33 16 L 33 20 C 33 22.210938 34.789062 24 37 24 Z M 37 24 "/>
<path style=" stroke:none;fill-rule:nonzero;fill:rgb(100%,79.215686%,15.686275%);fill-opacity:1;" d="M 29 24 C 26.789062 24 25 22.210938 25 20 C 25 17.789062 26.789062 16 29 16 L 33 16 L 33 20 C 33 22.210938 31.210938 24 29 24 Z M 29 24 "/>
<path style=" stroke:none;fill-rule:nonzero;fill:rgb(12.941176%,12.941176%,12.941176%);fill-opacity:1;" d="M 33.5 18 L 32.5 18 C 31.671875 18 31 17.328125 31 16.5 C 31 15.671875 31.671875 15 32.5 15 L 33.5 15 C 34.328125 15 35 15.671875 35 16.5 C 35 17.328125 34.328125 18 33.5 18 Z M 33.5 18 "/>
<path style=" stroke:none;fill-rule:nonzero;fill:rgb(27.058824%,35.294118%,39.215686%);fill-opacity:1;" d="M 37 18 L 45 18 L 45 19 L 37 19 Z M 37 18 "/>
<path style=" stroke:none;fill-rule:nonzero;fill:rgb(27.058824%,35.294118%,39.215686%);fill-opacity:1;" d="M 36 21 L 44 21 L 44 22 L 36 22 Z M 36 21 "/>
<path style=" stroke:none;fill-rule:nonzero;fill:rgb(27.058824%,35.294118%,39.215686%);fill-opacity:1;" d="M 21 18 L 29 18 L 29 19 L 21 19 Z M 21 18 "/>
<path style=" stroke:none;fill-rule:nonzero;fill:rgb(27.058824%,35.294118%,39.215686%);fill-opacity:1;" d="M 22 21 L 30 21 L 30 22 L 22 22 Z M 22 21 "/>
<path style=" stroke:none;fill-rule:nonzero;fill:rgb(96.078431%,49.803922%,9.019608%);fill-opacity:1;" d="M 30.660156 31.460938 C 30.011719 32.039062 29.289062 32.527344 28.523438 32.914062 L 33.519531 41.570312 C 34.875 40.835938 36.160156 39.957031 37.324219 38.914062 C 39.386719 37.070312 39.558594 33.910156 37.71875 31.851562 C 35.882812 29.792969 32.71875 29.617188 30.660156 31.460938 Z M 30.660156 31.460938 "/>
<path style=" stroke:none;fill-rule:nonzero;fill:rgb(96.078431%,49.803922%,9.019608%);fill-opacity:1;" d="M 14.390625 21.269531 C 14.957031 19.273438 16.125 17.527344 17.691406 16.25 L 9.488281 10.28125 C 8.109375 11.734375 6.957031 13.394531 6.0625 15.210938 Z M 14.390625 21.269531 "/>
<path style=" stroke:none;fill-rule:nonzero;fill:rgb(96.078431%,49.803922%,9.019608%);fill-opacity:1;" d="M 14.878906 28.074219 L 7.285156 34.953125 C 8.390625 36.636719 9.738281 38.148438 11.285156 39.425781 L 18.859375 32.5625 C 17.117188 31.511719 15.71875 29.949219 14.878906 28.074219 Z M 14.878906 28.074219 "/>
</g>
</svg>
