<?xml version="1.0" encoding="UTF-8"?>
<svg xmlns="http://www.w3.org/2000/svg" xmlns:xlink="http://www.w3.org/1999/xlink" width="48pt" height="48pt" viewBox="0 0 48 48" version="1.1">
<g id="surface1712">
<path style=" stroke:none;fill-rule:nonzero;fill:rgb(100%,79.215686%,15.686275%);fill-opacity:1;" d="M 41 38 L 39 38 L 39 33 C 39 31.300781 37.710938 31 35 31 C 32.867188 31 31.75 29.492188 31.75 28 C 31.75 27.210938 32.054688 26.46875 32.605469 25.917969 C 33.023438 25.5 33.777344 25 35 25 L 38 25 L 38 27 L 35 27 C 34.078125 27 33.75 27.515625 33.75 28 C 33.75 28.484375 34.078125 29 35 29 C 36.945312 29 41 29 41 33 Z M 41 38 "/>
<path style=" stroke:none;fill-rule:nonzero;fill:rgb(100%,79.215686%,15.686275%);fill-opacity:1;" d="M 36 43 L 16 43 C 13.238281 43 11 40.761719 11 38 L 11 10 C 11 7.238281 13.238281 5 16 5 C 18.761719 5 21 7.238281 21 10 L 21 33 L 36 33 C 38.761719 33 41 35.238281 41 38 C 41 40.761719 38.761719 43 36 43 Z M 36 43 "/>
<path style=" stroke:none;fill-rule:nonzero;fill:rgb(100%,42.745098%,0%);fill-opacity:1;" d="M 27 12.558594 C 27 18.390625 21 24.078125 16 26 C 11 24.078125 5 18.390625 5 12.558594 C 5 6.726562 9.925781 2 16 2 C 22.074219 2 27 6.726562 27 12.558594 Z M 27 12.558594 "/>
<path style=" stroke:none;fill-rule:nonzero;fill:rgb(100%,79.215686%,15.686275%);fill-opacity:1;" d="M 22 11 C 22 14.3125 19.3125 17 16 17 C 12.6875 17 10 14.3125 10 11 C 10 7.6875 12.6875 5 16 5 C 19.3125 5 22 7.6875 22 11 Z M 22 11 "/>
<path style=" stroke:none;fill-rule:nonzero;fill:rgb(100%,79.215686%,15.686275%);fill-opacity:1;" d="M 14 7 C 14 8.105469 13.105469 9 12 9 C 10.894531 9 10 8.105469 10 7 C 10 5.894531 10.894531 5 12 5 C 13.105469 5 14 5.894531 14 7 Z M 14 7 "/>
<path style=" stroke:none;fill-rule:nonzero;fill:rgb(100%,79.215686%,15.686275%);fill-opacity:1;" d="M 22 7 C 22 8.105469 21.105469 9 20 9 C 18.894531 9 18 8.105469 18 7 C 18 5.894531 18.894531 5 20 5 C 21.105469 5 22 5.894531 22 7 Z M 22 7 "/>
<path style=" stroke:none;fill-rule:nonzero;fill:rgb(100%,62.745098%,0%);fill-opacity:1;" d="M 21 31.265625 L 16.011719 33 L 21 32.988281 Z M 21 31.265625 "/>
<path style=" stroke:none;fill-rule:nonzero;fill:rgb(12.941176%,12.941176%,12.941176%);fill-opacity:1;" d="M 14 10 C 14 10.550781 13.550781 11 13 11 C 12.449219 11 12 10.550781 12 10 C 12 9.449219 12.449219 9 13 9 C 13.550781 9 14 9.449219 14 10 Z M 14 10 "/>
<path style=" stroke:none;fill-rule:nonzero;fill:rgb(12.941176%,12.941176%,12.941176%);fill-opacity:1;" d="M 20 10 C 20 10.550781 19.550781 11 19 11 C 18.449219 11 18 10.550781 18 10 C 18 9.449219 18.449219 9 19 9 C 19.550781 9 20 9.449219 20 10 Z M 20 10 "/>
<path style=" stroke:none;fill-rule:nonzero;fill:rgb(100%,79.215686%,15.686275%);fill-opacity:1;" d="M 16 22 C 13.789062 22 12 20.210938 12 18 L 12 12 L 20 12 L 20 18 C 20 20.210938 18.210938 22 16 22 Z M 16 22 "/>
<path style=" stroke:none;fill-rule:nonzero;fill:rgb(100%,42.745098%,0%);fill-opacity:1;" d="M 12.445312 20.894531 L 11.554688 19.105469 L 14.992188 17.386719 L 14.96875 14.488281 L 16.96875 14.46875 L 17.007812 18.613281 Z M 12.445312 20.894531 "/>
<path style=" stroke:none;fill-rule:nonzero;fill:rgb(100%,42.745098%,0%);fill-opacity:1;" d="M 19.609375 20.453125 L 15 18.6875 L 15 14 L 17 14 L 17 17.3125 L 20.324219 18.589844 Z M 19.609375 20.453125 "/>
<path style=" stroke:none;fill-rule:nonzero;fill:rgb(100%,42.745098%,0%);fill-opacity:1;" d="M 38.410156 24 C 39.867188 24 41.308594 25.199219 42 26 C 41.308594 26.800781 39.867188 28 38.410156 28 C 36.949219 28 36 27.105469 36 26 C 36 24.894531 36.949219 24 38.410156 24 Z M 38.410156 24 "/>
<path style=" stroke:none;fill-rule:nonzero;fill:rgb(12.941176%,12.941176%,12.941176%);fill-opacity:1;" d="M 17 15 L 19 13 L 13 13 L 15 15 Z M 17 15 "/>
</g>
</svg>
