<?xml version="1.0" encoding="UTF-8"?>
<svg xmlns="http://www.w3.org/2000/svg" xmlns:xlink="http://www.w3.org/1999/xlink" width="48pt" height="48pt" viewBox="0 0 48 48" version="1.1">
<g id="surface1727">
<path style=" stroke:none;fill-rule:nonzero;fill:rgb(47.058824%,56.470588%,61.176471%);fill-opacity:1;" d="M 31 6 L 18 6 L 18 16 L 31 16 C 32.101562 16 33 16.898438 33 18 C 33 19.101562 32.101562 20 31 20 L 18 20 L 18 30 L 31 30 C 37.617188 30 43 24.617188 43 18 C 43 11.382812 37.617188 6 31 6 Z M 31 6 "/>
<path style=" stroke:none;fill-rule:nonzero;fill:rgb(47.058824%,56.470588%,61.176471%);fill-opacity:1;" d="M 37.582031 34.257812 C 31.636719 32.273438 27.019531 27.859375 23.472656 20.765625 C 22.4375 18.695312 20.164062 17.675781 18 18.121094 L 18 31.085938 C 22.347656 37.300781 27.84375 41.550781 34.417969 43.742188 C 34.941406 43.917969 35.476562 44 36 44 C 38.09375 44 40.046875 42.675781 40.742188 40.582031 C 41.617188 37.960938 40.199219 35.128906 37.582031 34.257812 Z M 37.582031 34.257812 "/>
<path style=" stroke:none;fill-rule:nonzero;fill:rgb(100%,100%,100%);fill-opacity:1;" d="M 30 12 C 30 13.105469 29.105469 14 28 14 C 26.894531 14 26 13.105469 26 12 C 26 10.894531 26.894531 10 28 10 C 29.105469 10 30 10.894531 30 12 Z M 30 12 "/>
<path style=" stroke:none;fill-rule:nonzero;fill:rgb(12.941176%,12.941176%,12.941176%);fill-opacity:1;" d="M 30 12 C 30 12.550781 29.550781 13 29 13 C 28.449219 13 28 12.550781 28 12 C 28 11.449219 28.449219 11 29 11 C 29.550781 11 30 11.449219 30 12 Z M 30 12 "/>
<path style=" stroke:none;fill-rule:nonzero;fill:rgb(100%,100%,100%);fill-opacity:1;" d="M 38 12 C 38 13.105469 37.105469 14 36 14 C 34.894531 14 34 13.105469 34 12 C 34 10.894531 34.894531 10 36 10 C 37.105469 10 38 10.894531 38 12 Z M 38 12 "/>
<path style=" stroke:none;fill-rule:nonzero;fill:rgb(12.941176%,12.941176%,12.941176%);fill-opacity:1;" d="M 38 12 C 38 12.550781 37.550781 13 37 13 C 36.449219 13 36 12.550781 36 12 C 36 11.449219 36.449219 11 37 11 C 37.550781 11 38 11.449219 38 12 Z M 38 12 "/>
<path style=" stroke:none;fill-rule:nonzero;fill:rgb(47.058824%,56.470588%,61.176471%);fill-opacity:1;" d="M 19 44 C 16.238281 44 14 41.761719 14 39 L 14 11 C 14 8.238281 16.238281 6 19 6 C 21.761719 6 24 8.238281 24 11 L 24 39 C 24 41.761719 21.761719 44 19 44 Z M 19 44 "/>
<path style=" stroke:none;fill-rule:nonzero;fill:rgb(47.058824%,56.470588%,61.176471%);fill-opacity:1;" d="M 23 14 L 36 14 L 36 24 L 23 24 Z M 23 14 "/>
<path style=" stroke:none;fill-rule:nonzero;fill:rgb(32.941176%,43.137255%,47.843137%);fill-opacity:1;" d="M 31 25 L 31 19 L 33 19 L 33 25 Z M 31 25 "/>
<path style=" stroke:none;fill-rule:nonzero;fill:rgb(100%,61.960784%,50.196078%);fill-opacity:1;" d="M 35 17.5 C 35 16.121094 33.65625 15 32 15 C 30.34375 15 29 16.121094 29 17.5 C 29 18.878906 30.34375 20 32 20 C 33.65625 20 35 18.878906 35 17.5 Z M 35 17.5 "/>
<path style=" stroke:none;fill-rule:nonzero;fill:rgb(32.941176%,43.137255%,47.843137%);fill-opacity:1;" d="M 32 26 C 30.980469 26 28.585938 26 26.292969 23.707031 L 27.707031 22.292969 C 29.414062 24 31.097656 24 32 24 Z M 32 26 "/>
<path style=" stroke:none;fill-rule:nonzero;fill:rgb(32.941176%,43.137255%,47.843137%);fill-opacity:1;" d="M 32 26 L 32 24 C 32.902344 24 34.585938 24 36.292969 22.292969 L 37.707031 23.707031 C 35.414062 26 33.019531 26 32 26 Z M 32 26 "/>
<path style=" stroke:none;fill-rule:nonzero;fill:rgb(32.941176%,43.137255%,47.843137%);fill-opacity:1;" d="M 8.796875 21.210938 C 6.976562 20.128906 6.378906 17.78125 7.460938 15.964844 C 9.683594 12.222656 14.507812 6.84375 19.355469 5.609375 C 21.292969 5.117188 23.363281 5.734375 23.558594 6.839844 C 20.78125 5.058594 16.425781 14.476562 14.039062 19.871094 C 12.960938 21.691406 10.609375 22.289062 8.796875 21.210938 Z M 8.796875 21.210938 "/>
<path style=" stroke:none;fill-rule:nonzero;fill:rgb(47.058824%,56.470588%,61.176471%);fill-opacity:1;" d="M 2.726562 8.207031 C 2.089844 6.191406 3.203125 4.039062 5.21875 3.402344 C 9.371094 2.089844 16.550781 1.289062 20.988281 3.59375 C 22.765625 4.515625 23.898438 6.355469 23.308594 7.308594 C 22.421875 4.132812 12.902344 8.261719 7.527344 10.699219 C 5.515625 11.335938 3.363281 10.21875 2.726562 8.207031 Z M 2.726562 8.207031 "/>
<path style=" stroke:none;fill-rule:nonzero;fill:rgb(32.941176%,43.137255%,47.843137%);fill-opacity:1;" d="M 39.78125 42.253906 C 39.128906 41.492188 38.203125 40.722656 36.824219 40.15625 L 36.066406 42.007812 C 37.058594 42.414062 37.726562 42.945312 38.203125 43.484375 C 38.804688 43.1875 39.335938 42.765625 39.78125 42.253906 Z M 39.78125 42.253906 "/>
<path style=" stroke:none;fill-rule:nonzero;fill:rgb(32.941176%,43.137255%,47.843137%);fill-opacity:1;" d="M 37.683594 38.296875 C 39.394531 38.996094 40.175781 40.070312 40.605469 40.910156 C 40.648438 40.800781 40.707031 40.695312 40.742188 40.582031 C 41.03125 39.714844 41.050781 38.828125 40.878906 37.992188 C 40.269531 37.421875 39.488281 36.871094 38.441406 36.445312 Z M 37.683594 38.296875 "/>
<path style=" stroke:none;fill-rule:nonzero;fill:rgb(32.941176%,43.137255%,47.843137%);fill-opacity:1;" d="M 23.960938 39.386719 L 23.921875 37.679688 L 20.378906 34.1875 C 20.378906 34.1875 20.960938 37.730469 23.691406 40.671875 C 23.839844 40.265625 23.925781 39.835938 23.960938 39.386719 Z M 23.960938 39.386719 "/>
</g>
</svg>
