<?xml version="1.0" encoding="UTF-8"?>
<svg xmlns="http://www.w3.org/2000/svg" xmlns:xlink="http://www.w3.org/1999/xlink" width="48pt" height="48pt" viewBox="0 0 48 48" version="1.1">
<g id="surface1667">
<path style=" stroke:none;fill-rule:nonzero;fill:rgb(50.588235%,83.137255%,98.039216%);fill-opacity:1;" d="M 17 22.5 C 17 23.328125 16.328125 24 15.5 24 C 14.671875 24 14 23.328125 14 22.5 C 14 21.671875 14.671875 21 15.5 21 C 16.328125 21 17 21.671875 17 22.5 Z M 17 22.5 "/>
<path style=" stroke:none;fill-rule:nonzero;fill:rgb(50.588235%,83.137255%,98.039216%);fill-opacity:1;" d="M 12 20.5 C 12 21.328125 11.328125 22 10.5 22 C 9.671875 22 9 21.328125 9 20.5 C 9 19.671875 9.671875 19 10.5 19 C 11.328125 19 12 19.671875 12 20.5 Z M 12 20.5 "/>
<path style=" stroke:none;fill-rule:nonzero;fill:rgb(50.588235%,83.137255%,98.039216%);fill-opacity:1;" d="M 15 19 C 15 19.550781 14.550781 20 14 20 C 13.449219 20 13 19.550781 13 19 C 13 18.449219 13.449219 18 14 18 C 14.550781 18 15 18.449219 15 19 Z M 15 19 "/>
<path style=" stroke:none;fill-rule:nonzero;fill:rgb(50.588235%,83.137255%,98.039216%);fill-opacity:1;" d="M 9 24 C 9 24.550781 8.550781 25 8 25 C 7.449219 25 7 24.550781 7 24 C 7 23.449219 7.449219 23 8 23 C 8.550781 23 9 23.449219 9 24 Z M 9 24 "/>
<path style=" stroke:none;fill-rule:nonzero;fill:rgb(16.078431%,71.372549%,96.470588%);fill-opacity:1;" d="M 32 10 C 31.445312 10 31 10.445312 31 11 L 31 28.683594 C 31 33.472656 27.394531 37.660156 22.617188 37.980469 C 17.375 38.328125 13 34.117188 13 28.949219 L 13 26 C 13 25.449219 12.550781 25 12 25 C 11.449219 25 11 25.449219 11 26 L 11 28.679688 C 11 34.71875 15.238281 39.414062 20.941406 39.949219 C 27.480469 40.566406 33.097656 35.652344 33 29 L 33 11 C 33 10.445312 32.554688 10 32 10 Z M 32 10 "/>
<path style=" stroke:none;fill-rule:nonzero;fill:rgb(16.078431%,71.372549%,96.470588%);fill-opacity:1;" d="M 28 13 C 27.445312 13 27 13.445312 27 14 L 27 28.605469 C 27 31.882812 25.035156 34 22 34 C 18.964844 34 17 31.882812 17 28.605469 L 17 28 C 17 27.449219 16.550781 27 16 27 C 15.449219 27 15 27.449219 15 28 L 15 28.605469 C 14.90625 32.828125 17.8125 36 22 36 C 26.1875 36 29 33.027344 29 28.605469 L 29 14 C 29 13.445312 28.554688 13 28 13 Z M 28 13 "/>
<path style=" stroke:none;fill-rule:nonzero;fill:rgb(16.078431%,71.372549%,96.470588%);fill-opacity:1;" d="M 36 12 C 35.445312 12 35 12.445312 35 13 L 35 29.40625 C 35 36.230469 29.046875 42 22 42 C 14.953125 42 9.066406 36.082031 9 29.40625 L 9 28 C 9 27.449219 8.550781 27 8 27 C 7.449219 27 7 27.449219 7 28 L 7 29.40625 C 7 37.316406 13.867188 44 22 44 C 30.132812 44 37 37.316406 37 29.40625 L 37 13 C 37 12.445312 36.554688 12 36 12 Z M 36 12 "/>
<path style=" stroke:none;fill-rule:nonzero;fill:rgb(50.588235%,83.137255%,98.039216%);fill-opacity:1;" d="M 30 13 C 29.445312 13 29 13.445312 29 14 L 29 28.753906 C 29 32.621094 25.964844 35.949219 22.097656 36 C 18.125 36.050781 15 32.953125 15 28.988281 L 15 27 C 15 26.449219 14.550781 26 14 26 C 13.449219 26 13 26.449219 13 27 L 13 28.679688 C 13 34.285156 17.199219 38.167969 22.324219 37.992188 C 27.214844 37.828125 30.871094 33.976562 31 28.988281 L 31 14 C 31 13.445312 30.554688 13 30 13 Z M 30 13 "/>
<path style=" stroke:none;fill-rule:nonzero;fill:rgb(50.588235%,83.137255%,98.039216%);fill-opacity:1;" d="M 34 12 C 33.445312 12 33 12.445312 33 13 L 33 29.246094 C 33 35.074219 27.964844 40 22 40 C 16.140625 40 11.269531 35.222656 11 29.246094 L 11 27 C 11 26.449219 10.550781 26 10 26 C 9.449219 26 9 26.449219 9 27 L 9 29.246094 C 9 36.160156 14.953125 42 22 42 C 29.167969 42 35 36.277344 35 29.246094 L 35 13 C 35 12.445312 34.554688 12 34 12 Z M 34 12 "/>
<path style=" stroke:none;fill-rule:nonzero;fill:rgb(0.784314%,46.666667%,74.117647%);fill-opacity:1;" d="M 23 28 C 22.632812 28 22.28125 27.796875 22.105469 27.445312 C 20.933594 25.105469 21.421875 22.164062 23.292969 20.292969 C 25 18.585938 25 15.601562 25 14 C 25 13.445312 25.445312 13 26 13 C 26.554688 13 27 13.445312 27 14 C 27 15.757812 27 19.414062 24.707031 21.707031 C 23.4375 22.976562 23.101562 24.96875 23.894531 26.554688 C 24.140625 27.046875 23.941406 27.648438 23.445312 27.894531 C 23.304688 27.964844 23.152344 28 23 28 Z M 23 28 "/>
<path style=" stroke:none;fill-rule:nonzero;fill:rgb(0.784314%,46.666667%,74.117647%);fill-opacity:1;" d="M 27 29 C 26.523438 29 26.105469 28.664062 26.015625 28.179688 C 25.441406 25.039062 26.09375 23.476562 26.789062 21.820312 C 27.382812 20.394531 28 18.925781 28 16 C 28 15.445312 28.445312 15 29 15 C 29.554688 15 30 15.445312 30 16 C 30 19.324219 29.242188 21.136719 28.632812 22.59375 C 27.984375 24.140625 27.515625 25.261719 27.984375 27.820312 C 28.085938 28.363281 27.722656 28.882812 27.179688 28.984375 C 27.117188 28.996094 27.058594 29 27 29 Z M 27 29 "/>
<path style=" stroke:none;fill-rule:nonzero;fill:rgb(0.784314%,46.666667%,74.117647%);fill-opacity:1;" d="M 41.46875 28 C 41.320312 28 41.164062 27.964844 41.023438 27.894531 C 40.527344 27.648438 40.328125 27.046875 40.574219 26.554688 C 41.367188 24.96875 41.03125 22.976562 39.761719 21.707031 C 37.132812 19.078125 37 14.824219 37 14 C 37 13.445312 37.445312 13 38 13 C 38.554688 13 39 13.445312 39 14 C 39 15.898438 39.570312 18.6875 41.175781 20.292969 C 43.046875 22.164062 43.535156 25.105469 42.363281 27.445312 C 42.1875 27.796875 41.835938 28 41.46875 28 Z M 41.46875 28 "/>
<path style=" stroke:none;fill-rule:nonzero;fill:rgb(0.784314%,46.666667%,74.117647%);fill-opacity:1;" d="M 37 29 C 36.945312 29 36.890625 28.996094 36.835938 28.984375 C 36.289062 28.894531 35.921875 28.378906 36.015625 27.835938 C 36.492188 24.953125 35.988281 23.808594 35.351562 22.355469 C 34.71875 20.921875 34 19.292969 34 16 C 34 15.445312 34.445312 15 35 15 C 35.554688 15 36 15.445312 36 16 C 36 18.871094 36.601562 20.234375 37.179688 21.550781 C 37.890625 23.167969 38.566406 24.695312 37.988281 28.164062 C 37.90625 28.652344 37.480469 29 37 29 Z M 37 29 "/>
<path style=" stroke:none;fill-rule:nonzero;fill:rgb(0.784314%,46.666667%,74.117647%);fill-opacity:1;" d="M 31.996094 28.996094 C 31.628906 28.996094 31.28125 28.796875 31.105469 28.445312 C 31.058594 28.351562 29.933594 26.039062 31.050781 22.683594 C 31.933594 20.03125 31.058594 17.34375 31.050781 17.316406 C 30.875 16.792969 31.160156 16.226562 31.683594 16.050781 C 32.210938 15.875 32.773438 16.160156 32.949219 16.683594 C 32.992188 16.820312 34.042969 20.035156 32.949219 23.316406 C 32.105469 25.84375 32.867188 27.492188 32.898438 27.5625 C 33.132812 28.054688 32.929688 28.652344 32.433594 28.894531 C 32.292969 28.964844 32.144531 28.996094 31.996094 28.996094 Z M 31.996094 28.996094 "/>
<path style=" stroke:none;fill-rule:nonzero;fill:rgb(22.352941%,28.627451%,67.058824%);fill-opacity:1;" d="M 37.769531 13.453125 L 25.230469 13.453125 C 21.46875 14.707031 19.953125 17.550781 21.46875 18.46875 C 24 20 25 17 28.992188 19.722656 C 31 21 33 21 35.261719 19.722656 C 40 17 40 19 41.53125 18.46875 C 43.203125 17.886719 41.53125 14.707031 37.769531 13.453125 Z M 37.769531 13.453125 "/>
<path style=" stroke:none;fill-rule:nonzero;fill:rgb(22.352941%,28.627451%,67.058824%);fill-opacity:1;" d="M 41.027344 10.917969 C 41.027344 15.804688 36.761719 18.402344 31.5 18.402344 C 26.238281 18.402344 21.972656 15.804688 21.972656 10.917969 C 21.972656 6.03125 26.238281 2.070312 31.5 2.070312 C 36.761719 2.070312 41.027344 6.03125 41.027344 10.917969 Z M 41.027344 10.917969 "/>
<path style=" stroke:none;fill-rule:nonzero;fill:rgb(100%,100%,100%);fill-opacity:1;" d="M 30 7 C 30 8.105469 29.105469 9 28 9 C 26.894531 9 26 8.105469 26 7 C 26 5.894531 26.894531 5 28 5 C 29.105469 5 30 5.894531 30 7 Z M 30 7 "/>
<path style=" stroke:none;fill-rule:nonzero;fill:rgb(12.941176%,12.941176%,12.941176%);fill-opacity:1;" d="M 29 8 C 29 8.550781 28.550781 9 28 9 C 27.449219 9 27 8.550781 27 8 C 27 7.449219 27.449219 7 28 7 C 28.550781 7 29 7.449219 29 8 Z M 29 8 "/>
<path style=" stroke:none;fill-rule:nonzero;fill:rgb(100%,100%,100%);fill-opacity:1;" d="M 37 7 C 37 8.105469 36.105469 9 35 9 C 33.894531 9 33 8.105469 33 7 C 33 5.894531 33.894531 5 35 5 C 36.105469 5 37 5.894531 37 7 Z M 37 7 "/>
<path style=" stroke:none;fill-rule:nonzero;fill:rgb(12.941176%,12.941176%,12.941176%);fill-opacity:1;" d="M 36 8 C 36 8.550781 35.550781 9 35 9 C 34.449219 9 34 8.550781 34 8 C 34 7.449219 34.449219 7 35 7 C 35.550781 7 36 7.449219 36 8 Z M 36 8 "/>
<path style=" stroke:none;fill-rule:nonzero;fill:rgb(9.803922%,46.27451%,82.352941%);fill-opacity:1;" d="M 31.5 16 C 29.777344 16 28.199219 15.109375 27.167969 13.554688 L 28.832031 12.445312 C 29.488281 13.433594 30.460938 14 31.5 14 C 32.539062 14 33.511719 13.433594 34.167969 12.445312 L 35.832031 13.554688 C 34.800781 15.109375 33.222656 16 31.5 16 Z M 31.5 16 "/>
</g>
</svg>
