<?xml version="1.0" encoding="UTF-8"?>
<svg xmlns="http://www.w3.org/2000/svg" xmlns:xlink="http://www.w3.org/1999/xlink" width="48pt" height="48pt" viewBox="0 0 48 48" version="1.1">
<g id="surface1697">
<path style=" stroke:none;fill-rule:nonzero;fill:rgb(100%,76.862745%,0%);fill-opacity:1;" d="M 39 14 C 36.972656 9.644531 31 6 26 6 L 25.992188 6.050781 C 25.828125 6.03125 25.667969 6 25.5 6 L 13.5 6 C 11.015625 6 9 8.015625 9 10.5 C 9 12.984375 11.015625 15 13.5 15 L 25 15 C 28 15 33 16 36 18 C 37.859375 19.238281 40.519531 17.269531 39 14 Z M 39 14 "/>
<path style=" stroke:none;fill-rule:nonzero;fill:rgb(100%,54.117647%,50.196078%);fill-opacity:1;" d="M 14 43 C 11.238281 43 9 40.761719 9 38 L 9 10 C 9 7.238281 11.238281 5 14 5 C 16.761719 5 19 7.238281 19 10 L 19 38 C 19 40.761719 16.761719 43 14 43 Z M 14 43 "/>
<path style=" stroke:none;fill-rule:nonzero;fill:rgb(100%,54.117647%,50.196078%);fill-opacity:1;" d="M 21 12 C 21 15.867188 17.867188 19 14 19 C 10.132812 19 7 15.867188 7 12 C 7 8.132812 10.132812 5 14 5 C 17.867188 5 21 8.132812 21 12 Z M 21 12 "/>
<path style=" stroke:none;fill-rule:nonzero;fill:rgb(100%,54.117647%,50.196078%);fill-opacity:1;" d="M 24 32 C 27.371094 32 30 29.8125 30 27 C 30 27 27.6875 27 26 27 C 30 26 32 24.25 32 22 C 32 22 29.371094 23 26 23 C 26 23 23.371094 23 20 23 C 20 23 17.5 27.242188 18.726562 29.628906 C 19.953125 32.019531 24 32 24 32 Z M 24 32 "/>
<path style=" stroke:none;fill-rule:nonzero;fill:rgb(100%,100%,100%);fill-opacity:1;" d="M 18 11 C 18 12.105469 17.105469 13 16 13 C 14.894531 13 14 12.105469 14 11 C 14 9.894531 14.894531 9 16 9 C 17.105469 9 18 9.894531 18 11 Z M 18 11 "/>
<path style=" stroke:none;fill-rule:nonzero;fill:rgb(12.941176%,12.941176%,12.941176%);fill-opacity:1;" d="M 18 11 C 18 11.550781 17.550781 12 17 12 C 16.449219 12 16 11.550781 16 11 C 16 10.449219 16.449219 10 17 10 C 17.550781 10 18 10.449219 18 11 Z M 18 11 "/>
<path style=" stroke:none;fill-rule:nonzero;fill:rgb(100%,54.117647%,50.196078%);fill-opacity:1;" d="M 14 23 L 24 23 L 24 32 L 14 32 Z M 14 23 "/>
<path style=" stroke:none;fill-rule:nonzero;fill:rgb(89.803922%,45.098039%,45.098039%);fill-opacity:1;" d="M 18.988281 21.265625 L 14 23 L 18.988281 22.988281 Z M 18.988281 21.265625 "/>
<path style=" stroke:none;fill-rule:nonzero;fill:rgb(45.882353%,45.882353%,45.882353%);fill-opacity:1;" d="M 39 14 C 37.84375 11.511719 35.394531 9.257812 32.574219 7.78125 C 31.367188 11.066406 29.351562 13.429688 26.722656 15.101562 C 29.675781 15.386719 33.515625 16.34375 36 18 C 37.859375 19.238281 40.519531 17.269531 39 14 Z M 39 14 "/>
<path style=" stroke:none;fill-rule:nonzero;fill:rgb(100%,54.117647%,50.196078%);fill-opacity:1;" d="M 6 5 L 14 5 L 11 9 C 11 9 8 10 6 5 Z M 6 5 "/>
</g>
</svg>
