<?xml version="1.0" encoding="UTF-8"?>
<svg xmlns="http://www.w3.org/2000/svg" xmlns:xlink="http://www.w3.org/1999/xlink" width="48pt" height="48pt" viewBox="0 0 48 48" version="1.1">
<g id="surface1717">
<path style=" stroke:none;fill-rule:nonzero;fill:rgb(30.588235%,20.392157%,18.039216%);fill-opacity:1;" d="M 34.84375 39.839844 L 35.828125 39.84375 C 36.996094 39.84375 38.105469 40.328125 38.871094 41.171875 C 39.238281 41.578125 39.210938 42.210938 38.800781 42.585938 C 38.394531 42.953125 37.761719 42.925781 37.390625 42.515625 C 36.941406 42.023438 36.394531 41.894531 36.042969 41.859375 C 36.835938 42.65625 37.28125 43.734375 37.253906 44.835938 C 37.238281 45.386719 36.777344 45.820312 36.226562 45.808594 C 35.683594 45.796875 35.253906 45.351562 35.253906 44.808594 C 35.253906 44.800781 35.253906 44.792969 35.253906 44.785156 C 35.273438 44.148438 34.984375 43.679688 34.757812 43.40625 C 34.582031 44.253906 34.152344 45.03125 33.515625 45.613281 C 33.105469 45.984375 32.472656 45.953125 32.101562 45.542969 C 31.929688 45.351562 31.84375 45.113281 31.84375 44.871094 C 31.84375 44.601562 31.953125 44.328125 32.171875 44.132812 C 32.777344 43.582031 32.84375 42.855469 32.84375 42.566406 L 32.84375 36.847656 L 34.84375 36.847656 Z M 34.84375 39.839844 "/>
<path style=" stroke:none;fill-rule:nonzero;fill:rgb(30.588235%,20.392157%,18.039216%);fill-opacity:1;" d="M 13.128906 39.839844 L 12.144531 39.84375 C 10.976562 39.84375 9.867188 40.328125 9.101562 41.171875 C 8.734375 41.578125 8.761719 42.210938 9.171875 42.585938 C 9.578125 42.953125 10.210938 42.925781 10.582031 42.515625 C 11.03125 42.023438 11.578125 41.894531 11.929688 41.859375 C 11.136719 42.65625 10.691406 43.734375 10.722656 44.835938 C 10.734375 45.386719 11.195312 45.820312 11.746094 45.808594 C 12.289062 45.796875 12.722656 45.351562 12.722656 44.808594 C 12.722656 44.800781 12.722656 44.792969 12.722656 44.785156 C 12.699219 44.148438 12.988281 43.679688 13.21875 43.40625 C 13.390625 44.253906 13.820312 45.03125 14.460938 45.613281 C 14.867188 45.984375 15.5 45.953125 15.871094 45.542969 C 16.046875 45.351562 16.132812 45.113281 16.132812 44.871094 C 16.132812 44.601562 16.019531 44.328125 15.804688 44.132812 C 15.195312 43.582031 15.132812 42.855469 15.132812 42.566406 L 15.132812 36.847656 L 13.132812 36.847656 L 13.132812 39.839844 Z M 13.128906 39.839844 "/>
<path style=" stroke:none;fill-rule:nonzero;fill:rgb(55.294118%,43.137255%,38.823529%);fill-opacity:1;" d="M 24 44 C 13.523438 44 5 35.476562 5 25 L 5 23 C 5 12.523438 13.523438 4 24 4 C 34.476562 4 43 12.523438 43 23 L 43 25 C 43 35.476562 34.476562 44 24 44 Z M 24 14 C 19.035156 14 15 18.035156 15 23 L 15 25 C 15 29.964844 19.035156 34 24 34 C 28.964844 34 33 29.964844 33 25 L 33 23 C 33 18.035156 28.964844 14 24 14 Z M 24 14 "/>
<path style=" stroke:none;fill-rule:nonzero;fill:rgb(55.294118%,43.137255%,38.823529%);fill-opacity:1;" d="M 9 4 L 24 4 L 15 9 C 12.203125 8.488281 10.328125 6.644531 9 4 Z M 9 4 "/>
<path style=" stroke:none;fill-rule:nonzero;fill:rgb(55.294118%,43.137255%,38.823529%);fill-opacity:1;" d="M 39 4 L 24 4 L 33 9 C 35.796875 8.488281 37.671875 6.644531 39 4 Z M 39 4 "/>
<path style=" stroke:none;fill-rule:nonzero;fill:rgb(100%,75.686275%,2.745098%);fill-opacity:1;" d="M 24 16 L 21 18.332031 L 24 23 L 27 18.332031 Z M 24 16 "/>
<path style=" stroke:none;fill-rule:nonzero;fill:rgb(30.588235%,20.392157%,18.039216%);fill-opacity:1;" d="M 25 13.5 C 25 16.539062 22.539062 19 19.5 19 C 16.460938 19 14 16.539062 14 13.5 C 14 10.460938 16.460938 8 19.5 8 C 22.539062 8 25 10.460938 25 13.5 Z M 25 13.5 "/>
<path style=" stroke:none;fill-rule:nonzero;fill:rgb(30.588235%,20.392157%,18.039216%);fill-opacity:1;" d="M 34 13.5 C 34 16.539062 31.539062 19 28.5 19 C 25.460938 19 23 16.539062 23 13.5 C 23 10.460938 25.460938 8 28.5 8 C 31.539062 8 34 10.460938 34 13.5 Z M 34 13.5 "/>
<path style=" stroke:none;fill-rule:nonzero;fill:rgb(100%,100%,100%);fill-opacity:1;" d="M 23 13.5 C 23 15.433594 21.433594 17 19.5 17 C 17.566406 17 16 15.433594 16 13.5 C 16 11.566406 17.566406 10 19.5 10 C 21.433594 10 23 11.566406 23 13.5 Z M 23 13.5 "/>
<path style=" stroke:none;fill-rule:nonzero;fill:rgb(100%,100%,100%);fill-opacity:1;" d="M 32 13.5 C 32 15.433594 30.433594 17 28.5 17 C 26.566406 17 25 15.433594 25 13.5 C 25 11.566406 26.566406 10 28.5 10 C 30.433594 10 32 11.566406 32 13.5 Z M 32 13.5 "/>
<path style=" stroke:none;fill-rule:nonzero;fill:rgb(12.941176%,12.941176%,12.941176%);fill-opacity:1;" d="M 21 13.5 C 21 14.328125 20.328125 15 19.5 15 C 18.671875 15 18 14.328125 18 13.5 C 18 12.671875 18.671875 12 19.5 12 C 20.328125 12 21 12.671875 21 13.5 Z M 21 13.5 "/>
<path style=" stroke:none;fill-rule:nonzero;fill:rgb(12.941176%,12.941176%,12.941176%);fill-opacity:1;" d="M 30 13.5 C 30 14.328125 29.328125 15 28.5 15 C 27.671875 15 27 14.328125 27 13.5 C 27 12.671875 27.671875 12 28.5 12 C 29.328125 12 30 12.671875 30 13.5 Z M 30 13.5 "/>
<path style=" stroke:none;fill-rule:nonzero;fill:rgb(30.588235%,20.392157%,18.039216%);fill-opacity:1;" d="M 5.375 28.707031 C 5.523438 29.441406 5.714844 30.15625 5.941406 30.859375 C 8.023438 29.210938 10 26.679688 10 23 L 10 19 C 8.671875 25.988281 6.289062 27.8125 5.375 28.707031 Z M 5.375 28.707031 "/>
<path style=" stroke:none;fill-rule:nonzero;fill:rgb(30.588235%,20.392157%,18.039216%);fill-opacity:1;" d="M 42.054688 30.859375 C 42.285156 30.15625 42.476562 29.441406 42.621094 28.707031 C 41.746094 27.898438 38.925781 25.03125 38 19 L 38 23 C 38 26.679688 39.976562 29.210938 42.054688 30.859375 Z M 42.054688 30.859375 "/>
</g>
</svg>
