<?xml version="1.0" encoding="UTF-8"?>
<svg xmlns="http://www.w3.org/2000/svg" xmlns:xlink="http://www.w3.org/1999/xlink" width="48pt" height="48pt" viewBox="0 0 48 48" version="1.1">
<g id="surface1687">
<path style=" stroke:none;fill-rule:nonzero;fill:rgb(0%,90.196078%,46.27451%);fill-opacity:1;" d="M 43.453125 6.179688 C 40.242188 5.375 36.980469 7.328125 36.179688 10.546875 C 35.90625 11.632812 35.617188 12.859375 35.308594 14.179688 C 34.574219 17.304688 33.128906 23.445312 31.652344 27.386719 C 31.4375 26.960938 31.242188 26.554688 31.078125 26.226562 C 29.367188 22.726562 27.246094 18.417969 22.65625 18.039062 C 22.441406 18.015625 22.222656 18 22 18 C 21.402344 18 20.824219 18.089844 20.277344 18.253906 C 20.269531 18.257812 20.257812 18.257812 20.25 18.261719 C 20.222656 18.269531 20.195312 18.277344 20.167969 18.285156 C 19.320312 18.535156 18.617188 18.910156 18.125 19.257812 C 17.285156 19.84375 16.820312 20.375 16.441406 20.828125 C 15.730469 21.730469 15.382812 22.421875 15.078125 23.046875 C 14.5 24.285156 14.164062 25.289062 13.8125 26.25 C 13.183594 28.035156 12.679688 29.664062 12.085938 30.941406 C 9.203125 24.222656 7.8125 15.894531 7 11 C 6.003906 5.011719 0 6.324219 0 10.769531 C 0 17.144531 3.738281 31.992188 4.457031 34.140625 C 4.828125 35.222656 5.253906 36.332031 6.003906 37.585938 C 6.394531 38.214844 6.851562 38.890625 7.628906 39.613281 C 8.011719 39.972656 8.503906 40.34375 9.097656 40.667969 C 9.710938 40.992188 10.453125 41.257812 11.261719 41.367188 C 14.15625 41.710938 16.242188 40.398438 17.515625 39.328125 C 18.804688 38.210938 19.582031 37.136719 20.28125 36.136719 C 20.761719 35.410156 21.183594 34.71875 21.589844 34.042969 C 23.640625 37.84375 26.679688 42 32 42 C 41.089844 42 44.089844 29.253906 46.988281 16.929688 C 47.285156 15.667969 47.5625 14.492188 47.820312 13.453125 C 48.625 10.238281 46.671875 6.980469 43.453125 6.179688 Z M 43.453125 6.179688 "/>
<path style=" stroke:none;fill-rule:nonzero;fill:rgb(100%,100%,100%);fill-opacity:1;" d="M 43 10 C 43 11.105469 42.105469 12 41 12 C 39.894531 12 39 11.105469 39 10 C 39 8.894531 39.894531 8 41 8 C 42.105469 8 43 8.894531 43 10 Z M 43 10 "/>
<path style=" stroke:none;fill-rule:nonzero;fill:rgb(12.941176%,12.941176%,12.941176%);fill-opacity:1;" d="M 41 10 C 41 10.550781 40.550781 11 40 11 C 39.449219 11 39 10.550781 39 10 C 39 9.449219 39.449219 9 40 9 C 40.550781 9 41 9.449219 41 10 Z M 41 10 "/>
<path style=" stroke:none;fill-rule:nonzero;fill:rgb(100%,59.607843%,0%);fill-opacity:1;" d="M 9.847656 24.507812 L 7.757812 25.03125 C 7.222656 25.164062 6.894531 25.707031 7.03125 26.242188 C 7.144531 26.695312 7.550781 27 8 27 C 8.078125 27 8.160156 26.988281 8.242188 26.96875 L 10.425781 26.425781 C 10.222656 25.789062 10.027344 25.148438 9.847656 24.507812 Z M 9.847656 24.507812 "/>
<path style=" stroke:none;fill-rule:nonzero;fill:rgb(100%,59.607843%,0%);fill-opacity:1;" d="M 16.574219 26.484375 L 14.121094 25.402344 C 14.015625 25.6875 13.914062 25.972656 13.8125 26.25 C 13.6875 26.605469 13.570312 26.949219 13.453125 27.292969 L 15.765625 28.316406 C 15.898438 28.375 16.035156 28.402344 16.171875 28.402344 C 16.554688 28.402344 16.921875 28.179688 17.085938 27.804688 C 17.308594 27.300781 17.082031 26.710938 16.574219 26.484375 Z M 16.574219 26.484375 "/>
<path style=" stroke:none;fill-rule:nonzero;fill:rgb(100%,59.607843%,0%);fill-opacity:1;" d="M 8.378906 18.503906 L 5.804688 19.019531 C 5.261719 19.128906 4.910156 19.65625 5.019531 20.195312 C 5.113281 20.671875 5.53125 21 6 21 C 6.0625 21 6.128906 20.992188 6.195312 20.980469 L 8.808594 20.457031 C 8.65625 19.796875 8.511719 19.148438 8.378906 18.503906 Z M 8.378906 18.503906 "/>
<path style=" stroke:none;fill-rule:nonzero;fill:rgb(100%,59.607843%,0%);fill-opacity:1;" d="M 7.601562 14.5 C 7.476562 13.808594 7.363281 13.152344 7.257812 12.527344 L 4.804688 13.019531 C 4.261719 13.128906 3.910156 13.65625 4.019531 14.195312 C 4.113281 14.671875 4.53125 15 5 15 C 5.0625 15 5.128906 14.992188 5.195312 14.980469 Z M 7.601562 14.5 "/>
<path style=" stroke:none;fill-rule:nonzero;fill:rgb(100%,59.607843%,0%);fill-opacity:1;" d="M 18.386719 19.089844 C 18.296875 19.144531 18.203125 19.203125 18.128906 19.257812 C 17.554688 19.660156 17.160156 20.03125 16.84375 20.375 L 18.535156 22.769531 C 18.730469 23.042969 19.039062 23.191406 19.355469 23.191406 C 19.554688 23.191406 19.753906 23.132812 19.929688 23.007812 C 20.382812 22.691406 20.488281 22.066406 20.167969 21.613281 Z M 18.386719 19.089844 "/>
<path style=" stroke:none;fill-rule:nonzero;fill:rgb(100%,59.607843%,0%);fill-opacity:1;" d="M 37.242188 17.03125 L 34.777344 16.414062 C 34.628906 17.023438 34.46875 17.675781 34.300781 18.355469 L 36.757812 18.96875 C 36.839844 18.988281 36.921875 19 37 19 C 37.449219 19 37.855469 18.695312 37.96875 18.242188 C 38.105469 17.707031 37.777344 17.164062 37.242188 17.03125 Z M 37.242188 17.03125 "/>
<path style=" stroke:none;fill-rule:nonzero;fill:rgb(100%,59.607843%,0%);fill-opacity:1;" d="M 35.242188 23.03125 L 33.199219 22.519531 C 33.015625 23.171875 32.828125 23.8125 32.636719 24.441406 L 34.757812 24.96875 C 34.839844 24.988281 34.921875 25 35 25 C 35.449219 25 35.855469 24.695312 35.96875 24.242188 C 36.105469 23.707031 35.777344 23.164062 35.242188 23.03125 Z M 35.242188 23.03125 "/>
<path style=" stroke:none;fill-rule:nonzero;fill:rgb(100%,59.607843%,0%);fill-opacity:1;" d="M 25.519531 18.910156 L 23.570312 21.578125 C 23.246094 22.023438 23.339844 22.648438 23.789062 22.976562 C 23.964844 23.105469 24.171875 23.167969 24.378906 23.167969 C 24.6875 23.167969 24.988281 23.027344 25.1875 22.757812 L 27.128906 20.101562 C 26.640625 19.640625 26.109375 19.234375 25.519531 18.910156 Z M 25.519531 18.910156 "/>
<path style=" stroke:none;fill-rule:nonzero;fill:rgb(100%,59.607843%,0%);fill-opacity:1;" d="M 29.734375 23.613281 L 27.5 25.015625 C 27.03125 25.308594 26.890625 25.925781 27.183594 26.394531 C 27.371094 26.695312 27.699219 26.863281 28.03125 26.863281 C 28.214844 26.863281 28.398438 26.8125 28.5625 26.710938 L 30.667969 25.390625 C 30.375 24.800781 30.066406 24.203125 29.734375 23.613281 Z M 29.734375 23.613281 "/>
<path style=" stroke:none;fill-rule:nonzero;fill:rgb(26.27451%,62.745098%,27.843137%);fill-opacity:1;" d="M 46.949219 17.097656 C 46.917969 17.097656 46.886719 17.097656 46.859375 17.097656 C 43.648438 17.097656 43.046875 14.171875 42.984375 13.832031 L 41.011719 14.160156 C 41.285156 15.824219 42.777344 18.878906 46.476562 19.078125 C 46.632812 18.417969 46.792969 17.757812 46.949219 17.097656 Z M 46.949219 17.097656 "/>
<path style=" stroke:none;fill-rule:nonzero;fill:rgb(29.803922%,68.627451%,31.372549%);fill-opacity:1;" d="M 32.515625 24.894531 L 31.652344 27.386719 L 34.097656 31.453125 Z M 32.515625 24.894531 "/>
<path style=" stroke:none;fill-rule:nonzero;fill:rgb(29.803922%,68.627451%,31.372549%);fill-opacity:1;" d="M 22.605469 35.855469 L 21.589844 34.042969 L 24.089844 29.730469 Z M 22.605469 35.855469 "/>
<path style=" stroke:none;fill-rule:nonzero;fill:rgb(29.803922%,68.627451%,31.372549%);fill-opacity:1;" d="M 11.214844 28.867188 L 12.085938 30.941406 L 10.160156 34.898438 Z M 11.214844 28.867188 "/>
</g>
</svg>
