<?xml version="1.0" encoding="UTF-8"?>
<svg xmlns="http://www.w3.org/2000/svg" xmlns:xlink="http://www.w3.org/1999/xlink" width="48pt" height="48pt" viewBox="0 0 48 48" version="1.1">
<g id="surface1477">
<path style=" stroke:none;fill-rule:nonzero;fill:rgb(33.333333%,54.509804%,18.431373%);fill-opacity:1;" d="M 4.753906 32.398438 L 7.609375 35.953125 L 9.972656 29.867188 L 5.464844 30.5625 C 4.601562 30.695312 4.207031 31.714844 4.753906 32.398438 Z M 4.753906 32.398438 "/>
<path style=" stroke:none;fill-rule:nonzero;fill:rgb(33.333333%,54.509804%,18.431373%);fill-opacity:1;" d="M 6.921875 26.832031 L 9.777344 30.390625 L 12.140625 24.304688 L 7.632812 25 C 6.769531 25.132812 6.371094 26.152344 6.921875 26.832031 Z M 6.921875 26.832031 "/>
<path style=" stroke:none;fill-rule:nonzero;fill:rgb(33.333333%,54.509804%,18.431373%);fill-opacity:1;" d="M 9.085938 21.269531 L 11.941406 24.824219 L 14.304688 18.738281 L 9.796875 19.433594 C 8.933594 19.566406 8.539062 20.585938 9.085938 21.269531 Z M 9.085938 21.269531 "/>
<path style=" stroke:none;fill-rule:nonzero;fill:rgb(33.333333%,54.509804%,18.431373%);fill-opacity:1;" d="M 11.25 15.703125 L 14.109375 19.261719 L 16.472656 13.175781 L 11.960938 13.871094 C 11.097656 14.003906 10.703125 15.023438 11.25 15.703125 Z M 11.25 15.703125 "/>
<path style=" stroke:none;fill-rule:nonzero;fill:rgb(33.333333%,54.509804%,18.431373%);fill-opacity:1;" d="M 13.414062 10.140625 L 16.273438 13.695312 L 18.636719 7.609375 L 14.128906 8.304688 C 13.265625 8.4375 12.867188 9.457031 13.414062 10.140625 Z M 13.414062 10.140625 "/>
<path style=" stroke:none;fill-rule:nonzero;fill:rgb(20%,41.176471%,11.764706%);fill-opacity:1;" d="M 25 5 C 24.390625 5 23.773438 5.109375 23.171875 5.347656 C 20.601562 6.355469 19.335938 9.257812 20.347656 11.828125 L 31.347656 39.828125 C 32.355469 42.398438 35.257812 43.664062 37.828125 42.652344 C 40.398438 41.644531 41.664062 38.742188 40.652344 36.171875 L 29.652344 8.171875 C 28.878906 6.203125 26.992188 5 25 5 Z M 25 5 "/>
<path style=" stroke:none;fill-rule:nonzero;fill:rgb(48.627451%,70.196078%,25.882353%);fill-opacity:1;" d="M 12 43 C 11.390625 43 10.773438 42.890625 10.171875 42.652344 C 7.601562 41.644531 6.335938 38.742188 7.347656 36.171875 L 18.347656 8.171875 C 19.355469 5.601562 22.257812 4.335938 24.828125 5.347656 C 27.398438 6.355469 28.664062 9.257812 27.652344 11.828125 L 16.652344 39.828125 C 15.878906 41.796875 13.992188 43 12 43 Z M 12 43 "/>
<path style=" stroke:none;fill-rule:nonzero;fill:rgb(48.627451%,70.196078%,25.882353%);fill-opacity:1;" d="M 34 34 L 26 34 L 26 30 C 26 27.789062 27.789062 26 30 26 C 32.210938 26 34 27.789062 34 30 Z M 34 34 "/>
<path style=" stroke:none;fill-rule:nonzero;fill:rgb(48.627451%,70.196078%,25.882353%);fill-opacity:1;" d="M 41.925781 38 L 17 38 L 17 30 L 43.203125 30 C 43.644531 30 44 30.355469 44 30.796875 L 44 35.925781 C 44 37.070312 43.070312 38 41.925781 38 Z M 41.925781 38 "/>
<path style=" stroke:none;fill-rule:nonzero;fill:rgb(48.627451%,70.196078%,25.882353%);fill-opacity:1;" d="M 44 33 L 41 33 L 41 30.5 C 41 29.671875 41.671875 29 42.5 29 C 43.328125 29 44 29.671875 44 30.5 Z M 44 33 "/>
<path style=" stroke:none;fill-rule:nonzero;fill:rgb(100%,100%,100%);fill-opacity:1;" d="M 32 30 C 32 31.105469 31.105469 32 30 32 C 28.894531 32 28 31.105469 28 30 C 28 28.894531 28.894531 28 30 28 C 31.105469 28 32 28.894531 32 30 Z M 32 30 "/>
<path style=" stroke:none;fill-rule:nonzero;fill:rgb(12.941176%,12.941176%,12.941176%);fill-opacity:1;" d="M 32 30 C 32 30.550781 31.550781 31 31 31 C 30.449219 31 30 30.550781 30 30 C 30 29.449219 30.449219 29 31 29 C 31.550781 29 32 29.449219 32 30 Z M 32 30 "/>
<path style=" stroke:none;fill-rule:nonzero;fill:rgb(100%,100%,100%);fill-opacity:1;" d="M 44 33 L 36 33 C 35.449219 33 35 33.449219 35 34 C 35 34.550781 35.449219 35 36 35 L 44 35 Z M 44 33 "/>
<path style=" stroke:none;fill-rule:nonzero;fill:rgb(12.941176%,12.941176%,12.941176%);fill-opacity:1;" d="M 39 33 L 38 35 L 40 35 Z M 39 33 "/>
<path style=" stroke:none;fill-rule:nonzero;fill:rgb(12.941176%,12.941176%,12.941176%);fill-opacity:1;" d="M 41 33 L 40 35 L 42 35 Z M 41 33 "/>
<path style=" stroke:none;fill-rule:nonzero;fill:rgb(12.941176%,12.941176%,12.941176%);fill-opacity:1;" d="M 43 33 L 42 35 L 44 35 Z M 43 33 "/>
<path style=" stroke:none;fill-rule:nonzero;fill:rgb(12.941176%,12.941176%,12.941176%);fill-opacity:1;" d="M 37 33 L 36 35 L 38 35 Z M 37 33 "/>
<path style=" stroke:none;fill-rule:nonzero;fill:rgb(48.627451%,70.196078%,25.882353%);fill-opacity:1;" d="M 23 5 L 25 5 L 25 7 L 23 7 Z M 23 5 "/>
<path style=" stroke:none;fill-rule:nonzero;fill:rgb(33.333333%,54.509804%,18.431373%);fill-opacity:1;" d="M 20.5 29.988281 L 14.246094 29.988281 L 21.171875 28.296875 Z M 20.5 29.988281 "/>
<path style=" stroke:none;fill-rule:nonzero;fill:rgb(48.627451%,70.196078%,25.882353%);fill-opacity:1;" d="M 29.652344 8.171875 C 28.878906 6.203125 26.992188 5 25 5 C 24.898438 5 24.796875 5.019531 24.695312 5.027344 C 24.761719 5.566406 25.265625 9.234375 27.652344 11.828125 C 29.660156 8.84375 31.054688 11.796875 31.054688 11.796875 L 31.0625 11.761719 Z M 29.652344 8.171875 "/>
</g>
</svg>
