<?xml version="1.0" encoding="UTF-8"?>
<svg xmlns="http://www.w3.org/2000/svg" xmlns:xlink="http://www.w3.org/1999/xlink" width="48pt" height="48pt" viewBox="0 0 48 48" version="1.1">
<g id="surface1662">
<path style=" stroke:none;fill-rule:nonzero;fill:rgb(100%,61.960784%,50.196078%);fill-opacity:1;" d="M 46 16 L 46 14 C 44.839844 14 43.960938 14.292969 43.183594 14.550781 C 42.460938 14.792969 41.839844 15 41 15 C 39.269531 15 37.464844 14.113281 37.445312 14.105469 L 36.550781 15.894531 C 36.636719 15.9375 38.523438 16.855469 40.578125 16.976562 C 42.503906 18.816406 44.601562 20 46 20 L 46 18 C 45.617188 18 44.578125 17.636719 43.246094 16.632812 C 43.441406 16.570312 43.632812 16.507812 43.816406 16.449219 C 44.539062 16.207031 45.160156 16 46 16 Z M 46 16 "/>
<path style=" stroke:none;fill-rule:nonzero;fill:rgb(48.627451%,70.196078%,25.882353%);fill-opacity:1;" d="M 34.234375 8.03125 C 32.800781 7.324219 31.5 7.269531 30.394531 7.667969 C 27.765625 6.226562 23.617188 5 19 5 C 12.382812 5 7 10.382812 7 17 C 7 23.617188 12.382812 29 19 29 L 22.707031 29 C 25.148438 29 26 31.078125 26 32.179688 C 26 35.003906 23.160156 36.535156 18.878906 35.339844 C 9.113281 32.613281 7.722656 40 4 40 C 1.238281 40 1.238281 43 4 43 C 9.496094 43 9.765625 39.488281 12.734375 39.488281 C 16.054688 39.488281 17.648438 43 24 43 C 30.617188 43 36 37.617188 36 31 C 36 24.382812 30.617188 19 24 19 L 19 19 C 17.898438 19 17 18.101562 17 17 C 17 12.222656 23.972656 13.566406 27.285156 14.476562 C 27.691406 15.472656 28.507812 16.359375 29.808594 17.003906 C 32.78125 18.46875 37.160156 18.132812 38.382812 15.65625 C 39.601562 13.179688 37.207031 9.5 34.234375 8.03125 Z M 34.234375 8.03125 "/>
<path style=" stroke:none;fill-rule:nonzero;fill:rgb(33.333333%,54.509804%,18.431373%);fill-opacity:1;" d="M 22.5 11 C 20.746094 11 19.300781 12.300781 19.050781 13.988281 C 20.953125 13.265625 23.796875 13.648438 25.964844 14.144531 C 25.78125 12.382812 24.308594 11 22.5 11 Z M 22.5 11 "/>
<path style=" stroke:none;fill-rule:nonzero;fill:rgb(33.333333%,54.509804%,18.431373%);fill-opacity:1;" d="M 33.5 28 C 34.222656 28 34.890625 27.78125 35.449219 27.40625 C 34.726562 25.109375 33.328125 23.113281 31.492188 21.640625 C 30.59375 22.277344 30 23.316406 30 24.5 C 30 26.429688 31.570312 28 33.5 28 Z M 33.5 28 "/>
<path style=" stroke:none;fill-rule:nonzero;fill:rgb(33.333333%,54.509804%,18.431373%);fill-opacity:1;" d="M 23 19 L 19.050781 19 C 19.027344 19.164062 19 19.328125 19 19.5 C 19 21.429688 20.570312 23 22.5 23 C 24.429688 23 26 21.429688 26 19.5 C 26 19.390625 25.976562 19.285156 25.964844 19.175781 C 25.324219 19.070312 24.671875 19 24 19 Z M 23 19 "/>
<path style=" stroke:none;fill-rule:nonzero;fill:rgb(33.333333%,54.509804%,18.431373%);fill-opacity:1;" d="M 21.5 40 C 20.171875 40 19.027344 40.753906 18.433594 41.847656 C 19.835938 42.484375 21.566406 43 24 43 C 24.320312 43 24.632812 42.976562 24.945312 42.953125 C 24.679688 41.285156 23.242188 40 21.5 40 Z M 21.5 40 "/>
<path style=" stroke:none;fill-rule:nonzero;fill:rgb(33.333333%,54.509804%,18.431373%);fill-opacity:1;" d="M 23.613281 35.441406 C 24.160156 35.789062 24.804688 36 25.5 36 C 27.429688 36 29 34.429688 29 32.5 C 29 30.570312 27.429688 29 25.5 29 C 25.007812 29 24.535156 29.105469 24.109375 29.289062 C 25.476562 29.894531 26 31.324219 26 32.179688 C 26 33.746094 25.125 34.914062 23.613281 35.441406 Z M 23.613281 35.441406 "/>
<path style=" stroke:none;fill-rule:nonzero;fill:rgb(33.333333%,54.509804%,18.431373%);fill-opacity:1;" d="M 11.5 21 C 10.203125 21 9.085938 21.714844 8.480469 22.761719 C 9.582031 24.765625 11.234375 26.417969 13.238281 27.519531 C 14.285156 26.914062 15 25.796875 15 24.5 C 15 22.570312 13.429688 21 11.5 21 Z M 11.5 21 "/>
<path style=" stroke:none;fill-rule:nonzero;fill:rgb(33.333333%,54.509804%,18.431373%);fill-opacity:1;" d="M 12.5 38 C 14.328125 38 15.820312 36.582031 15.972656 34.792969 C 13.066406 34.527344 11.089844 35.324219 9.554688 36.375 C 10.175781 37.347656 11.261719 38 12.5 38 Z M 12.5 38 "/>
<path style=" stroke:none;fill-rule:nonzero;fill:rgb(33.333333%,54.509804%,18.431373%);fill-opacity:1;" d="M 34.773438 36.25 C 34.378906 36.09375 33.949219 36 33.5 36 C 31.570312 36 30 37.570312 30 39.5 C 30 40.089844 30.160156 40.636719 30.417969 41.121094 C 32.285156 39.933594 33.796875 38.246094 34.773438 36.25 Z M 34.773438 36.25 "/>
<path style=" stroke:none;fill-rule:nonzero;fill:rgb(33.333333%,54.509804%,18.431373%);fill-opacity:1;" d="M 7.550781 13.40625 C 8.109375 13.78125 8.777344 14 9.5 14 C 11.429688 14 13 12.429688 13 10.5 C 13 9.316406 12.40625 8.277344 11.507812 7.640625 C 9.671875 9.113281 8.273438 11.109375 7.550781 13.40625 Z M 7.550781 13.40625 "/>
<path style=" stroke:none;fill-rule:nonzero;fill:rgb(33.333333%,54.509804%,18.431373%);fill-opacity:1;" d="M 23.5 8 C 24.84375 8 26 7.230469 26.585938 6.113281 C 24.660156 5.53125 22.433594 5.128906 20.054688 5.035156 C 20.3125 6.710938 21.753906 8 23.5 8 Z M 23.5 8 "/>
<path style=" stroke:none;fill-rule:nonzero;fill:rgb(12.941176%,12.941176%,12.941176%);fill-opacity:1;" d="M 32 16 C 32 16.550781 31.550781 17 31 17 C 30.449219 17 30 16.550781 30 16 C 30 15.449219 30.449219 15 31 15 C 31.550781 15 32 15.449219 32 16 Z M 32 16 "/>
<path style=" stroke:none;fill-rule:nonzero;fill:rgb(12.941176%,12.941176%,12.941176%);fill-opacity:1;" d="M 35 10 C 35 10.550781 34.550781 11 34 11 C 33.449219 11 33 10.550781 33 10 C 33 9.449219 33.449219 9 34 9 C 34.550781 9 35 9.449219 35 10 Z M 35 10 "/>
</g>
</svg>
