<?xml version="1.0" encoding="UTF-8"?>
<svg xmlns="http://www.w3.org/2000/svg" xmlns:xlink="http://www.w3.org/1999/xlink" width="48pt" height="48pt" viewBox="0 0 48 48" version="1.1">
<g id="surface1652">
<path style=" stroke:none;fill-rule:nonzero;fill:rgb(0%,59.215686%,65.490196%);fill-opacity:1;" d="M 22.058594 0.703125 L 28.652344 8.246094 L 30.753906 5.679688 Z M 22.058594 0.703125 "/>
<path style=" stroke:none;fill-rule:nonzero;fill:rgb(0%,59.215686%,65.490196%);fill-opacity:1;" d="M 37.003906 43 C 35.523438 43 34.054688 42.34375 33.066406 41.089844 L 11.066406 13.089844 C 9.363281 10.917969 9.738281 7.773438 11.910156 6.066406 C 14.082031 4.363281 17.226562 4.738281 18.933594 6.910156 L 40.933594 34.910156 C 42.636719 37.082031 42.261719 40.226562 40.089844 41.933594 C 39.171875 42.652344 38.085938 43 37.003906 43 Z M 37.003906 43 "/>
<path style=" stroke:none;fill-rule:nonzero;fill:rgb(14.901961%,77.647059%,85.490196%);fill-opacity:1;" d="M 37 43 C 34.238281 43 32 40.761719 32 38 L 32 10 C 32 7.238281 36.792969 6.519531 39.554688 6.519531 C 42.136719 9.058594 42 17.117188 42 19.878906 L 42 38 C 42 40.761719 39.761719 43 37 43 Z M 37 43 "/>
<path style=" stroke:none;fill-rule:nonzero;fill:rgb(14.901961%,77.647059%,85.490196%);fill-opacity:1;" d="M 37 43 C 34.238281 43 32 40.761719 32 38 L 32 10 C 32 7.238281 36.792969 6.519531 39.554688 6.519531 C 42.136719 9.058594 42 17.117188 42 19.878906 L 42 38 C 42 40.761719 39.761719 43 37 43 Z M 37 43 "/>
<path style=" stroke:none;fill-rule:nonzero;fill:rgb(14.901961%,77.647059%,85.490196%);fill-opacity:1;" d="M 10 10 C 10 7.238281 12.238281 5 15 5 C 17.761719 5 20 7.238281 20 10 L 20 25 C 20 29 17 37 11 39 L 9 37 C 10 34 10 32 10 28 Z M 10 10 "/>
<path style=" stroke:none;fill-rule:nonzero;fill:rgb(0%,59.215686%,65.490196%);fill-opacity:1;" d="M 10.121094 36.878906 L 8 39 C 6.761719 39.496094 5.171875 39 3.757812 37.585938 L 3.050781 36.878906 C 2.046875 35.796875 1.109375 35.40625 0.222656 35.464844 C 2.089844 33.652344 5.171875 31.929688 7.292969 34.050781 Z M 10.121094 36.878906 "/>
<path style=" stroke:none;fill-rule:nonzero;fill:rgb(0%,59.215686%,65.490196%);fill-opacity:1;" d="M 10.121094 36.878906 L 8 39 C 7.503906 40.238281 8 41.828125 9.414062 43.242188 L 10.121094 43.949219 C 11.203125 44.953125 11.59375 45.890625 11.535156 46.777344 C 13.347656 44.910156 15.070312 41.828125 12.949219 39.707031 Z M 10.121094 36.878906 "/>
<path style=" stroke:none;fill-rule:nonzero;fill:rgb(14.901961%,77.647059%,85.490196%);fill-opacity:1;" d="M 41 10.5 C 41 14.089844 38.089844 17 34.5 17 C 30.910156 17 28 14.089844 28 10.5 C 28 6.910156 30.910156 4 34.5 4 C 38.089844 4 41 6.910156 41 10.5 Z M 41 10.5 "/>
<path style=" stroke:none;fill-rule:nonzero;fill:rgb(14.901961%,77.647059%,85.490196%);fill-opacity:1;" d="M 29.019531 13.941406 C 29.019531 13.941406 32.085938 17.292969 32.035156 23.945312 C 32.945312 22.03125 34.429688 14.851562 34.429688 14.851562 Z M 29.019531 13.941406 "/>
<path style=" stroke:none;fill-rule:nonzero;fill:rgb(100%,100%,100%);fill-opacity:1;" d="M 34 9 C 34 10.105469 33.105469 11 32 11 C 30.894531 11 30 10.105469 30 9 C 30 7.894531 30.894531 7 32 7 C 33.105469 7 34 7.894531 34 9 Z M 34 9 "/>
<path style=" stroke:none;fill-rule:nonzero;fill:rgb(12.941176%,12.941176%,12.941176%);fill-opacity:1;" d="M 32 9 C 32 9.550781 31.550781 10 31 10 C 30.449219 10 30 9.550781 30 9 C 30 8.449219 30.449219 8 31 8 C 31.550781 8 32 8.449219 32 9 Z M 32 9 "/>
<path style=" stroke:none;fill-rule:nonzero;fill:rgb(0%,59.215686%,65.490196%);fill-opacity:1;" d="M 29.691406 14.863281 C 29.875 15.152344 30.085938 15.535156 30.300781 15.964844 C 32.007812 15.777344 33.46875 15.027344 34.730469 13.683594 L 33.269531 12.316406 C 32.085938 13.578125 30.785156 14.089844 29.054688 14.003906 C 29.050781 14.003906 29.039062 14 29.03125 14 C 29.230469 14.304688 29.449219 14.59375 29.691406 14.863281 Z M 29.691406 14.863281 "/>
<path style=" stroke:none;fill-rule:nonzero;fill:rgb(14.901961%,77.647059%,85.490196%);fill-opacity:1;" d="M 28.636719 35.4375 L 33.066406 41.089844 L 31.964844 34.097656 C 31.964844 35.148438 31.09375 37.648438 28.636719 35.4375 Z M 28.636719 35.4375 "/>
<path style=" stroke:none;fill-rule:nonzero;fill:rgb(14.901961%,77.647059%,85.490196%);fill-opacity:1;" d="M 23.515625 12.734375 L 19.089844 7.113281 L 19.996094 14.003906 C 19.996094 12.949219 21.058594 10.523438 23.515625 12.734375 Z M 23.515625 12.734375 "/>
</g>
</svg>
