<?xml version="1.0" encoding="UTF-8"?>
<svg xmlns="http://www.w3.org/2000/svg" xmlns:xlink="http://www.w3.org/1999/xlink" width="48pt" height="48pt" viewBox="0 0 48 48" version="1.1">
<g id="surface1702">
<path style=" stroke:none;fill-rule:nonzero;fill:rgb(100%,67.058824%,0%);fill-opacity:1;" d="M 28 23 L 19 23 C 19 26.351562 18.234375 31.195312 17.648438 36.53125 C 17.300781 39.996094 20.019531 43 23.5 43 C 26.980469 43 29.699219 39.996094 29.351562 36.53125 C 28.769531 31.117188 28 26.320312 28 23 Z M 28 23 "/>
<path style=" stroke:none;fill-rule:nonzero;fill:rgb(12.941176%,12.941176%,12.941176%);fill-opacity:1;" d="M 19.402344 0.769531 L 15.804688 7 L 23 7 Z M 19.402344 0.769531 "/>
<path style=" stroke:none;fill-rule:nonzero;fill:rgb(12.941176%,12.941176%,12.941176%);fill-opacity:1;" d="M 27.402344 0.769531 L 23.804688 7 L 31 7 Z M 27.402344 0.769531 "/>
<path style=" stroke:none;fill-rule:nonzero;fill:rgb(100%,67.058824%,0%);fill-opacity:1;" d="M 23.5 6 C 21.015625 6 19 8.015625 19 10.5 L 19 38.5 C 19 40.984375 21.015625 43 23.5 43 C 25.984375 43 28 40.984375 28 38.5 L 28 10.5 C 28 8.015625 25.984375 6 23.5 6 Z M 23.5 6 "/>
<path style=" stroke:none;fill-rule:nonzero;fill:rgb(100%,67.058824%,0%);fill-opacity:1;" d="M 5 11 C 5 13.761719 7.238281 16 10 16 L 37 16 C 39.761719 16 42 13.761719 42 11 C 42 8.238281 39.761719 6 37 6 L 10 6 C 7.238281 6 5 8.238281 5 11 Z M 5 11 "/>
<path style=" stroke:none;fill-rule:nonzero;fill:rgb(100%,100%,100%);fill-opacity:1;" d="M 22 11 C 22 12.105469 21.105469 13 20 13 C 18.894531 13 18 12.105469 18 11 C 18 9.894531 18.894531 9 20 9 C 21.105469 9 22 9.894531 22 11 Z M 22 11 "/>
<path style=" stroke:none;fill-rule:nonzero;fill:rgb(12.941176%,12.941176%,12.941176%);fill-opacity:1;" d="M 21 10 C 21 10.550781 20.550781 11 20 11 C 19.449219 11 19 10.550781 19 10 C 19 9.449219 19.449219 9 20 9 C 20.550781 9 21 9.449219 21 10 Z M 21 10 "/>
<path style=" stroke:none;fill-rule:nonzero;fill:rgb(12.941176%,12.941176%,12.941176%);fill-opacity:1;" d="M 26 37.5 C 26 36.671875 24.878906 36 23.5 36 C 22.121094 36 21 36.671875 21 37.5 C 21 38.328125 22.121094 39 23.5 39 C 24.878906 39 26 38.328125 26 37.5 Z M 26 37.5 "/>
<path style=" stroke:none;fill-rule:nonzero;fill:rgb(100%,100%,100%);fill-opacity:1;" d="M 29 11 C 29 12.105469 28.105469 13 27 13 C 25.894531 13 25 12.105469 25 11 C 25 9.894531 25.894531 9 27 9 C 28.105469 9 29 9.894531 29 11 Z M 29 11 "/>
<path style=" stroke:none;fill-rule:nonzero;fill:rgb(12.941176%,12.941176%,12.941176%);fill-opacity:1;" d="M 28 10 C 28 10.550781 27.550781 11 27 11 C 26.449219 11 26 10.550781 26 10 C 26 9.449219 26.449219 9 27 9 C 27.550781 9 28 9.449219 28 10 Z M 28 10 "/>
<path style=" stroke:none;fill-rule:nonzero;fill:rgb(27.058824%,35.294118%,39.215686%);fill-opacity:1;" d="M 27 28 L 34 28 L 34 29 L 27 29 Z M 27 28 "/>
<path style=" stroke:none;fill-rule:nonzero;fill:rgb(27.058824%,35.294118%,39.215686%);fill-opacity:1;" d="M 26 31 L 33 31 L 33 32 L 26 32 Z M 26 31 "/>
<path style=" stroke:none;fill-rule:nonzero;fill:rgb(27.058824%,35.294118%,39.215686%);fill-opacity:1;" d="M 13 28 L 20 28 L 20 29 L 13 29 Z M 13 28 "/>
<path style=" stroke:none;fill-rule:nonzero;fill:rgb(27.058824%,35.294118%,39.215686%);fill-opacity:1;" d="M 14 31 L 21 31 L 21 32 L 14 32 Z M 14 31 "/>
<path style=" stroke:none;fill-rule:nonzero;fill:rgb(12.941176%,12.941176%,12.941176%);fill-opacity:1;" d="M 5.1875 9.714844 C 5.078125 10.125 5 10.550781 5 11 C 5 11.425781 5.054688 11.835938 5.15625 12.226562 C 7.382812 12.136719 10.675781 12.410156 13.042969 13.613281 C 11.007812 11.417969 8.152344 9.621094 5.1875 9.714844 Z M 5.1875 9.714844 "/>
<path style=" stroke:none;fill-rule:nonzero;fill:rgb(12.941176%,12.941176%,12.941176%);fill-opacity:1;" d="M 10.914062 6 L 10 6 C 8.765625 6 7.652344 6.464844 6.777344 7.203125 C 8.863281 7.585938 12.359375 8.699219 15 12 C 14.230469 9.695312 12.867188 7.398438 10.914062 6 Z M 10.914062 6 "/>
<path style=" stroke:none;fill-rule:nonzero;fill:rgb(12.941176%,12.941176%,12.941176%);fill-opacity:1;" d="M 41.84375 12.230469 C 41.945312 11.839844 42 11.425781 42 11 C 42 10.550781 41.921875 10.125 41.8125 9.714844 C 38.796875 9.558594 35.886719 11.382812 33.816406 13.613281 C 36.238281 12.382812 39.59375 12.125 41.84375 12.230469 Z M 41.84375 12.230469 "/>
<path style=" stroke:none;fill-rule:nonzero;fill:rgb(12.941176%,12.941176%,12.941176%);fill-opacity:1;" d="M 37 6 L 35.941406 6 C 33.992188 7.398438 32.628906 9.695312 31.859375 12 C 34.546875 8.640625 38.125 7.542969 40.191406 7.179688 C 39.324219 6.453125 38.222656 6 37 6 Z M 37 6 "/>
</g>
</svg>
