<?xml version="1.0" encoding="UTF-8"?>
<svg xmlns="http://www.w3.org/2000/svg" xmlns:xlink="http://www.w3.org/1999/xlink" width="48pt" height="48pt" viewBox="0 0 48 48" version="1.1">
<g id="surface1647">
<path style=" stroke:none;fill-rule:nonzero;fill:rgb(100%,76.862745%,0%);fill-opacity:1;" d="M 34.308594 3 L 32 3 L 32 18 L 41 18 L 41 9.691406 C 41 6.003906 37.996094 3 34.308594 3 Z M 34.308594 3 "/>
<path style=" stroke:none;fill-rule:nonzero;fill:rgb(55.294118%,43.137255%,38.823529%);fill-opacity:1;" d="M 29 3.5 L 29 6 L 32 6 L 32 3.5 C 32 2.671875 31.328125 2 30.5 2 C 29.671875 2 29 2.671875 29 3.5 Z M 29 3.5 "/>
<path style=" stroke:none;fill-rule:nonzero;fill:rgb(55.294118%,43.137255%,38.823529%);fill-opacity:1;" d="M 12 22.5 L 12 24.5 C 12 26.984375 14.015625 29 16.5 29 L 32.5 29 C 34.984375 29 37 26.984375 37 24.5 L 37 22.5 C 37 20.015625 34.984375 18 32.5 18 L 16.5 18 C 14.015625 18 12 20.015625 12 22.5 Z M 12 22.5 "/>
<path style=" stroke:none;fill-rule:nonzero;fill:rgb(55.294118%,43.137255%,38.823529%);fill-opacity:1;" d="M 34.308594 5 L 30 5 L 30 43 L 39 43 L 39 9.691406 C 39 7.101562 36.898438 5 34.308594 5 Z M 34.308594 5 "/>
<path style=" stroke:none;fill-rule:nonzero;fill:rgb(42.745098%,29.803922%,25.490196%);fill-opacity:1;" d="M 19.734375 29 L 18 24.011719 L 18.011719 29 Z M 19.734375 29 "/>
<path style=" stroke:none;fill-rule:nonzero;fill:rgb(55.294118%,43.137255%,38.823529%);fill-opacity:1;" d="M 34 3.5 L 34 6 L 37 6 L 37 3.5 C 37 2.671875 36.328125 2 35.5 2 C 34.671875 2 34 2.671875 34 3.5 Z M 34 3.5 "/>
<path style=" stroke:none;fill-rule:nonzero;fill:rgb(63.137255%,53.333333%,49.803922%);fill-opacity:1;" d="M 5 5 L 10 5 C 13.867188 5 17 8.132812 17 12 L 17 19 L 12.851562 18.894531 L 10.972656 17.78125 C 9.128906 16.691406 8 14.707031 8 12.566406 L 8 12 C 8 10 7.203125 5.746094 5 5 Z M 5 5 "/>
<path style=" stroke:none;fill-rule:nonzero;fill:rgb(55.294118%,43.137255%,38.823529%);fill-opacity:1;" d="M 9 43 L 18 43 L 18 18 L 15.222656 18 C 11.785156 18 9 20.785156 9 24.222656 Z M 9 43 "/>
<path style=" stroke:none;fill-rule:nonzero;fill:rgb(55.294118%,43.137255%,38.823529%);fill-opacity:1;" d="M 34.5 14 L 25.5 14 C 23.015625 14 21 11.984375 21 9.5 C 21 7.015625 23.015625 5 25.5 5 L 34.5 5 C 36.984375 5 39 7.015625 39 9.5 C 39 11.984375 36.984375 14 34.5 14 Z M 34.5 14 "/>
<path style=" stroke:none;fill-rule:nonzero;fill:rgb(100%,100%,100%);fill-opacity:1;" d="M 34 9 C 34 10.105469 33.105469 11 32 11 C 30.894531 11 30 10.105469 30 9 C 30 7.894531 30.894531 7 32 7 C 33.105469 7 34 7.894531 34 9 Z M 34 9 "/>
<path style=" stroke:none;fill-rule:nonzero;fill:rgb(12.941176%,12.941176%,12.941176%);fill-opacity:1;" d="M 32 9 C 32 9.550781 31.550781 10 31 10 C 30.449219 10 30 9.550781 30 9 C 30 8.449219 30.449219 8 31 8 C 31.550781 8 32 8.449219 32 9 Z M 32 9 "/>
<path style=" stroke:none;fill-rule:nonzero;fill:rgb(73.72549%,66.666667%,64.313725%);fill-opacity:1;" d="M 21.039062 10 C 21.121094 10.738281 21.378906 11.417969 21.777344 12 L 22 12 C 22.089844 12 24.261719 11.988281 26.445312 10.894531 L 25.550781 9.105469 C 23.804688 9.980469 22.015625 10 22 10 Z M 21.039062 10 "/>
<path style=" stroke:none;fill-rule:nonzero;fill:rgb(42.745098%,29.803922%,25.490196%);fill-opacity:1;" d="M 9 40 L 18 40 L 18 43 L 9 43 Z M 9 40 "/>
<path style=" stroke:none;fill-rule:nonzero;fill:rgb(42.745098%,29.803922%,25.490196%);fill-opacity:1;" d="M 30 40 L 39 40 L 39 43 L 30 43 Z M 30 40 "/>
</g>
</svg>
