<?xml version="1.0" encoding="UTF-8"?>
<svg xmlns="http://www.w3.org/2000/svg" xmlns:xlink="http://www.w3.org/1999/xlink" width="48pt" height="48pt" viewBox="0 0 48 48" version="1.1">
<g id="surface1627">
<path style=" stroke:none;fill-rule:nonzero;fill:rgb(74.117647%,74.117647%,74.117647%);fill-opacity:1;" d="M 34.5 39 L 32 39 L 32 37 L 34.5 37 C 36.429688 37 38 35.429688 38 33.5 C 38 31.570312 36.429688 30 34.5 30 L 32 30 L 32 28 L 34.5 28 C 37.53125 28 40 30.46875 40 33.5 C 40 36.53125 37.53125 39 34.5 39 Z M 34.5 39 "/>
<path style=" stroke:none;fill-rule:nonzero;fill:rgb(21.568627%,27.843137%,30.980392%);fill-opacity:1;" d="M 32.546875 2 L 27.519531 2.042969 L 27.519531 17.042969 L 34.703125 20.871094 L 38.386719 14.601562 C 41.929688 8.28125 37.480469 2 32.546875 2 Z M 32.546875 2 "/>
<path style=" stroke:none;fill-rule:nonzero;fill:rgb(74.117647%,74.117647%,74.117647%);fill-opacity:1;" d="M 12 10 C 12 7.238281 14.238281 5 17 5 L 31 5 C 33.761719 5 36 7.238281 36 10 C 36 12.761719 33.761719 15 31 15 L 17 15 C 14.238281 15 12 12.761719 12 10 Z M 12 10 "/>
<path style=" stroke:none;fill-rule:nonzero;fill:rgb(74.117647%,74.117647%,74.117647%);fill-opacity:1;" d="M 32 33 L 23.613281 33 L 35.339844 12.480469 C 36.710938 10.082031 35.878906 7.027344 33.480469 5.660156 C 31.082031 4.289062 28.027344 5.121094 26.660156 7.519531 L 10.660156 35.519531 C 10.613281 35.597656 10.589844 35.683594 10.550781 35.761719 C 10.46875 35.925781 10.390625 36.089844 10.328125 36.265625 C 10.269531 36.414062 10.226562 36.5625 10.1875 36.714844 C 10.144531 36.875 10.109375 37.03125 10.082031 37.195312 C 10.050781 37.371094 10.035156 37.546875 10.027344 37.726562 C 10.023438 37.816406 10 37.90625 10 38 C 10 38.058594 10.015625 38.117188 10.019531 38.175781 C 10.023438 38.355469 10.046875 38.527344 10.070312 38.703125 C 10.09375 38.859375 10.113281 39.015625 10.152344 39.164062 C 10.1875 39.320312 10.238281 39.46875 10.289062 39.617188 C 10.34375 39.773438 10.398438 39.933594 10.464844 40.082031 C 10.53125 40.222656 10.609375 40.359375 10.6875 40.492188 C 10.769531 40.632812 10.851562 40.773438 10.945312 40.90625 C 11.039062 41.035156 11.144531 41.152344 11.25 41.273438 C 11.359375 41.398438 11.464844 41.523438 11.585938 41.636719 C 11.695312 41.738281 11.816406 41.828125 11.933594 41.925781 C 12.078125 42.035156 12.222656 42.144531 12.378906 42.242188 C 12.429688 42.269531 12.46875 42.3125 12.519531 42.339844 C 12.65625 42.421875 12.804688 42.484375 12.949219 42.550781 C 12.996094 42.570312 13.039062 42.597656 13.085938 42.617188 C 13.355469 42.726562 13.628906 42.808594 13.90625 42.871094 C 13.96875 42.886719 14.03125 42.894531 14.097656 42.90625 C 14.394531 42.964844 14.695312 43 14.992188 43 C 15 43 15.003906 43 15.011719 43 L 32 43 C 34.761719 43 37 40.761719 37 38 C 37 35.238281 34.761719 33 32 33 Z M 32 33 "/>
<path style=" stroke:none;fill-rule:nonzero;fill:rgb(74.117647%,74.117647%,74.117647%);fill-opacity:1;" d="M 26 3.5 L 26 6 L 29 6 L 29 3.5 C 29 2.671875 28.328125 2 27.5 2 C 26.671875 2 26 2.671875 26 3.5 Z M 26 3.5 "/>
<path style=" stroke:none;fill-rule:nonzero;fill:rgb(74.117647%,74.117647%,74.117647%);fill-opacity:1;" d="M 31 3.5 L 31 6 L 34 6 L 34 3.5 C 34 2.671875 33.328125 2 32.5 2 C 31.671875 2 31 2.671875 31 3.5 Z M 31 3.5 "/>
<path style=" stroke:none;fill-rule:nonzero;fill:rgb(100%,100%,100%);fill-opacity:1;" d="M 26 9 C 26 10.105469 25.105469 11 24 11 C 22.894531 11 22 10.105469 22 9 C 22 7.894531 22.894531 7 24 7 C 25.105469 7 26 7.894531 26 9 Z M 26 9 "/>
<path style=" stroke:none;fill-rule:nonzero;fill:rgb(12.941176%,12.941176%,12.941176%);fill-opacity:1;" d="M 24 9 C 24 9.550781 23.550781 10 23 10 C 22.449219 10 22 9.550781 22 9 C 22 8.449219 22.449219 8 23 8 C 23.550781 8 24 8.449219 24 9 Z M 24 9 "/>
<path style=" stroke:none;fill-rule:nonzero;fill:rgb(47.058824%,56.470588%,61.176471%);fill-opacity:1;" d="M 33.589844 31 C 32.132812 31 30.691406 29.800781 30 29 C 30.691406 28.199219 32.132812 27 33.589844 27 C 35.050781 27 36 27.894531 36 29 C 36 30.105469 35.050781 31 33.589844 31 Z M 33.589844 31 "/>
<path style=" stroke:none;fill-rule:nonzero;fill:rgb(47.058824%,56.470588%,61.176471%);fill-opacity:1;" d="M 12.421875 11.984375 L 13 12 C 13.089844 12 15.261719 11.988281 17.445312 10.894531 L 16.550781 9.105469 C 14.804688 9.980469 13.015625 10 13 10 L 12 10 C 12 10.707031 12.15625 11.375 12.421875 11.984375 Z M 12.421875 11.984375 "/>
<path style=" stroke:none;fill-rule:nonzero;fill:rgb(21.568627%,27.843137%,30.980392%);fill-opacity:1;" d="M 10.179688 36.753906 C 10.140625 36.898438 10.105469 37.042969 10.082031 37.195312 C 10.050781 37.371094 10.035156 37.546875 10.027344 37.726562 C 10.023438 37.816406 10 37.90625 10 38 C 10 38.058594 10.015625 38.117188 10.019531 38.175781 C 10.023438 38.355469 10.046875 38.527344 10.070312 38.703125 C 10.09375 38.859375 10.113281 39.015625 10.152344 39.164062 C 10.1875 39.320312 10.238281 39.46875 10.289062 39.617188 C 10.34375 39.773438 10.398438 39.933594 10.464844 40.082031 C 10.53125 40.222656 10.609375 40.359375 10.6875 40.492188 C 10.769531 40.632812 10.851562 40.773438 10.945312 40.90625 C 10.960938 40.925781 10.976562 40.941406 10.988281 40.960938 C 16.253906 42.804688 21.191406 35 26.132812 33 L 23.617188 33 C 23.613281 33 14.511719 37.558594 10.179688 36.753906 Z M 10.179688 36.753906 "/>
<path style=" stroke:none;fill-rule:nonzero;fill:rgb(21.568627%,27.843137%,30.980392%);fill-opacity:1;" d="M 37 38 C 37 35.246094 34.773438 33.015625 32.023438 33.003906 C 31.726562 33.59375 31.632812 34.609375 32.6875 36.191406 C 34.378906 38.726562 35.394531 40.109375 34.621094 42.242188 C 36.042969 41.359375 37 39.796875 37 38 Z M 37 38 "/>
<path style=" stroke:none;fill-rule:nonzero;fill:rgb(21.568627%,27.843137%,30.980392%);fill-opacity:1;" d="M 27.855469 35.28125 C 26.460938 39.992188 23.570312 40.390625 21.523438 43 L 27.398438 43 C 28.257812 40.554688 29.59375 38.683594 27.855469 35.28125 Z M 27.855469 35.28125 "/>
<path style=" stroke:none;fill-rule:nonzero;fill:rgb(21.568627%,27.843137%,30.980392%);fill-opacity:1;" d="M 19.484375 20.078125 C 22.0625 20.058594 23.109375 20.773438 25.320312 18.988281 C 22.609375 19.058594 22.363281 18.53125 20.71875 17.914062 Z M 19.484375 20.078125 "/>
<path style=" stroke:none;fill-rule:nonzero;fill:rgb(21.568627%,27.843137%,30.980392%);fill-opacity:1;" d="M 13.730469 30.144531 C 16.632812 29.867188 20.054688 32.710938 24.074219 28.820312 C 20.660156 29.871094 18.808594 27.828125 15.132812 27.695312 Z M 13.730469 30.144531 "/>
<path style=" stroke:none;fill-rule:nonzero;fill:rgb(21.568627%,27.843137%,30.980392%);fill-opacity:1;" d="M 27.640625 25.957031 L 29.503906 22.699219 C 24.851562 22.558594 23.640625 24.953125 18.679688 24.828125 C 21.394531 27.015625 24.371094 25.214844 27.640625 25.957031 Z M 27.640625 25.957031 "/>
<path style=" stroke:none;fill-rule:nonzero;fill:rgb(47.058824%,56.470588%,61.176471%);fill-opacity:1;" d="M 21.414062 16.691406 L 26.554688 15 L 22.308594 15 Z M 21.414062 16.691406 "/>
</g>
</svg>
