<?xml version="1.0" encoding="UTF-8"?>
<svg xmlns="http://www.w3.org/2000/svg" xmlns:xlink="http://www.w3.org/1999/xlink" width="48pt" height="48pt" viewBox="0 0 48 48" version="1.1">
<g id="surface1642">
<path style=" stroke:none;fill-rule:nonzero;fill:rgb(87.843137%,25.098039%,98.431373%);fill-opacity:1;" d="M 16.414062 39.585938 L 15 38.171875 L 11.464844 41.707031 C 11.074219 42.097656 11.074219 42.730469 11.464844 43.121094 C 11.855469 43.511719 12.488281 43.511719 12.878906 43.121094 Z M 16.414062 39.585938 "/>
<path style=" stroke:none;fill-rule:nonzero;fill:rgb(87.843137%,25.098039%,98.431373%);fill-opacity:1;" d="M 32.171875 36.585938 L 33.585938 35.171875 L 37.121094 38.707031 C 37.511719 39.097656 37.511719 39.730469 37.121094 40.121094 C 36.730469 40.511719 36.097656 40.511719 35.707031 40.121094 Z M 32.171875 36.585938 "/>
<path style=" stroke:none;fill-rule:nonzero;fill:rgb(91.764706%,50.196078%,98.823529%);fill-opacity:1;" d="M 38 7.5 L 38 10 L 35 10 L 35 7.5 C 35 6.671875 35.671875 6 36.5 6 C 37.328125 6 38 6.671875 38 7.5 Z M 38 7.5 "/>
<path style=" stroke:none;fill-rule:nonzero;fill:rgb(55.686275%,14.117647%,66.666667%);fill-opacity:1;" d="M 31.691406 7 L 34 7 L 34 22 L 25 22 L 25 13.691406 C 25 10.003906 28.003906 7 31.691406 7 Z M 31.691406 7 "/>
<path style=" stroke:none;fill-rule:nonzero;fill:rgb(87.843137%,25.098039%,98.431373%);fill-opacity:1;" d="M 6 2.472656 L 9.75 2.472656 C 12.648438 2.472656 15 4.824219 15 7.722656 L 15 8.472656 C 15 10.722656 13.246094 12.53125 11.886719 12.894531 L 10.480469 12.058594 C 9.097656 11.242188 8.25 9.753906 8.25 8.148438 L 8.25 7.722656 C 8.25 6.222656 7.652344 3.03125 6 2.472656 Z M 6 2.472656 "/>
<path style=" stroke:none;fill-rule:nonzero;fill:rgb(55.686275%,14.117647%,66.666667%);fill-opacity:1;" d="M 12.75 12.222656 C 12.75 12.222656 10.5 11.472656 10.5 9.222656 C 10.5 6.972656 10.5 3.222656 6 2.472656 C 6 2.472656 12.75 1.722656 12.75 9.222656 C 12.75 9.972656 12.75 12.222656 12.75 12.222656 Z M 12.75 12.222656 "/>
<path style=" stroke:none;fill-rule:nonzero;fill:rgb(55.686275%,14.117647%,66.666667%);fill-opacity:1;" d="M 33.5 0 L 31 10 L 36 10 Z M 33.5 0 "/>
<path style=" stroke:none;fill-rule:nonzero;fill:rgb(91.764706%,50.196078%,98.823529%);fill-opacity:1;" d="M 22 43 C 13.730469 43 7 36.269531 7 28 L 7 16 C 7 13.238281 9.238281 11 12 11 C 14.761719 11 17 13.238281 17 16 L 17 28 C 17 30.757812 19.242188 33 22 33 C 24.757812 33 27 30.757812 27 28 L 27 14 C 27 11.238281 29.238281 9 32 9 C 34.761719 9 37 11.238281 37 14 L 37 28 C 37 36.269531 30.269531 43 22 43 Z M 22 43 "/>
<path style=" stroke:none;fill-rule:nonzero;fill:rgb(87.843137%,25.098039%,98.431373%);fill-opacity:1;" d="M 37 19.734375 L 32.011719 18 L 37 18.011719 Z M 37 19.734375 "/>
<path style=" stroke:none;fill-rule:nonzero;fill:rgb(91.764706%,50.196078%,98.823529%);fill-opacity:1;" d="M 29.171875 39.585938 L 30.585938 38.171875 L 34.121094 41.707031 C 34.511719 42.097656 34.511719 42.730469 34.121094 43.121094 C 33.730469 43.511719 33.097656 43.511719 32.707031 43.121094 Z M 29.171875 39.585938 "/>
<path style=" stroke:none;fill-rule:nonzero;fill:rgb(91.764706%,50.196078%,98.823529%);fill-opacity:1;" d="M 13.414062 36.585938 L 12 35.171875 L 8.464844 38.707031 C 8.074219 39.097656 8.074219 39.730469 8.464844 40.121094 C 8.855469 40.511719 9.488281 40.511719 9.878906 40.121094 Z M 13.414062 36.585938 "/>
<path style=" stroke:none;fill-rule:nonzero;fill:rgb(91.764706%,50.196078%,98.823529%);fill-opacity:1;" d="M 32 7.5 L 32 10 L 29 10 L 29 7.5 C 29 6.671875 29.671875 6 30.5 6 C 31.328125 6 32 6.671875 32 7.5 Z M 32 7.5 "/>
<path style=" stroke:none;fill-rule:nonzero;fill:rgb(91.764706%,50.196078%,98.823529%);fill-opacity:1;" d="M 31.5 18 L 40.5 18 C 42.984375 18 45 15.984375 45 13.5 C 45 11.015625 42.984375 9 40.5 9 L 31.5 9 C 29.015625 9 27 11.015625 27 13.5 C 27 15.984375 29.015625 18 31.5 18 Z M 31.5 18 "/>
<path style=" stroke:none;fill-rule:nonzero;fill:rgb(100%,100%,100%);fill-opacity:1;" d="M 36 13 C 36 14.105469 35.105469 15 34 15 C 32.894531 15 32 14.105469 32 13 C 32 11.894531 32.894531 11 34 11 C 35.105469 11 36 11.894531 36 13 Z M 36 13 "/>
<path style=" stroke:none;fill-rule:nonzero;fill:rgb(12.941176%,12.941176%,12.941176%);fill-opacity:1;" d="M 36 13 C 36 13.550781 35.550781 14 35 14 C 34.449219 14 34 13.550781 34 13 C 34 12.449219 34.449219 12 35 12 C 35.550781 12 36 12.449219 36 13 Z M 36 13 "/>
<path style=" stroke:none;fill-rule:nonzero;fill:rgb(87.843137%,25.098039%,98.431373%);fill-opacity:1;" d="M 44.960938 14 C 44.878906 14.738281 44.621094 15.417969 44.222656 16 L 44 16 C 43.910156 16 41.738281 15.988281 39.554688 14.894531 L 40.449219 13.105469 C 42.195312 13.980469 43.984375 14 44 14 Z M 44.960938 14 "/>
</g>
</svg>
