<?xml version="1.0" encoding="UTF-8"?>
<svg xmlns="http://www.w3.org/2000/svg" xmlns:xlink="http://www.w3.org/1999/xlink" width="48pt" height="48pt" viewBox="0 0 48 48" version="1.1">
<g id="surface1720">
<path style=" stroke:none;fill-rule:nonzero;fill:rgb(27.058824%,35.294118%,39.215686%);fill-opacity:1;" d="M 1 5 C 1 5 6 2 10 7 C 10 7 11.410156 6.492188 11 5.886719 C 9.21875 3.246094 6.378906 0.996094 4.15625 1 C 2.636719 1.003906 0 2 1 5 Z M 1 5 "/>
<path style=" stroke:none;fill-rule:nonzero;fill:rgb(100%,76.862745%,0%);fill-opacity:1;" d="M 9 8 L 2 11 L 9 14 Z M 9 8 "/>
<path style=" stroke:none;fill-rule:nonzero;fill:rgb(47.45098%,52.54902%,79.607843%);fill-opacity:1;" d="M 25 44 C 14.523438 44 6 35.476562 6 25 L 6 23 C 6 12.523438 14.523438 4 25 4 C 35.476562 4 44 12.523438 44 23 L 44 25 C 44 35.476562 35.476562 44 25 44 Z M 25 14 C 20.035156 14 16 18.035156 16 23 L 16 25 C 16 29.964844 20.035156 34 25 34 C 29.964844 34 34 29.964844 34 25 L 34 23 C 34 18.035156 29.964844 14 25 14 Z M 25 14 "/>
<path style=" stroke:none;fill-rule:nonzero;fill:rgb(36.078431%,41.960784%,75.294118%);fill-opacity:1;" d="M 26.765625 27.4375 L 36.621094 45.308594 C 37.3125 46.558594 39.003906 46.804688 40.019531 45.800781 C 40.824219 45.003906 40.871094 43.71875 40.132812 42.859375 Z M 26.765625 27.4375 "/>
<path style=" stroke:none;fill-rule:nonzero;fill:rgb(36.078431%,41.960784%,75.294118%);fill-opacity:1;" d="M 26.671875 27.339844 L 39.855469 42.6875 C 40.664062 43.632812 42.109375 43.6875 42.988281 42.804688 C 43.90625 41.890625 43.804688 40.375 42.773438 39.589844 Z M 26.671875 27.339844 "/>
<path style=" stroke:none;fill-rule:nonzero;fill:rgb(36.078431%,41.960784%,75.294118%);fill-opacity:1;" d="M 26.671875 27.292969 L 43.273438 40.027344 C 44.105469 40.667969 45.28125 40.589844 46.023438 39.847656 C 47.035156 38.835938 46.75 37.125 45.464844 36.492188 Z M 26.671875 27.292969 "/>
<path style=" stroke:none;fill-rule:nonzero;fill:rgb(47.45098%,52.54902%,79.607843%);fill-opacity:1;" d="M 19 11 C 19 14.3125 16.3125 17 13 17 C 9.6875 17 7 14.3125 7 11 C 7 7.6875 9.6875 5 13 5 C 16.3125 5 19 7.6875 19 11 Z M 19 11 "/>
<path style=" stroke:none;fill-rule:nonzero;fill:rgb(12.941176%,12.941176%,12.941176%);fill-opacity:1;" d="M 12 9 C 12 9.550781 11.550781 10 11 10 C 10.449219 10 10 9.550781 10 9 C 10 8.449219 10.449219 8 11 8 C 11.550781 8 12 8.449219 12 9 Z M 12 9 "/>
<path style=" stroke:none;fill-rule:nonzero;fill:rgb(62.352941%,65.882353%,85.490196%);fill-opacity:1;" d="M 12 29 C 12 28.449219 11.550781 28 11 28 L 9 28 C 8.449219 28 8 28.449219 8 29 C 8 29.550781 8.449219 30 9 30 L 11 30 C 11.550781 30 12 29.550781 12 29 Z M 12 29 "/>
<path style=" stroke:none;fill-rule:nonzero;fill:rgb(62.352941%,65.882353%,85.490196%);fill-opacity:1;" d="M 13 26 C 13.550781 26 14 25.550781 14 25 C 14 24.449219 13.550781 24 13 24 L 11 24 C 10.449219 24 10 24.449219 10 25 C 10 25.550781 10.449219 26 11 26 Z M 13 26 "/>
<path style=" stroke:none;fill-rule:nonzero;fill:rgb(62.352941%,65.882353%,85.490196%);fill-opacity:1;" d="M 9 20 C 8.449219 20 8 20.449219 8 21 C 8 21.550781 8.449219 22 9 22 L 11 22 C 11.550781 22 12 21.550781 12 21 C 12 20.449219 11.550781 20 11 20 Z M 9 20 "/>
<path style=" stroke:none;fill-rule:nonzero;fill:rgb(62.352941%,65.882353%,85.490196%);fill-opacity:1;" d="M 41 16 L 39 16 C 38.449219 16 38 16.449219 38 17 C 38 17.550781 38.449219 18 39 18 L 41 18 C 41.550781 18 42 17.550781 42 17 C 42 16.449219 41.550781 16 41 16 Z M 41 16 "/>
<path style=" stroke:none;fill-rule:nonzero;fill:rgb(62.352941%,65.882353%,85.490196%);fill-opacity:1;" d="M 39 29 C 39 28.449219 38.550781 28 38 28 L 36 28 C 35.449219 28 35 28.449219 35 29 C 35 29.550781 35.449219 30 36 30 L 38 30 C 38.550781 30 39 29.550781 39 29 Z M 39 29 "/>
<path style=" stroke:none;fill-rule:nonzero;fill:rgb(62.352941%,65.882353%,85.490196%);fill-opacity:1;" d="M 18 36 L 16 36 C 15.449219 36 15 36.449219 15 37 C 15 37.550781 15.449219 38 16 38 L 18 38 C 18.550781 38 19 37.550781 19 37 C 19 36.449219 18.550781 36 18 36 Z M 18 36 "/>
<path style=" stroke:none;fill-rule:nonzero;fill:rgb(62.352941%,65.882353%,85.490196%);fill-opacity:1;" d="M 14 32 L 12 32 C 11.449219 32 11 32.449219 11 33 C 11 33.550781 11.449219 34 12 34 L 14 34 C 14.550781 34 15 33.550781 15 33 C 15 32.449219 14.550781 32 14 32 Z M 14 32 "/>
<path style=" stroke:none;fill-rule:nonzero;fill:rgb(62.352941%,65.882353%,85.490196%);fill-opacity:1;" d="M 19.355469 32 L 19 32 C 18.449219 32 18 32.449219 18 33 C 18 33.550781 18.449219 34 19 34 L 21 34 C 21.394531 34 21.726562 33.765625 21.890625 33.433594 C 20.964844 33.09375 20.109375 32.609375 19.355469 32 Z M 19.355469 32 "/>
<path style=" stroke:none;fill-rule:nonzero;fill:rgb(62.352941%,65.882353%,85.490196%);fill-opacity:1;" d="M 37 22 L 39 22 C 39.550781 22 40 21.550781 40 21 C 40 20.449219 39.550781 20 39 20 L 37 20 C 36.449219 20 36 20.449219 36 21 C 36 21.550781 36.449219 22 37 22 Z M 37 22 "/>
<path style=" stroke:none;fill-rule:nonzero;fill:rgb(62.352941%,65.882353%,85.490196%);fill-opacity:1;" d="M 36 15 C 36 14.449219 35.550781 14 35 14 L 33 14 C 32.449219 14 32 14.449219 32 15 C 32 15.550781 32.449219 16 33 16 L 35 16 C 35.550781 16 36 15.550781 36 15 Z M 36 15 "/>
<path style=" stroke:none;fill-rule:nonzero;fill:rgb(62.352941%,65.882353%,85.490196%);fill-opacity:1;" d="M 39 26 L 41 26 C 41.550781 26 42 25.550781 42 25 C 42 24.449219 41.550781 24 41 24 L 39 24 C 38.449219 24 38 24.449219 38 25 C 38 25.550781 38.449219 26 39 26 Z M 39 26 "/>
<path style=" stroke:none;fill-rule:nonzero;fill:rgb(62.352941%,65.882353%,85.490196%);fill-opacity:1;" d="M 42 28 C 41.449219 28 41 28.449219 41 29 C 41 29.550781 41.449219 30 42 30 L 43.300781 30 C 43.480469 29.347656 43.625 28.679688 43.734375 28 Z M 42 28 "/>
</g>
</svg>
