<?xml version="1.0" encoding="UTF-8"?>
<svg xmlns="http://www.w3.org/2000/svg" xmlns:xlink="http://www.w3.org/1999/xlink" width="48pt" height="48pt" viewBox="0 0 48 48" version="1.1">
<g id="surface1682">
<path style=" stroke:none;fill-rule:nonzero;fill:rgb(100%,69.019608%,0%);fill-opacity:1;" d="M 37 32 L 35 32 C 35 28.285156 31.683594 28 27 28 L 27 26 C 30.980469 26 37 26 37 32 Z M 37 32 "/>
<path style=" stroke:none;fill-rule:nonzero;fill:rgb(97.647059%,89.411765%,27.45098%);fill-opacity:1;" d="M 24 44 C 12.972656 44 4 35.027344 4 24 C 4 12.972656 12.972656 4 24 4 C 29.183594 4 34.097656 5.976562 37.839844 9.5625 C 39.832031 11.472656 39.898438 14.636719 37.988281 16.628906 C 36.078125 18.625 32.910156 18.691406 30.917969 16.777344 C 29.046875 14.988281 26.59375 14 24 14 C 18.484375 14 14 18.484375 14 24 C 14 29.515625 18.484375 34 24 34 C 26.464844 34 28.828125 33.097656 30.660156 31.460938 C 32.71875 29.617188 35.882812 29.792969 37.722656 31.851562 C 39.5625 33.910156 39.386719 37.070312 37.328125 38.914062 C 33.660156 42.191406 28.925781 44 24 44 Z M 24 44 "/>
<path style=" stroke:none;fill-rule:nonzero;fill:rgb(100%,69.019608%,0%);fill-opacity:1;" d="M 41 18 C 41 21.867188 37.867188 25 34 25 C 30.132812 25 27 21.867188 27 18 C 27 14.132812 30.132812 11 34 11 C 37.867188 11 41 14.132812 41 18 Z M 41 18 "/>
<path style=" stroke:none;fill-rule:nonzero;fill:rgb(100%,69.019608%,0%);fill-opacity:1;" d="M 34 5 C 30.6875 5 28 7.6875 28 11 L 28 16 L 40 16 L 40 11 C 40 7.6875 37.3125 5 34 5 Z M 34 5 "/>
<path style=" stroke:none;fill-rule:nonzero;fill:rgb(100%,69.019608%,0%);fill-opacity:1;" d="M 30 3 L 32 3 L 32 7 L 30 7 Z M 30 3 "/>
<path style=" stroke:none;fill-rule:nonzero;fill:rgb(100%,69.019608%,0%);fill-opacity:1;" d="M 33 2 C 33 3.105469 32.105469 4 31 4 C 29.894531 4 29 3.105469 29 2 C 29 0.894531 29.894531 0 31 0 C 32.105469 0 33 0.894531 33 2 Z M 33 2 "/>
<path style=" stroke:none;fill-rule:nonzero;fill:rgb(100%,69.019608%,0%);fill-opacity:1;" d="M 36 3 L 38 3 L 38 7 L 36 7 Z M 36 3 "/>
<path style=" stroke:none;fill-rule:nonzero;fill:rgb(100%,69.019608%,0%);fill-opacity:1;" d="M 39 2 C 39 3.105469 38.105469 4 37 4 C 35.894531 4 35 3.105469 35 2 C 35 0.894531 35.894531 0 37 0 C 38.105469 0 39 0.894531 39 2 Z M 39 2 "/>
<path style=" stroke:none;fill-rule:nonzero;fill:rgb(100%,69.019608%,0%);fill-opacity:1;" d="M 26.5 12 L 29 12 L 29 9 L 26.5 9 C 25.671875 9 25 9.671875 25 10.5 C 25 11.328125 25.671875 12 26.5 12 Z M 26.5 12 "/>
<path style=" stroke:none;fill-rule:nonzero;fill:rgb(100%,69.019608%,0%);fill-opacity:1;" d="M 41.5 9 L 39 9 L 39 12 L 41.5 12 C 42.328125 12 43 11.328125 43 10.5 C 43 9.671875 42.328125 9 41.5 9 Z M 41.5 9 "/>
<path style=" stroke:none;fill-rule:nonzero;fill:rgb(100%,100%,100%);fill-opacity:1;" d="M 33 11 C 33 12.105469 32.105469 13 31 13 C 29.894531 13 29 12.105469 29 11 C 29 9.894531 29.894531 9 31 9 C 32.105469 9 33 9.894531 33 11 Z M 33 11 "/>
<path style=" stroke:none;fill-rule:nonzero;fill:rgb(12.941176%,12.941176%,12.941176%);fill-opacity:1;" d="M 33 11 C 33 11.550781 32.550781 12 32 12 C 31.449219 12 31 11.550781 31 11 C 31 10.449219 31.449219 10 32 10 C 32.550781 10 33 10.449219 33 11 Z M 33 11 "/>
<path style=" stroke:none;fill-rule:nonzero;fill:rgb(100%,43.529412%,0%);fill-opacity:1;" d="M 33 17 C 33 17.550781 32.550781 18 32 18 C 31.449219 18 31 17.550781 31 17 C 31 16.449219 31.449219 16 32 16 C 32.550781 16 33 16.449219 33 17 Z M 33 17 "/>
<path style=" stroke:none;fill-rule:nonzero;fill:rgb(100%,43.529412%,0%);fill-opacity:1;" d="M 37 17 C 37 17.550781 36.550781 18 36 18 C 35.449219 18 35 17.550781 35 17 C 35 16.449219 35.449219 16 36 16 C 36.550781 16 37 16.449219 37 17 Z M 37 17 "/>
<path style=" stroke:none;fill-rule:nonzero;fill:rgb(100%,100%,100%);fill-opacity:1;" d="M 39 11 C 39 12.105469 38.105469 13 37 13 C 35.894531 13 35 12.105469 35 11 C 35 9.894531 35.894531 9 37 9 C 38.105469 9 39 9.894531 39 11 Z M 39 11 "/>
<path style=" stroke:none;fill-rule:nonzero;fill:rgb(12.941176%,12.941176%,12.941176%);fill-opacity:1;" d="M 39 11 C 39 11.550781 38.550781 12 38 12 C 37.449219 12 37 11.550781 37 11 C 37 10.449219 37.449219 10 38 10 C 38.550781 10 39 10.449219 39 11 Z M 39 11 "/>
<path style=" stroke:none;fill-rule:nonzero;fill:rgb(100%,43.529412%,0%);fill-opacity:1;" d="M 34 23 C 32.117188 23 30.375 22.125 29.226562 20.601562 L 30.820312 19.398438 C 31.589844 20.414062 32.75 21 34 21 C 35.25 21 36.410156 20.414062 37.179688 19.398438 L 38.777344 20.601562 C 37.625 22.125 35.882812 23 34 23 Z M 34 23 "/>
<path style=" stroke:none;fill-rule:nonzero;fill:rgb(93.72549%,42.352941%,0%);fill-opacity:1;" d="M 23.394531 14.03125 C 23.359375 13.976562 23.335938 13.921875 23.296875 13.871094 L 22.078125 12.347656 C 21.460938 11.574219 20.367188 11.378906 19.515625 11.890625 L 17.191406 13.28125 C 16.476562 13.714844 16.109375 14.546875 16.273438 15.367188 L 16.542969 16.71875 C 16.574219 16.886719 16.632812 17.039062 16.703125 17.183594 C 18.398438 15.367188 20.757812 14.1875 23.394531 14.03125 Z M 23.394531 14.03125 "/>
<path style=" stroke:none;fill-rule:nonzero;fill:rgb(93.72549%,42.352941%,0%);fill-opacity:1;" d="M 30.160156 38.28125 L 26.351562 39.550781 C 25.546875 39.816406 25 40.574219 25 41.425781 L 25 43.023438 C 25 43.355469 25.089844 43.667969 25.238281 43.941406 C 28.863281 43.71875 32.339844 42.515625 35.316406 40.46875 L 31.765625 38.4375 C 31.277344 38.160156 30.695312 38.101562 30.160156 38.28125 Z M 30.160156 38.28125 "/>
<path style=" stroke:none;fill-rule:nonzero;fill:rgb(93.72549%,42.352941%,0%);fill-opacity:1;" d="M 19.992188 37.992188 L 16.863281 34.863281 C 16.335938 34.335938 15.550781 34.148438 14.839844 34.386719 L 9.457031 36.179688 C 9.109375 36.296875 8.828125 36.5 8.605469 36.75 C 11.21875 39.898438 14.785156 42.214844 18.847656 43.300781 L 20.363281 40.273438 C 20.742188 39.511719 20.59375 38.59375 19.992188 37.992188 Z M 19.992188 37.992188 "/>
<path style=" stroke:none;fill-rule:nonzero;fill:rgb(93.72549%,42.352941%,0%);fill-opacity:1;" d="M 37.722656 31.851562 C 36.632812 30.632812 35.078125 30.09375 33.5625 30.222656 C 33.222656 30.574219 33 31.046875 33 31.589844 L 33 32.902344 C 33 33.585938 33.351562 34.21875 33.929688 34.582031 L 38.460938 37.414062 C 39.347656 35.636719 39.125 33.425781 37.722656 31.851562 Z M 37.722656 31.851562 "/>
<path style=" stroke:none;fill-rule:nonzero;fill:rgb(93.72549%,42.352941%,0%);fill-opacity:1;" d="M 4.03125 24.605469 C 4.464844 24.597656 4.902344 24.460938 5.277344 24.132812 L 8.695312 21.140625 C 9.441406 20.488281 9.589844 19.382812 9.039062 18.558594 L 8.585938 17.878906 C 8.21875 17.328125 7.601562 17 6.941406 17 L 5.289062 17 C 4.46875 19.183594 4 21.535156 4 24 C 4 24.203125 4.023438 24.402344 4.03125 24.605469 Z M 4.03125 24.605469 "/>
<path style=" stroke:none;fill-rule:nonzero;fill:rgb(93.72549%,42.352941%,0%);fill-opacity:1;" d="M 7.691406 12.460938 L 11.304688 12.914062 C 11.753906 12.96875 12.210938 12.867188 12.597656 12.628906 L 19.070312 8.582031 C 19.648438 8.21875 20 7.585938 20 6.902344 L 20 4.402344 C 14.941406 5.433594 10.582031 8.390625 7.691406 12.460938 Z M 7.691406 12.460938 "/>
<path style=" stroke:none;fill-rule:nonzero;fill:rgb(93.72549%,42.352941%,0%);fill-opacity:1;" d="M 13.59375 22.5625 L 11.242188 23.503906 C 10.492188 23.804688 10 24.53125 10 25.339844 L 10 28.835938 C 10 30 10.996094 30.910156 12.15625 30.804688 L 16.347656 30.425781 C 14.886719 28.683594 14 26.445312 14 24 C 14 23.46875 14.054688 22.953125 14.132812 22.445312 C 13.953125 22.464844 13.769531 22.492188 13.59375 22.5625 Z M 13.59375 22.5625 "/>
<path style=" stroke:none;fill-rule:nonzero;fill:rgb(93.72549%,42.352941%,0%);fill-opacity:1;" d="M 25.589844 29 C 24.132812 29 22.691406 27.800781 22 27 C 22.691406 26.199219 24.132812 25 25.589844 25 C 27.050781 25 28 25.894531 28 27 C 28 28.105469 27.050781 29 25.589844 29 Z M 25.589844 29 "/>
</g>
</svg>
