<?xml version="1.0" encoding="UTF-8"?>
<svg xmlns="http://www.w3.org/2000/svg" xmlns:xlink="http://www.w3.org/1999/xlink" width="48pt" height="48pt" viewBox="0 0 48 48" version="1.1">
<g id="surface3271">
<path style=" stroke:none;fill-rule:nonzero;fill:rgb(21.960784%,55.686275%,23.529412%);fill-opacity:1;" d="M 43 38.800781 C 43 41.101562 41.101562 43 38.800781 43 L 17.199219 43 C 14.898438 43 13 41.101562 13 38.800781 L 13 17.199219 C 13 14.898438 14.898438 13 17.199219 13 L 38.898438 13 C 41.199219 13 43.101562 14.898438 43.101562 17.199219 L 43.101562 38.800781 Z M 43 38.800781 "/>
<path style=" stroke:none;fill-rule:nonzero;fill:rgb(78.431373%,90.196078%,78.823529%);fill-opacity:1;" d="M 35 30.800781 C 35 33.101562 33.101562 35 30.800781 35 L 9.199219 35 C 6.898438 35 5 33.101562 5 30.800781 L 5 9.199219 C 5 6.898438 6.898438 5 9.199219 5 L 30.898438 5 C 33.101562 5 35 6.898438 35 9.199219 Z M 35 30.800781 "/>
</g>
</svg>
