<?xml version="1.0" encoding="UTF-8"?>
<svg xmlns="http://www.w3.org/2000/svg" xmlns:xlink="http://www.w3.org/1999/xlink" width="48pt" height="48pt" viewBox="0 0 48 48" version="1.1">
<g id="surface1528">
<path style=" stroke:none;fill-rule:nonzero;fill:rgb(62.352941%,65.882353%,85.490196%);fill-opacity:1;" d="M 11 13 L 11 38 C 11 40.210938 12.789062 42 15 42 L 31 42 C 33.210938 42 35 40.210938 35 38 L 35 13 Z M 11 13 "/>
<path style=" stroke:none;fill-rule:nonzero;fill:rgb(47.45098%,52.54902%,79.607843%);fill-opacity:1;" d="M 22 15 L 24 15 L 24 38 L 22 38 Z M 28 15 L 30 15 L 30 38 L 28 38 Z M 16 15 L 18 15 L 18 38 L 16 38 Z M 16 15 "/>
<path style=" stroke:none;fill-rule:nonzero;fill:rgb(36.078431%,41.960784%,75.294118%);fill-opacity:1;" d="M 11 10 L 35 10 L 35 14 L 11 14 Z M 11 10 "/>
<path style=" stroke:none;fill-rule:nonzero;fill:rgb(36.078431%,41.960784%,75.294118%);fill-opacity:1;" d="M 9 13 L 37 13 L 37 17 L 9 17 Z M 19 12 L 19 8 L 27 8 L 27 12 L 29 12 L 29 8 C 29 6.894531 28.105469 6 27 6 L 19 6 C 17.894531 6 17 6.894531 17 8 L 17 12 Z M 19 12 "/>
</g>
</svg>
