<?xml version="1.0" standalone="no"?>
<!DOCTYPE svg PUBLIC "-//W3C//DTD SVG 20010904//EN"
 "http://www.w3.org/TR/2001/REC-SVG-20010904/DTD/svg10.dtd">
<svg version="1.0" xmlns="http://www.w3.org/2000/svg"
 width="2000.000000pt" height="2000.000000pt" viewBox="0 0 2000.000000 2000.000000"
 preserveAspectRatio="xMidYMid meet">
<metadata>
Created by potrace 1.11, written by Peter Selinger 2001-2013
</metadata>
<g transform="translate(0.000000,2000.000000) scale(0.100000,-0.100000)"
fill="#000000" stroke="none">
<path d="M9515 19330 c-495 -19 -1028 -57 -1340 -95 -22 -3 -98 -12 -170 -21
-1454 -176 -2807 -583 -3925 -1182 -1046 -560 -1939 -1323 -2580 -2207 -487
-672 -860 -1439 -1089 -2240 -125 -438 -194 -779 -260 -1290 -36 -269 -71
-827 -71 -1115 0 -546 66 -1223 170 -1752 226 -1145 672 -2154 1338 -3028 736
-966 1721 -1735 2950 -2306 67 -31 92 -48 92 -61 0 -10 -7 -58 -16 -108 -8
-49 -19 -116 -25 -147 -91 -540 -281 -1138 -509 -1603 -159 -324 -214 -408
-727 -1114 -150 -206 -270 -378 -267 -383 7 -11 1053 -10 1335 2 849 38 1508
146 2169 356 1132 361 2108 992 2855 1848 l121 138 525 3 c486 3 649 8 1074
35 152 10 208 15 475 40 1962 187 3670 742 4990 1623 441 295 760 555 1130
926 388 388 657 720 936 1156 160 249 353 599 454 825 18 41 48 107 65 145
110 243 273 699 340 950 170 631 248 1090 301 1765 27 333 24 1070 -4 1410
-120 1419 -505 2593 -1199 3652 -359 548 -852 1100 -1373 1538 -1120 940
-2553 1598 -4237 1945 -757 157 -1509 247 -2368 285 -332 15 -912 20 -1160 10z
m-3842 -6698 c7 -5 34 -13 61 -17 27 -3 56 -10 65 -14 59 -29 89 -41 114 -47
15 -3 27 -10 27 -14 0 -5 14 -11 30 -15 17 -4 30 -10 30 -15 0 -4 8 -10 18
-13 29 -10 74 -40 134 -89 31 -27 60 -48 64 -48 11 0 104 -92 104 -103 0 -5
21 -32 46 -60 26 -29 50 -62 55 -74 5 -13 13 -23 18 -23 8 0 24 -37 22 -52 -1
-5 3 -8 8 -8 5 0 12 -12 16 -27 3 -15 10 -30 13 -33 11 -8 41 -73 48 -105 4
-16 10 -35 15 -40 4 -6 11 -31 15 -55 4 -25 12 -48 18 -52 15 -10 15 -480 0
-499 -6 -8 -14 -35 -17 -61 -4 -26 -10 -56 -15 -65 -5 -10 -16 -33 -25 -51 -9
-19 -17 -39 -17 -45 0 -16 -74 -161 -90 -177 -10 -10 -50 -69 -50 -74 0 -8
-201 -202 -250 -240 -25 -20 -50 -40 -57 -46 -6 -5 -23 -12 -37 -16 -14 -3
-26 -10 -26 -15 0 -5 -5 -9 -11 -9 -6 0 -43 -16 -81 -35 -39 -19 -86 -38 -105
-41 -18 -3 -33 -10 -33 -14 0 -4 -28 -11 -62 -15 -35 -4 -69 -12 -77 -18 -19
-16 -393 -16 -412 -1 -8 6 -39 14 -69 18 -30 4 -59 11 -65 15 -5 5 -23 11 -40
15 -16 4 -52 17 -80 30 -27 13 -61 29 -75 35 -14 6 -43 22 -65 36 -22 13 -47
27 -55 32 -19 9 -23 12 -95 72 -72 61 -98 87 -165 166 -51 60 -55 65 -77 101
-27 42 -103 203 -103 218 0 9 -4 16 -9 16 -5 0 -12 20 -15 45 -4 25 -11 45
-16 45 -4 0 -11 28 -15 63 -4 34 -12 65 -17 68 -12 7 -12 371 0 378 5 3 13 34
17 69 4 34 10 62 15 62 4 0 10 18 13 41 3 22 16 64 30 92 13 29 30 63 36 77 6
14 22 43 36 65 13 22 27 48 31 58 3 9 10 17 15 17 6 0 13 8 17 18 20 53 239
272 271 272 6 0 11 4 11 9 0 11 6 14 132 78 110 55 153 73 172 73 9 0 16 4 16
9 0 5 24 12 52 15 29 4 57 11 63 16 6 5 33 11 60 13 84 8 405 -1 418 -11z
m9109 1 c7 -6 35 -13 62 -17 27 -3 54 -10 60 -15 6 -5 27 -12 46 -16 19 -4 41
-11 50 -15 8 -4 33 -15 55 -26 70 -32 180 -97 188 -111 4 -7 14 -13 22 -13 17
0 235 -215 235 -232 0 -6 10 -21 23 -32 12 -12 27 -31 34 -42 27 -42 103 -204
103 -218 0 -8 4 -17 9 -20 5 -4 12 -24 16 -46 4 -22 11 -40 15 -40 5 0 12 -32
16 -70 4 -39 11 -73 15 -76 12 -7 12 -341 0 -348 -4 -3 -11 -33 -15 -65 -4
-33 -11 -63 -16 -66 -4 -3 -11 -28 -15 -55 -4 -28 -10 -50 -15 -50 -4 0 -11
-12 -15 -27 -9 -38 -76 -173 -85 -173 -4 0 -11 -8 -14 -17 -13 -35 -37 -73
-47 -73 -5 0 -9 -6 -9 -13 0 -14 -200 -217 -214 -217 -5 0 -19 -10 -30 -22
-12 -13 -31 -29 -42 -35 -43 -28 -241 -122 -269 -129 -16 -4 -35 -10 -40 -15
-6 -4 -35 -11 -65 -15 -30 -4 -61 -12 -69 -18 -19 -15 -393 -15 -412 1 -8 6
-42 14 -76 18 -35 4 -63 11 -63 15 0 4 -16 11 -35 14 -19 4 -47 13 -62 21 -15
8 -33 15 -39 15 -6 0 -31 11 -55 25 -24 14 -55 30 -69 37 -14 7 -27 15 -30 18
-10 10 -69 50 -75 50 -3 0 -22 18 -44 40 -21 22 -42 40 -47 40 -12 0 -84 72
-84 85 0 6 -12 22 -27 36 -33 29 -73 84 -73 99 0 5 -4 10 -9 10 -11 0 -106
191 -116 233 -4 15 -11 27 -15 27 -4 0 -11 24 -14 52 -4 29 -12 58 -17 64 -5
7 -12 59 -15 115 -3 57 -10 114 -16 127 -8 16 -8 28 0 45 6 12 13 71 16 131 3
60 10 114 16 121 5 7 13 33 16 59 4 25 11 46 15 46 5 0 9 7 9 16 0 9 6 30 14
47 27 65 38 92 36 96 -1 2 2 7 7 10 10 8 30 39 43 69 5 12 14 22 20 22 5 0 10
5 10 10 0 14 41 72 58 83 6 4 12 13 12 20 0 14 130 147 144 147 5 0 18 10 30
23 29 29 82 67 96 67 5 0 10 4 10 9 0 9 160 91 178 91 6 0 25 8 44 17 59 29
64 31 114 38 27 4 54 11 59 16 17 13 91 17 272 14 98 -1 178 -6 185 -12z
m-6758 -2802 c3 -4 31 -11 62 -14 31 -3 62 -11 67 -16 6 -6 17 -11 25 -11 21
0 122 -50 122 -61 0 -5 6 -9 12 -9 17 0 148 -131 148 -147 0 -7 4 -13 10 -13
9 0 63 -104 65 -125 2 -15 14 -44 43 -104 43 -85 46 -91 54 -91 5 0 8 -6 8
-13 0 -8 9 -22 20 -32 11 -10 20 -22 20 -27 0 -12 22 -37 133 -149 113 -113
130 -129 141 -129 6 0 64 -38 76 -50 21 -21 193 -107 229 -115 17 -4 31 -11
31 -16 0 -5 10 -9 23 -9 12 0 35 -7 51 -15 16 -8 47 -18 70 -21 22 -4 46 -10
51 -15 6 -4 35 -11 65 -15 30 -4 60 -11 66 -15 6 -5 70 -12 143 -15 72 -4 134
-11 137 -16 7 -11 201 -11 208 0 3 5 62 12 132 15 70 4 130 11 133 15 3 5 35
12 70 15 35 4 69 11 76 17 7 5 33 13 59 16 25 4 46 10 46 14 0 4 15 11 33 14
19 4 52 15 75 26 23 11 45 20 50 20 16 0 132 61 132 70 0 5 13 11 29 15 16 3
32 13 35 21 3 8 10 14 17 14 12 0 100 68 112 88 4 6 13 12 20 12 14 0 127 110
127 124 0 6 9 19 20 31 48 49 99 122 116 168 3 9 10 17 14 17 5 0 11 14 15 30
4 17 11 30 16 30 5 0 8 3 7 8 -2 11 31 96 53 132 5 8 14 26 20 40 13 31 159
180 176 180 7 0 13 4 13 9 0 11 101 61 122 61 8 0 20 6 27 13 16 16 337 17
372 1 110 -52 164 -81 194 -104 34 -27 125 -123 125 -132 0 -5 11 -24 24 -41
14 -18 28 -45 32 -61 4 -16 13 -41 20 -55 8 -14 14 -38 14 -53 0 -15 5 -30 10
-33 12 -8 13 -222 1 -229 -5 -3 -12 -26 -15 -51 -4 -24 -11 -47 -15 -50 -5 -2
-12 -21 -15 -40 -4 -19 -11 -35 -16 -35 -4 0 -11 -13 -15 -29 -8 -38 -108
-232 -139 -271 -7 -8 -17 -26 -24 -40 -18 -38 -36 -64 -49 -73 -7 -4 -13 -14
-13 -21 0 -7 -9 -21 -20 -31 -11 -10 -20 -22 -20 -28 0 -5 -11 -18 -25 -29
-14 -11 -25 -26 -25 -35 0 -20 -413 -433 -433 -433 -8 0 -17 -3 -19 -7 -5 -13
-96 -83 -107 -83 -5 0 -14 -6 -18 -12 -9 -14 -34 -31 -73 -50 -14 -7 -38 -21
-55 -33 -68 -46 -213 -119 -257 -130 -16 -4 -28 -11 -28 -15 0 -4 -12 -11 -27
-14 -25 -6 -44 -14 -113 -46 -8 -4 -40 -13 -70 -20 -30 -7 -59 -16 -65 -20 -5
-5 -27 -11 -48 -15 -20 -4 -39 -11 -42 -15 -3 -5 -30 -12 -60 -15 -30 -4 -55
-11 -55 -15 0 -4 -30 -11 -67 -15 -38 -4 -73 -11 -78 -15 -6 -5 -53 -12 -105
-16 -52 -4 -101 -12 -109 -18 -20 -16 -842 -16 -862 0 -8 6 -52 14 -98 18 -47
4 -90 11 -95 15 -6 5 -41 12 -78 16 -38 3 -68 10 -68 15 0 4 -25 11 -55 15
-30 3 -57 10 -60 14 -2 5 -27 11 -54 15 -28 4 -53 10 -56 15 -3 5 -28 15 -56
21 -29 7 -64 19 -78 26 -14 8 -31 14 -38 14 -6 0 -24 6 -40 14 -15 8 -93 47
-173 86 -152 74 -166 82 -215 116 -16 11 -38 23 -47 27 -10 3 -18 11 -18 17 0
5 -4 10 -9 10 -14 0 -91 52 -91 62 0 4 -6 8 -13 8 -8 0 -22 9 -32 20 -10 11
-22 20 -27 20 -4 0 -25 18 -47 40 -21 22 -43 40 -47 40 -5 0 -61 52 -124 115
-63 63 -111 115 -106 115 5 0 -10 18 -33 40 -22 22 -41 43 -41 46 0 4 -16 25
-36 48 -47 55 -54 64 -54 71 0 4 -15 25 -33 48 -18 23 -38 53 -45 67 -13 27
-26 49 -57 95 -25 36 -49 87 -47 98 1 4 -2 7 -7 7 -5 0 -12 14 -16 30 -4 17
-10 30 -15 30 -5 0 -11 14 -15 30 -4 17 -11 30 -16 30 -5 0 -9 8 -9 18 0 9 -7
30 -15 45 -8 15 -17 45 -21 65 -4 20 -12 43 -18 51 -16 21 -15 293 2 299 6 2
12 14 12 28 0 32 55 139 102 196 21 26 38 51 38 57 0 6 5 11 11 11 6 0 31 18
56 40 46 40 138 90 167 90 9 0 16 4 16 9 0 5 26 12 58 16 31 3 64 10 72 15 19
11 127 13 134 1z"/>
</g>
</svg>
